<svg width="166" height="24" viewBox="0 0 166 24" fill="none" xmlns="http://www.w3.org/2000/svg">
<path d="M15.792 2.13635V2.61635C15.28 2.68035 14.896 2.81635 14.64 3.02435C14.384 3.21635 14.208 3.52835 14.112 3.96035C14.032 4.39235 13.992 5.00035 13.992 5.78435V19.1764C13.8 19.1604 13.6 19.1524 13.392 19.1524C13.2 19.1524 12.992 19.1604 12.768 19.1764L2.352 5.97635V15.1924C2.352 16.0724 2.4 16.7524 2.496 17.2324C2.592 17.6964 2.8 18.0324 3.12 18.2404C3.456 18.4324 3.976 18.5684 4.68 18.6484V19.1284C4.376 19.0964 3.976 19.0804 3.48 19.0804C2.984 19.0644 2.52 19.0564 2.088 19.0564C1.72 19.0564 1.344 19.0644 0.96 19.0804C0.576 19.0804 0.256 19.0964 0 19.1284V18.6484C0.512 18.5684 0.896 18.4324 1.152 18.2404C1.408 18.0484 1.576 17.7364 1.656 17.3044C1.752 16.8564 1.8 16.2484 1.8 15.4804V4.68035C1.8 4.08835 1.752 3.65635 1.656 3.38435C1.576 3.09635 1.4 2.90435 1.128 2.80835C0.872 2.69635 0.496 2.63235 0 2.61635V2.13635C0.256 2.15235 0.576 2.16835 0.96 2.18435C1.344 2.20035 1.72 2.20835 2.088 2.20835C2.472 2.20835 2.84 2.20035 3.192 2.18435C3.544 2.16835 3.864 2.15235 4.152 2.13635L13.44 13.5844V6.07235C13.44 5.19235 13.392 4.52035 13.296 4.05635C13.2 3.57635 12.984 3.23235 12.648 3.02435C12.328 2.81635 11.816 2.68035 11.112 2.61635V2.13635C11.416 2.15235 11.816 2.16835 12.312 2.18435C12.808 2.20035 13.272 2.20835 13.704 2.20835C14.088 2.20835 14.464 2.20035 14.832 2.18435C15.216 2.16835 15.536 2.15235 15.792 2.13635Z" fill="#03442C"/>
<path d="M19.3996 19.2964C18.6796 19.2964 18.0796 19.1604 17.5996 18.8884C17.1196 18.6164 16.7676 18.2564 16.5436 17.8084C16.3196 17.3444 16.2076 16.8404 16.2076 16.2964C16.2076 15.6084 16.3596 15.0484 16.6636 14.6164C16.9836 14.1844 17.3916 13.8324 17.8876 13.5604C18.3836 13.2884 18.9036 13.0644 19.4476 12.8884C20.0076 12.7124 20.5356 12.5444 21.0316 12.3844C21.5436 12.2084 21.9516 12.0084 22.2556 11.7844C22.5756 11.5444 22.7356 11.2404 22.7356 10.8724V9.00035C22.7356 8.58435 22.6636 8.21635 22.5196 7.89635C22.3916 7.56035 22.1836 7.30435 21.8956 7.12835C21.6236 6.95235 21.2636 6.86435 20.8156 6.86435C20.4956 6.86435 20.1756 6.91235 19.8556 7.00835C19.5356 7.08835 19.2716 7.23235 19.0636 7.44035C19.5116 7.60035 19.8556 7.84835 20.0956 8.18435C20.3516 8.50435 20.4796 8.87235 20.4796 9.28835C20.4796 9.83235 20.2876 10.2644 19.9036 10.5844C19.5356 10.9044 19.0956 11.0644 18.5836 11.0644C18.0076 11.0644 17.5676 10.8884 17.2636 10.5364C16.9756 10.1684 16.8316 9.72835 16.8316 9.21635C16.8316 8.75235 16.9436 8.36835 17.1676 8.06435C17.4076 7.76035 17.7356 7.47235 18.1516 7.20035C18.5996 6.94435 19.1356 6.74435 19.7596 6.60035C20.3996 6.45635 21.0876 6.38435 21.8236 6.38435C22.5596 6.38435 23.2236 6.46435 23.8156 6.62435C24.4076 6.76835 24.9036 7.04035 25.3036 7.44035C25.6716 7.80835 25.9116 8.26435 26.0236 8.80835C26.1356 9.33635 26.1916 10.0084 26.1916 10.8244V17.3524C26.1916 17.7524 26.2316 18.0324 26.3116 18.1924C26.3916 18.3364 26.5276 18.4084 26.7196 18.4084C26.8636 18.4084 26.9996 18.3684 27.1276 18.2884C27.2716 18.2084 27.4236 18.1124 27.5836 18.0004L27.8236 18.4084C27.4876 18.6964 27.0956 18.9204 26.6476 19.0804C26.2156 19.2244 25.7276 19.2964 25.1836 19.2964C24.5916 19.2964 24.1196 19.2164 23.7676 19.0564C23.4156 18.8804 23.1596 18.6484 22.9996 18.3604C22.8556 18.0724 22.7836 17.7364 22.7836 17.3524C22.3996 17.9604 21.9356 18.4404 21.3916 18.7924C20.8476 19.1284 20.1836 19.2964 19.3996 19.2964ZM21.1036 17.7604C21.4236 17.7604 21.7116 17.6884 21.9676 17.5444C22.2396 17.3844 22.4956 17.1284 22.7356 16.7764V11.8564C22.5916 12.0964 22.3916 12.3124 22.1356 12.5044C21.8796 12.6964 21.6076 12.8964 21.3196 13.1044C21.0316 13.2964 20.7516 13.5124 20.4796 13.7524C20.2236 13.9924 20.0156 14.2884 19.8556 14.6404C19.6956 14.9924 19.6156 15.4164 19.6156 15.9124C19.6156 16.5364 19.7516 17.0004 20.0236 17.3044C20.2956 17.6084 20.6556 17.7604 21.1036 17.7604Z" fill="#03442C"/>
<path d="M31.1294 0.528352C31.8014 0.528352 32.3294 0.696352 32.7134 1.03235C33.1134 1.35235 33.3134 1.80035 33.3134 2.37635C33.3134 2.95235 33.1134 3.40835 32.7134 3.74435C32.3294 4.06435 31.8014 4.22435 31.1294 4.22435C30.4574 4.22435 29.9214 4.06435 29.5214 3.74435C29.1374 3.40835 28.9454 2.95235 28.9454 2.37635C28.9454 1.80035 29.1374 1.35235 29.5214 1.03235C29.9214 0.696352 30.4574 0.528352 31.1294 0.528352ZM33.0014 6.45635V16.8964C33.0014 17.5684 33.1134 18.0244 33.3374 18.2644C33.5774 18.5044 33.9774 18.6244 34.5374 18.6244V19.1284C34.2494 19.1124 33.8014 19.0964 33.1934 19.0804C32.5854 19.0484 31.9694 19.0324 31.3454 19.0324C30.7214 19.0324 30.0894 19.0484 29.4494 19.0804C28.8094 19.0964 28.3294 19.1124 28.0094 19.1284V18.6244C28.5694 18.6244 28.9614 18.5044 29.1854 18.2644C29.4254 18.0244 29.5454 17.5684 29.5454 16.8964V9.33635C29.5454 8.61635 29.4334 8.08835 29.2094 7.75235C29.0014 7.40035 28.6014 7.22435 28.0094 7.22435V6.72035C28.5214 6.76835 29.0174 6.79235 29.4974 6.79235C30.1694 6.79235 30.7934 6.76835 31.3694 6.72035C31.9614 6.65635 32.5054 6.56835 33.0014 6.45635Z" fill="#03442C"/>
<path d="M33.9518 23.6404V23.2084C34.7358 23.1924 35.3597 22.8804 35.8237 22.2724C36.2878 21.6804 36.5197 20.7764 36.5197 19.5604V9.33635C36.5197 8.61635 36.4077 8.08835 36.1838 7.75235C35.9598 7.40035 35.5597 7.22435 34.9837 7.22435V6.72035C35.4958 6.76835 35.9917 6.79235 36.4717 6.79235C37.1277 6.79235 37.7518 6.76835 38.3438 6.72035C38.9357 6.65635 39.4798 6.56835 39.9757 6.45635V16.8724C39.9757 17.7524 39.9198 18.5284 39.8078 19.2004C39.6958 19.8724 39.5117 20.4644 39.2557 20.9764C38.9997 21.4884 38.6637 21.9444 38.2477 22.3444C37.8477 22.7284 37.2957 23.0404 36.5918 23.2804C35.9038 23.5204 35.0238 23.6404 33.9518 23.6404ZM37.9837 0.528352C38.6558 0.528352 39.1838 0.696352 39.5677 1.03235C39.9678 1.35235 40.1678 1.80035 40.1678 2.37635C40.1678 2.95235 39.9678 3.40835 39.5677 3.74435C39.1838 4.06435 38.6558 4.22435 37.9837 4.22435C37.3117 4.22435 36.7758 4.06435 36.3758 3.74435C35.9918 3.40835 35.7998 2.95235 35.7998 2.37635C35.7998 1.80035 35.9918 1.35235 36.3758 1.03235C36.7758 0.696352 37.3117 0.528352 37.9837 0.528352Z" fill="#03442C"/>
<path d="M45.0168 19.2964C44.2967 19.2964 43.6968 19.1604 43.2168 18.8884C42.7368 18.6164 42.3848 18.2564 42.1608 17.8084C41.9368 17.3444 41.8247 16.8404 41.8247 16.2964C41.8247 15.6084 41.9767 15.0484 42.2808 14.6164C42.6007 14.1844 43.0088 13.8324 43.5047 13.5604C44.0007 13.2884 44.5208 13.0644 45.0648 12.8884C45.6248 12.7124 46.1528 12.5444 46.6488 12.3844C47.1608 12.2084 47.5687 12.0084 47.8727 11.7844C48.1927 11.5444 48.3527 11.2404 48.3527 10.8724V9.00035C48.3527 8.58435 48.2808 8.21635 48.1367 7.89635C48.0088 7.56035 47.8008 7.30435 47.5127 7.12835C47.2407 6.95235 46.8808 6.86435 46.4328 6.86435C46.1128 6.86435 45.7928 6.91235 45.4728 7.00835C45.1528 7.08835 44.8888 7.23235 44.6808 7.44035C45.1288 7.60035 45.4727 7.84835 45.7127 8.18435C45.9688 8.50435 46.0968 8.87235 46.0968 9.28835C46.0968 9.83235 45.9048 10.2644 45.5208 10.5844C45.1528 10.9044 44.7127 11.0644 44.2007 11.0644C43.6247 11.0644 43.1847 10.8884 42.8807 10.5364C42.5928 10.1684 42.4487 9.72835 42.4487 9.21635C42.4487 8.75235 42.5608 8.36835 42.7848 8.06435C43.0248 7.76035 43.3527 7.47235 43.7687 7.20035C44.2168 6.94435 44.7528 6.74435 45.3768 6.60035C46.0168 6.45635 46.7048 6.38435 47.4408 6.38435C48.1768 6.38435 48.8408 6.46435 49.4328 6.62435C50.0247 6.76835 50.5207 7.04035 50.9207 7.44035C51.2887 7.80835 51.5288 8.26435 51.6408 8.80835C51.7528 9.33635 51.8088 10.0084 51.8088 10.8244V17.3524C51.8088 17.7524 51.8487 18.0324 51.9287 18.1924C52.0088 18.3364 52.1447 18.4084 52.3368 18.4084C52.4808 18.4084 52.6168 18.3684 52.7448 18.2884C52.8888 18.2084 53.0408 18.1124 53.2008 18.0004L53.4408 18.4084C53.1048 18.6964 52.7128 18.9204 52.2648 19.0804C51.8328 19.2244 51.3447 19.2964 50.8008 19.2964C50.2088 19.2964 49.7368 19.2164 49.3848 19.0564C49.0327 18.8804 48.7767 18.6484 48.6167 18.3604C48.4727 18.0724 48.4007 17.7364 48.4007 17.3524C48.0168 17.9604 47.5527 18.4404 47.0088 18.7924C46.4648 19.1284 45.8008 19.2964 45.0168 19.2964ZM46.7207 17.7604C47.0407 17.7604 47.3288 17.6884 47.5848 17.5444C47.8568 17.3844 48.1127 17.1284 48.3527 16.7764V11.8564C48.2087 12.0964 48.0088 12.3124 47.7528 12.5044C47.4967 12.6964 47.2247 12.8964 46.9367 13.1044C46.6488 13.2964 46.3688 13.5124 46.0968 13.7524C45.8408 13.9924 45.6328 14.2884 45.4728 14.6404C45.3128 14.9924 45.2327 15.4164 45.2327 15.9124C45.2327 16.5364 45.3688 17.0004 45.6408 17.3044C45.9128 17.6084 46.2728 17.7604 46.7207 17.7604Z" fill="#03442C"/>
<path d="M53.8666 2.13635C54.2666 2.15235 54.8026 2.16835 55.4746 2.18435C56.1626 2.20035 56.8426 2.20835 57.5146 2.20835C58.2826 2.20835 59.0266 2.20035 59.7466 2.18435C60.4666 2.16835 60.9786 2.16035 61.2826 2.16035C62.7706 2.16035 64.0026 2.32835 64.9786 2.66435C65.9706 2.98435 66.7066 3.45635 67.1866 4.08035C67.6826 4.70435 67.9306 5.45635 67.9306 6.33635C67.9306 6.88035 67.8186 7.43235 67.5946 7.99235C67.3706 8.53635 66.9866 9.04835 66.4426 9.52835C65.9146 9.99235 65.1866 10.3684 64.2586 10.6564C63.3306 10.9284 62.1626 11.0644 60.7546 11.0644H58.4506V10.5844H60.5146C61.4586 10.5844 62.1706 10.4084 62.6506 10.0564C63.1466 9.68835 63.4826 9.20835 63.6586 8.61635C63.8506 8.00835 63.9466 7.33635 63.9466 6.60035C63.9466 5.33635 63.7226 4.36035 63.2746 3.67235C62.8266 2.96835 62.0586 2.61635 60.9706 2.61635C60.3466 2.61635 59.9386 2.75235 59.7466 3.02435C59.5706 3.29635 59.4826 3.84835 59.4826 4.68035V16.5844C59.4826 17.1604 59.5226 17.5924 59.6026 17.8804C59.6986 18.1684 59.8746 18.3604 60.1306 18.4564C60.3866 18.5524 60.7706 18.6164 61.2826 18.6484V19.1284C60.8506 19.0964 60.3066 19.0804 59.6506 19.0804C58.9946 19.0644 58.3306 19.0564 57.6586 19.0564C56.8906 19.0564 56.1626 19.0644 55.4746 19.0804C54.8026 19.0804 54.2666 19.0964 53.8666 19.1284V18.6484C54.3786 18.6164 54.7626 18.5524 55.0186 18.4564C55.2746 18.3604 55.4426 18.1684 55.5226 17.8804C55.6186 17.5924 55.6666 17.1604 55.6666 16.5844V4.68035C55.6666 4.08835 55.6186 3.65635 55.5226 3.38435C55.4426 3.09635 55.2666 2.90435 54.9946 2.80835C54.7386 2.69635 54.3626 2.63235 53.8666 2.61635V2.13635ZM58.4026 10.6564C59.0906 10.6724 59.6826 10.7044 60.1786 10.7524C60.6906 10.8004 61.1386 10.8484 61.5226 10.8964C61.9066 10.9284 62.2506 10.9524 62.5546 10.9684C64.0106 11.0964 65.0826 11.4084 65.7706 11.9044C66.4746 12.4004 66.9306 13.1444 67.1386 14.1364L67.6906 16.6084C67.8346 17.2484 67.9866 17.6964 68.1466 17.9524C68.3066 18.2084 68.5386 18.3364 68.8426 18.3364C69.0506 18.3204 69.2186 18.2724 69.3466 18.1924C69.4906 18.0964 69.6426 17.9604 69.8026 17.7844L70.1386 18.0724C69.7066 18.5684 69.2426 18.9204 68.7466 19.1284C68.2506 19.3524 67.6506 19.4644 66.9466 19.4644C66.0826 19.4644 65.3706 19.2804 64.8106 18.9124C64.2506 18.5444 63.8826 17.8644 63.7066 16.8724L63.2746 14.4724C63.1626 13.8004 63.0266 13.2164 62.8666 12.7204C62.7066 12.2084 62.4826 11.8084 62.1946 11.5204C61.9226 11.2164 61.5386 11.0644 61.0426 11.0644H58.4506L58.4026 10.6564Z" fill="#03442C"/>
<path d="M75.9358 6.38435C77.3438 6.38435 78.4478 6.80035 79.2478 7.63235C80.0478 8.46435 80.4478 9.82435 80.4478 11.7124H72.5518L72.5038 11.2564H77.4238C77.4398 10.4724 77.3918 9.75235 77.2798 9.09635C77.1678 8.42435 76.9918 7.88835 76.7518 7.48835C76.5118 7.08835 76.1918 6.88835 75.7918 6.88835C75.2318 6.88835 74.7518 7.24035 74.3518 7.94435C73.9678 8.64835 73.7358 9.81635 73.6558 11.4484L73.7278 11.5924C73.7118 11.7844 73.6958 11.9844 73.6798 12.1924C73.6798 12.4004 73.6798 12.6164 73.6798 12.8404C73.6798 13.9444 73.8318 14.8404 74.1358 15.5284C74.4558 16.2164 74.8558 16.7204 75.3358 17.0404C75.8158 17.3444 76.3038 17.4964 76.7998 17.4964C77.1358 17.4964 77.4798 17.4484 77.8318 17.3524C78.1998 17.2404 78.5678 17.0484 78.9358 16.7764C79.3038 16.4884 79.6478 16.0884 79.9678 15.5764L80.3998 15.7204C80.2078 16.3284 79.9038 16.9204 79.4878 17.4964C79.0718 18.0724 78.5438 18.5444 77.9038 18.9124C77.2638 19.2804 76.4958 19.4644 75.5998 19.4644C74.5118 19.4644 73.5518 19.2324 72.7198 18.7684C71.8878 18.3044 71.2318 17.6004 70.7518 16.6564C70.2878 15.7124 70.0558 14.5124 70.0558 13.0564C70.0558 11.5684 70.3038 10.3284 70.7998 9.33635C71.3118 8.34435 72.0078 7.60835 72.8878 7.12835C73.7838 6.63235 74.7998 6.38435 75.9358 6.38435Z" fill="#03442C"/>
<path d="M90.1249 6.38435C90.7969 6.38435 91.3409 6.47235 91.7569 6.64835C92.1889 6.80835 92.5249 7.03235 92.7649 7.32035C93.0209 7.62435 93.2049 8.01635 93.3169 8.49635C93.4449 8.97635 93.5089 9.62435 93.5089 10.4404V16.8964C93.5089 17.5684 93.6209 18.0244 93.8449 18.2644C94.0849 18.5044 94.4849 18.6244 95.0449 18.6244V19.1284C94.7409 19.1124 94.2849 19.0964 93.6769 19.0804C93.0689 19.0484 92.4689 19.0324 91.8769 19.0324C91.2689 19.0324 90.6689 19.0484 90.0769 19.0804C89.5009 19.0964 89.0609 19.1124 88.7569 19.1284V18.6244C89.2369 18.6244 89.5729 18.5044 89.7649 18.2644C89.9569 18.0244 90.0529 17.5684 90.0529 16.8964V9.43235C90.0529 9.03235 90.0129 8.68835 89.9329 8.40035C89.8529 8.09635 89.7089 7.86435 89.5009 7.70435C89.2929 7.52835 88.9809 7.44035 88.5649 7.44035C88.1329 7.44035 87.7329 7.56035 87.3649 7.80035C87.0129 8.04035 86.7249 8.37635 86.5009 8.80835C86.2929 9.22435 86.1889 9.69635 86.1889 10.2244V16.8964C86.1889 17.5684 86.2849 18.0244 86.4769 18.2644C86.6849 18.5044 87.0209 18.6244 87.4849 18.6244V19.1284C87.1969 19.1124 86.7729 19.0964 86.2129 19.0804C85.6689 19.0484 85.1009 19.0324 84.5089 19.0324C83.9009 19.0324 83.2769 19.0484 82.6369 19.0804C81.9969 19.0964 81.5169 19.1124 81.1969 19.1284V18.6244C81.7569 18.6244 82.1489 18.5044 82.3729 18.2644C82.6129 18.0244 82.7329 17.5684 82.7329 16.8964V9.33635C82.7329 8.61635 82.6209 8.08835 82.3969 7.75235C82.1889 7.40035 81.7889 7.22435 81.1969 7.22435V6.72035C81.7089 6.76835 82.2049 6.79235 82.6849 6.79235C83.3569 6.79235 83.9809 6.76835 84.5569 6.72035C85.1489 6.65635 85.6929 6.56835 86.1889 6.45635V8.61635C86.5889 7.80035 87.1329 7.22435 87.8209 6.88835C88.5089 6.55235 89.2769 6.38435 90.1249 6.38435Z" fill="#03442C"/>
<path d="M100.311 2.78435V6.72035H103.143V7.20035H100.311V16.8964C100.311 17.3764 100.399 17.7204 100.575 17.9284C100.751 18.1204 101.015 18.2164 101.367 18.2164C101.655 18.2164 101.943 18.1124 102.231 17.9044C102.519 17.6804 102.775 17.3044 102.999 16.7764L103.407 16.9924C103.151 17.7124 102.759 18.3044 102.231 18.7684C101.719 19.2324 101.015 19.4644 100.119 19.4644C99.5911 19.4644 99.1271 19.3924 98.7271 19.2484C98.3271 19.1204 97.9911 18.9204 97.7191 18.6484C97.3671 18.2964 97.1351 17.8644 97.0231 17.3524C96.9111 16.8244 96.8551 16.1444 96.8551 15.3124V7.20035H94.8391V6.72035H96.8551V3.55235C97.5271 3.55235 98.1431 3.49635 98.7031 3.38435C99.2791 3.25635 99.8151 3.05635 100.311 2.78435Z" fill="#03442C"/>
<path d="M118.838 2.13635V2.61635C118.486 2.74435 118.11 3.02435 117.71 3.45635C117.326 3.88835 116.966 4.56035 116.63 5.47235L111.566 19.1764C111.438 19.1604 111.302 19.1524 111.158 19.1524C111.014 19.1524 110.87 19.1524 110.726 19.1524C110.598 19.1524 110.462 19.1524 110.318 19.1524C110.174 19.1524 110.038 19.1604 109.91 19.1764L103.79 4.15235C103.566 3.57635 103.318 3.18435 103.046 2.97635C102.774 2.75235 102.518 2.63235 102.278 2.61635V2.13635C102.758 2.15235 103.318 2.16835 103.958 2.18435C104.614 2.20035 105.27 2.20835 105.926 2.20835C106.662 2.20835 107.35 2.20035 107.99 2.18435C108.646 2.16835 109.174 2.15235 109.574 2.13635V2.61635C109.062 2.63235 108.662 2.69635 108.374 2.80835C108.086 2.90435 107.926 3.09635 107.894 3.38435C107.862 3.65635 107.958 4.07235 108.182 4.63235L112.55 15.7444L112.046 16.3444L115.358 7.41635C115.79 6.21635 116.014 5.27235 116.03 4.58435C116.046 3.89635 115.878 3.40035 115.526 3.09635C115.174 2.79235 114.67 2.63235 114.014 2.61635V2.13635C114.558 2.15235 115.07 2.16835 115.55 2.18435C116.03 2.20035 116.518 2.20835 117.014 2.20835C117.366 2.20835 117.694 2.20035 117.998 2.18435C118.318 2.16835 118.598 2.15235 118.838 2.13635Z" fill="#03442C"/>
<path d="M123.272 6.38435C124.68 6.38435 125.784 6.80035 126.584 7.63235C127.384 8.46435 127.784 9.82435 127.784 11.7124H119.888L119.84 11.2564H124.76C124.776 10.4724 124.728 9.75235 124.616 9.09635C124.504 8.42435 124.328 7.88835 124.088 7.48835C123.848 7.08835 123.528 6.88835 123.128 6.88835C122.568 6.88835 122.088 7.24035 121.688 7.94435C121.304 8.64835 121.072 9.81635 120.992 11.4484L121.064 11.5924C121.048 11.7844 121.032 11.9844 121.016 12.1924C121.016 12.4004 121.016 12.6164 121.016 12.8404C121.016 13.9444 121.168 14.8404 121.472 15.5284C121.792 16.2164 122.192 16.7204 122.672 17.0404C123.152 17.3444 123.64 17.4964 124.136 17.4964C124.472 17.4964 124.816 17.4484 125.168 17.3524C125.536 17.2404 125.904 17.0484 126.272 16.7764C126.64 16.4884 126.984 16.0884 127.304 15.5764L127.736 15.7204C127.544 16.3284 127.24 16.9204 126.824 17.4964C126.408 18.0724 125.88 18.5444 125.24 18.9124C124.6 19.2804 123.832 19.4644 122.936 19.4644C121.848 19.4644 120.888 19.2324 120.056 18.7684C119.224 18.3044 118.568 17.6004 118.088 16.6564C117.624 15.7124 117.392 14.5124 117.392 13.0564C117.392 11.5684 117.64 10.3284 118.136 9.33635C118.648 8.34435 119.344 7.60835 120.224 7.12835C121.12 6.63235 122.136 6.38435 123.272 6.38435Z" fill="#03442C"/>
<path d="M136.789 6.38435C137.301 6.38435 137.717 6.49635 138.037 6.72035C138.357 6.92835 138.589 7.20035 138.733 7.53635C138.893 7.87235 138.973 8.22435 138.973 8.59235C138.973 9.18435 138.797 9.67235 138.445 10.0564C138.109 10.4244 137.661 10.6084 137.101 10.6084C136.541 10.6084 136.101 10.4724 135.781 10.2004C135.477 9.91235 135.325 9.53635 135.325 9.07235C135.325 8.62435 135.421 8.25635 135.613 7.96835C135.821 7.66435 136.077 7.40835 136.381 7.20035C136.157 7.13635 135.933 7.14435 135.709 7.22435C135.405 7.27235 135.117 7.40035 134.845 7.60835C134.573 7.80035 134.341 8.04835 134.149 8.35235C133.957 8.64035 133.805 8.96035 133.693 9.31235C133.581 9.64835 133.525 9.97635 133.525 10.2964V16.6564C133.525 17.4244 133.709 17.9444 134.077 18.2164C134.461 18.4884 135.029 18.6244 135.781 18.6244V19.1284C135.413 19.1124 134.877 19.0964 134.173 19.0804C133.469 19.0484 132.733 19.0324 131.965 19.0324C131.325 19.0324 130.677 19.0484 130.021 19.0804C129.365 19.0964 128.869 19.1124 128.533 19.1284V18.6244C129.093 18.6244 129.485 18.5044 129.709 18.2644C129.949 18.0244 130.069 17.5684 130.069 16.8964V9.33635C130.069 8.61635 129.957 8.08835 129.733 7.75235C129.525 7.40035 129.125 7.22435 128.533 7.22435V6.72035C129.045 6.76835 129.541 6.79235 130.021 6.79235C130.693 6.79235 131.317 6.76835 131.893 6.72035C132.485 6.65635 133.029 6.56835 133.525 6.45635V8.68835C133.717 8.25635 133.973 7.86435 134.293 7.51235C134.613 7.16035 134.981 6.88835 135.397 6.69635C135.813 6.48835 136.277 6.38435 136.789 6.38435Z" fill="#03442C"/>
<path d="M142.356 0.528352C143.028 0.528352 143.556 0.696352 143.94 1.03235C144.34 1.35235 144.54 1.80035 144.54 2.37635C144.54 2.95235 144.34 3.40835 143.94 3.74435C143.556 4.06435 143.028 4.22435 142.356 4.22435C141.684 4.22435 141.148 4.06435 140.748 3.74435C140.364 3.40835 140.172 2.95235 140.172 2.37635C140.172 1.80035 140.364 1.35235 140.748 1.03235C141.148 0.696352 141.684 0.528352 142.356 0.528352ZM144.228 6.45635V16.8964C144.228 17.5684 144.34 18.0244 144.564 18.2644C144.804 18.5044 145.204 18.6244 145.764 18.6244V19.1284C145.476 19.1124 145.028 19.0964 144.42 19.0804C143.812 19.0484 143.196 19.0324 142.572 19.0324C141.948 19.0324 141.316 19.0484 140.676 19.0804C140.036 19.0964 139.556 19.1124 139.236 19.1284V18.6244C139.796 18.6244 140.188 18.5044 140.412 18.2644C140.652 18.0244 140.772 17.5684 140.772 16.8964V9.33635C140.772 8.61635 140.66 8.08835 140.436 7.75235C140.228 7.40035 139.828 7.22435 139.236 7.22435V6.72035C139.748 6.76835 140.244 6.79235 140.724 6.79235C141.396 6.79235 142.02 6.76835 142.596 6.72035C143.188 6.65635 143.732 6.56835 144.228 6.45635Z" fill="#03442C"/>
<path d="M152.642 0.360352C153.202 0.360352 153.69 0.432352 154.106 0.576352C154.522 0.720352 154.89 0.912352 155.21 1.15235C155.434 1.32835 155.626 1.57635 155.786 1.89635C155.946 2.20035 156.026 2.55235 156.026 2.95235C156.026 3.38435 155.866 3.76835 155.546 4.10435C155.242 4.44035 154.834 4.60835 154.322 4.60835C153.794 4.60835 153.354 4.45635 153.002 4.15235C152.666 3.84835 152.498 3.43235 152.498 2.90435C152.498 2.48835 152.618 2.12035 152.858 1.80035C153.098 1.48035 153.45 1.25635 153.914 1.12835C153.866 1.03235 153.77 0.952352 153.626 0.888352C153.482 0.824352 153.29 0.792352 153.05 0.792352C152.73 0.792352 152.466 0.848352 152.258 0.960352C152.05 1.07235 151.882 1.22435 151.754 1.41635C151.578 1.65635 151.458 2.00835 151.394 2.47235C151.33 2.92035 151.298 3.61635 151.298 4.56035V6.74435H153.866V7.22435H151.298V16.6564C151.298 17.4404 151.498 17.9684 151.898 18.2404C152.298 18.4964 152.85 18.6244 153.554 18.6244V19.1284C153.138 19.1124 152.554 19.0964 151.802 19.0804C151.05 19.0484 150.258 19.0324 149.426 19.0324C148.818 19.0324 148.218 19.0484 147.626 19.0804C147.05 19.0964 146.61 19.1124 146.306 19.1284V18.6244C146.866 18.6244 147.258 18.5044 147.482 18.2644C147.722 18.0244 147.842 17.5684 147.842 16.8964V7.22435H146.21V6.74435H147.842C147.842 5.80035 147.89 5.01635 147.986 4.39235C148.082 3.75235 148.242 3.20835 148.466 2.76035C148.69 2.31235 148.986 1.91235 149.354 1.56035C149.706 1.22435 150.17 0.944353 150.746 0.720353C151.338 0.480352 151.97 0.360352 152.642 0.360352Z" fill="#03442C"/>
<path d="M165.98 6.72035V7.20035C165.676 7.28035 165.388 7.47235 165.116 7.77635C164.844 8.06435 164.58 8.56035 164.324 9.26435L160.94 18.7684L160.052 20.4484L154.82 8.56835C154.548 7.94435 154.276 7.56835 154.004 7.44035C153.748 7.29635 153.524 7.22435 153.332 7.22435V6.72035C153.86 6.76835 154.404 6.80835 154.964 6.84035C155.54 6.85635 156.092 6.86435 156.62 6.86435C157.276 6.86435 157.876 6.84835 158.42 6.81635C158.964 6.78435 159.476 6.75235 159.956 6.72035V7.22435C159.636 7.22435 159.332 7.24835 159.044 7.29635C158.772 7.32835 158.58 7.44035 158.468 7.63235C158.372 7.80835 158.42 8.12035 158.612 8.56835L161.636 15.8644L161.42 16.0084L163.196 11.0404C163.5 10.1764 163.628 9.47235 163.58 8.92835C163.532 8.36835 163.356 7.95235 163.052 7.68035C162.748 7.39235 162.332 7.23235 161.804 7.20035V6.72035C162.06 6.73635 162.324 6.75235 162.596 6.76835C162.868 6.76835 163.14 6.77635 163.412 6.79235C163.684 6.79235 163.924 6.79235 164.132 6.79235C164.452 6.79235 164.788 6.78435 165.14 6.76835C165.492 6.75235 165.772 6.73635 165.98 6.72035ZM160.94 18.7684L160.028 21.3364C159.868 21.7364 159.7 22.0724 159.524 22.3444C159.364 22.6324 159.18 22.8644 158.972 23.0404C158.748 23.2324 158.46 23.3764 158.108 23.4724C157.756 23.5844 157.348 23.6404 156.884 23.6404C156.5 23.6404 156.1 23.5764 155.684 23.4484C155.284 23.3204 154.948 23.1124 154.676 22.8244C154.404 22.5364 154.268 22.1684 154.268 21.7204C154.268 21.2244 154.444 20.8244 154.796 20.5204C155.148 20.2324 155.612 20.0884 156.188 20.0884C156.716 20.0884 157.148 20.2164 157.484 20.4724C157.82 20.7284 157.988 21.1044 157.988 21.6004C157.988 21.9204 157.884 22.2244 157.676 22.5124C157.484 22.8004 157.188 23.0164 156.788 23.1604C156.868 23.1764 156.964 23.1844 157.076 23.1844C157.188 23.1844 157.276 23.1844 157.34 23.1844C157.82 23.1844 158.244 23.0324 158.612 22.7284C158.98 22.4244 159.284 21.9444 159.524 21.2884L160.364 18.8164L160.94 18.7684Z" fill="#03442C"/>
</svg>
