<svg width="16" height="16" viewBox="0 0 16 16" fill="none" xmlns="http://www.w3.org/2000/svg">
<mask id="path-1-inside-1_934_349" fill="currentColor">
<path d="M4.63 16C3.34467 16 2.25167 15.5497 1.351 14.649C0.450333 13.7483 0 12.653 0 11.363C0 10.8243 0.0923333 10.2997 0.277 9.789C0.461667 9.27833 0.728333 8.81333 1.077 8.394L4.589 4.177L3.1 1.162C2.95933 0.892667 2.96533 0.631667 3.118 0.379C3.27133 0.126334 3.50133 0 3.808 0H12.192C12.4987 0 12.7287 0.126334 12.882 0.379C13.0353 0.631667 13.0413 0.892667 12.9 1.162L11.411 4.177L14.923 8.394C15.2717 8.81333 15.5383 9.27833 15.723 9.789C15.9077 10.299 16 10.8237 16 11.363C16 12.653 15.55 13.7483 14.65 14.649C13.75 15.5497 12.6567 16 11.37 16H4.63ZM7.997 11.48C7.55167 11.48 7.17167 11.3217 6.857 11.005C6.54233 10.6883 6.385 10.3073 6.385 9.862C6.385 9.41667 6.54333 9.03667 6.86 8.722C7.17667 8.40733 7.558 8.25 8.004 8.25C8.45 8.25 8.83 8.40867 9.144 8.726C9.458 9.04333 9.61533 9.42433 9.616 9.869C9.61667 10.3137 9.458 10.6937 9.14 11.009C8.822 11.3243 8.441 11.4817 7.997 11.481M5.51 3.75H10.51L11.875 1H4.125L5.51 3.75ZM4.63 15H11.37C12.384 15 13.2427 14.6453 13.946 13.936C14.6487 13.2253 15 12.3683 15 11.365C15 10.9423 14.929 10.5307 14.787 10.13C14.645 9.72933 14.4367 9.366 14.162 9.04L10.582 4.75H5.442L1.858 9.035C1.582 9.36033 1.37 9.72533 1.222 10.13C1.074 10.534 1 10.947 1 11.369C1 12.3703 1.355 13.226 2.065 13.936C2.77433 14.6453 3.62933 15 4.63 15Z"/>
</mask>
<path d="M4.63 16C3.34467 16 2.25167 15.5497 1.351 14.649C0.450333 13.7483 0 12.653 0 11.363C0 10.8243 0.0923333 10.2997 0.277 9.789C0.461667 9.27833 0.728333 8.81333 1.077 8.394L4.589 4.177L3.1 1.162C2.95933 0.892667 2.96533 0.631667 3.118 0.379C3.27133 0.126334 3.50133 0 3.808 0H12.192C12.4987 0 12.7287 0.126334 12.882 0.379C13.0353 0.631667 13.0413 0.892667 12.9 1.162L11.411 4.177L14.923 8.394C15.2717 8.81333 15.5383 9.27833 15.723 9.789C15.9077 10.299 16 10.8237 16 11.363C16 12.653 15.55 13.7483 14.65 14.649C13.75 15.5497 12.6567 16 11.37 16H4.63ZM7.997 11.48C7.55167 11.48 7.17167 11.3217 6.857 11.005C6.54233 10.6883 6.385 10.3073 6.385 9.862C6.385 9.41667 6.54333 9.03667 6.86 8.722C7.17667 8.40733 7.558 8.25 8.004 8.25C8.45 8.25 8.83 8.40867 9.144 8.726C9.458 9.04333 9.61533 9.42433 9.616 9.869C9.61667 10.3137 9.458 10.6937 9.14 11.009C8.822 11.3243 8.441 11.4817 7.997 11.481M5.51 3.75H10.51L11.875 1H4.125L5.51 3.75ZM4.63 15H11.37C12.384 15 13.2427 14.6453 13.946 13.936C14.6487 13.2253 15 12.3683 15 11.365C15 10.9423 14.929 10.5307 14.787 10.13C14.645 9.72933 14.4367 9.366 14.162 9.04L10.582 4.75H5.442L1.858 9.035C1.582 9.36033 1.37 9.72533 1.222 10.13C1.074 10.534 1 10.947 1 11.369C1 12.3703 1.355 13.226 2.065 13.936C2.77433 14.6453 3.62933 15 4.63 15Z" fill="currentColor"/>
<path d="M0 11.363H-1H0ZM1.077 8.394L0.308584 7.75405L0.308078 7.75466L1.077 8.394ZM4.589 4.177L5.35742 4.81695L5.77357 4.31726L5.48562 3.73419L4.589 4.177ZM3.1 1.162L3.99662 0.719193L3.99162 0.709069L3.98639 0.699059L3.1 1.162ZM3.118 0.379L2.2631 -0.139802L2.26211 -0.13815L3.118 0.379ZM12.9 1.162L12.0145 0.697338L12.0088 0.708198L12.0034 0.719193L12.9 1.162ZM11.411 4.177L10.5144 3.73419L10.2264 4.31726L10.6426 4.81695L11.411 4.177ZM14.923 8.394L15.6919 7.75466L15.6914 7.75405L14.923 8.394ZM15.723 9.789L14.7826 10.1291L14.7827 10.1295L15.723 9.789ZM11.37 16V17V16ZM5.51 3.75L4.61688 4.19981L4.89397 4.75H5.51V3.75ZM10.51 3.75V4.75H11.13L11.4057 4.19461L10.51 3.75ZM11.875 1L12.7707 1.44461L13.4878 0H11.875V1ZM4.125 1V0H2.5017L3.23188 1.44981L4.125 1ZM13.946 13.936L14.6561 14.6401L14.6571 14.6391L13.946 13.936ZM14.162 9.04L13.3942 9.68072L13.3973 9.68433L14.162 9.04ZM10.582 4.75L11.3498 4.10929L11.05 3.75H10.582V4.75ZM5.442 4.75V3.75H4.97473L4.67494 4.10843L5.442 4.75ZM1.858 9.035L2.62057 9.68194L2.62506 9.67657L1.858 9.035ZM1.222 10.13L2.16098 10.474L2.16116 10.4735L1.222 10.13ZM4.63 15C3.60717 15 2.76933 14.6531 2.05811 13.9419L0.643893 15.3561C1.73401 16.4462 3.08217 17 4.63 17V15ZM2.05811 13.9419C1.34765 13.2314 1 12.3916 1 11.363H-1C-1 12.9144 -0.446983 14.2652 0.643893 15.3561L2.05811 13.9419ZM1 11.363C1 10.9412 1.07184 10.5316 1.2174 10.1291L-0.663401 9.44893C-0.887174 10.0677 -1 10.7074 -1 11.363H1ZM1.2174 10.1291C1.3625 9.72781 1.57099 9.36399 1.84592 9.03334L0.308078 7.75466C-0.114327 8.26268 -0.439169 8.82885 -0.663401 9.44893L1.2174 10.1291ZM1.84542 9.03395L5.35742 4.81695L3.82058 3.53705L0.308585 7.75405L1.84542 9.03395ZM5.48562 3.73419L3.99662 0.719193L2.20338 1.60481L3.69238 4.61981L5.48562 3.73419ZM3.98639 0.699059C3.98138 0.689477 4.00021 0.722946 3.99874 0.787233C3.99805 0.817024 3.99307 0.8438 3.98646 0.865194C3.98004 0.88596 3.97375 0.89639 3.97389 0.89615L2.26211 -0.13815C1.92243 0.424023 1.91704 1.05709 2.21361 1.62494L3.98639 0.699059ZM3.97289 0.897802C3.97031 0.902064 3.94429 0.93973 3.88693 0.971234C3.83128 1.0018 3.79446 1 3.808 1V-1C3.1679 -1 2.60591 -0.70469 2.26311 -0.139801L3.97289 0.897802ZM3.808 1H12.192V-1H3.808V1ZM12.192 1C12.2055 1 12.1687 1.0018 12.1131 0.971234C12.0557 0.939731 12.0297 0.902064 12.0271 0.897802L13.7369 -0.139801C13.3941 -0.70469 12.8321 -1 12.192 -1V1ZM12.0271 0.897802C12.0272 0.897982 12.0208 0.887381 12.0143 0.866325C12.0075 0.844628 12.0025 0.817466 12.0018 0.787232C12.0003 0.722011 12.0194 0.687934 12.0145 0.697338L13.7855 1.62666C14.0839 1.0579 14.0786 0.423194 13.7369 -0.139801L12.0271 0.897802ZM12.0034 0.719193L10.5144 3.73419L12.3076 4.61981L13.7966 1.60481L12.0034 0.719193ZM10.6426 4.81695L14.1546 9.03395L15.6914 7.75405L12.1794 3.53705L10.6426 4.81695ZM14.1541 9.03334C14.429 9.36399 14.6375 9.72781 14.7826 10.1291L16.6634 9.44893C16.4392 8.82885 16.1143 8.26268 15.6919 7.75466L14.1541 9.03334ZM14.7827 10.1295C14.9281 10.5309 15 10.9404 15 11.363H17C17 10.7069 16.8872 10.0671 16.6633 9.44854L14.7827 10.1295ZM15 11.363C15 12.3918 14.6525 13.2318 13.9426 13.9422L15.3574 15.3558C16.4475 14.2649 17 12.9142 17 11.363H15ZM13.9426 13.9422C13.2324 14.6529 12.3945 15 11.37 15V17C12.9189 17 14.2676 16.4464 15.3574 15.3558L13.9426 13.9422ZM11.37 15H4.63V17H11.37V15ZM7.997 10.48C7.81871 10.48 7.69381 10.4284 7.56634 10.3001L6.14766 11.7099C6.64952 12.2149 7.28462 12.48 7.997 12.48V10.48ZM7.56634 10.3001C7.43733 10.1703 7.385 10.0425 7.385 9.862H5.385C5.385 10.5722 5.64734 11.2064 6.14766 11.7099L7.56634 10.3001ZM7.385 9.862C7.385 9.68371 7.43658 9.55881 7.56486 9.43134L6.15514 8.01266C5.65008 8.51452 5.385 9.14962 5.385 9.862H7.385ZM7.56486 9.43134C7.69438 9.30265 7.8224 9.25 8.004 9.25V7.25C7.2936 7.25 6.65895 7.51202 6.15514 8.01266L7.56486 9.43134ZM8.004 9.25C8.18267 9.25 8.3068 9.30165 8.43317 9.42936L9.85483 8.02264C9.3532 7.51568 8.71733 7.25 8.004 7.25V9.25ZM8.43317 9.42936C8.5631 9.56067 8.61573 9.68987 8.616 9.8705L10.616 9.8675C10.6149 9.1588 10.3529 8.52599 9.85483 8.02264L8.43317 9.42936ZM8.616 9.8705C8.61626 10.0458 8.56567 10.1702 8.43588 10.2989L9.84412 11.7191C10.3503 11.2171 10.6171 10.5815 10.616 9.8675L8.616 9.8705ZM8.43588 10.2989C8.30371 10.43 8.17567 10.4813 7.9985 10.481L7.9955 12.481C8.70633 12.4821 9.34029 12.2187 9.84412 11.7191L8.43588 10.2989ZM5.51 4.75H10.51V2.75H5.51V4.75ZM11.4057 4.19461L12.7707 1.44461L10.9793 0.555394L9.61427 3.30539L11.4057 4.19461ZM11.875 0H4.125V2H11.875V0ZM3.23188 1.44981L4.61688 4.19981L6.40312 3.30019L5.01812 0.55019L3.23188 1.44981ZM4.63 16H11.37V14H4.63V16ZM11.37 16C12.6462 16 13.7618 15.542 14.6561 14.6401L13.2359 13.2319C12.7235 13.7487 12.1218 14 11.37 14V16ZM14.6571 14.6391C15.5457 13.7404 16 12.6304 16 11.365H14C14 12.1062 13.7517 12.7103 13.2349 13.2329L14.6571 14.6391ZM16 11.365C16 10.8279 15.9094 10.3033 15.7296 9.79595L13.8444 10.4641C13.9486 10.7581 14 11.0568 14 11.365H16ZM15.7296 9.79595C15.5473 9.28169 15.2786 8.81331 14.9267 8.39567L13.3973 9.68433C13.5947 9.91869 13.7427 10.177 13.8444 10.4641L15.7296 9.79595ZM14.9298 8.39929L11.3498 4.10929L9.81422 5.39071L13.3942 9.68071L14.9298 8.39929ZM10.582 3.75H5.442V5.75H10.582V3.75ZM4.67494 4.10843L1.09094 8.39342L2.62506 9.67657L6.20906 5.39157L4.67494 4.10843ZM1.09544 8.38808C0.74237 8.80426 0.470941 9.27221 0.282841 9.78652L2.16116 10.4735C2.26906 10.1785 2.42163 9.9164 2.62056 9.68192L1.09544 8.38808ZM0.283024 9.78602C0.0954608 10.298 0 10.8273 0 11.369H2C2 11.0667 2.05254 10.77 2.16098 10.474L0.283024 9.78602ZM0 11.369C0 12.6364 0.460939 13.7462 1.35789 14.6431L2.77211 13.2289C2.24906 12.7058 2 12.1043 2 11.369H0ZM1.35789 14.6431C2.25424 15.5395 3.36338 16 4.63 16V14C3.89529 14 3.29443 13.7512 2.77211 13.2289L1.35789 14.6431Z" fill="currentColor" mask="url(#path-1-inside-1_934_349)"/>
</svg>
