<svg width="20" height="24" viewBox="0 0 20 24" fill="none" xmlns="http://www.w3.org/2000/svg">
<path d="M7.77778 21.1111H12.2222C12.2222 22.3333 11.2222 23.3333 10 23.3333C8.77778 23.3333 7.77778 22.3333 7.77778 21.1111ZM20 18.8889V20H0V18.8889L2.22222 16.6667V10C2.22222 6.55556 4.44444 3.55556 7.77778 2.55556V2.22222C7.77778 1 8.77778 0 10 0C11.2222 0 12.2222 1 12.2222 2.22222V2.55556C15.5556 3.55556 17.7778 6.55556 17.7778 10V16.6667L20 18.8889ZM15.5556 10C15.5556 6.88889 13.1111 4.44444 10 4.44444C6.88889 4.44444 4.44444 6.88889 4.44444 10V17.7778H15.5556V10Z" fill="#131313"/>
</svg>
