<svg width="296" height="159" viewBox="0 0 296 159" fill="none" xmlns="http://www.w3.org/2000/svg">
<rect x="0.5" y="0.5" width="295" height="158" rx="13.5" fill="white"/>
<rect x="0.5" y="0.5" width="295" height="158" rx="13.5" stroke="#D1D1D6"/>
<path d="M157.109 95.8286L130.941 126.657L105 133.771V147.661L290 148V65L263.149 81.9388L236.525 118.193L209.902 131.406L183.506 81.9388L157.109 95.8286Z" fill="url(#paint0_linear_328_2663)" stroke="#25CD25" stroke-width="0.480251" stroke-dasharray="0.96 0.96"/>
<path d="M32.964 31.974C33.3187 32.03 33.6407 32.1747 33.93 32.408C34.2287 32.6413 34.462 32.9307 34.63 33.276C34.8073 33.6213 34.896 33.99 34.896 34.382C34.896 34.8767 34.77 35.3247 34.518 35.726C34.266 36.118 33.8973 36.4307 33.412 36.664C32.936 36.888 32.3713 37 31.718 37H28.078V27.242H31.578C32.2407 27.242 32.8053 27.354 33.272 27.578C33.7387 27.7927 34.0887 28.0867 34.322 28.46C34.5553 28.8333 34.672 29.2533 34.672 29.72C34.672 30.2987 34.5133 30.7793 34.196 31.162C33.888 31.5353 33.4773 31.806 32.964 31.974ZM29.352 31.456H31.494C32.0913 31.456 32.5533 31.316 32.88 31.036C33.2067 30.756 33.37 30.3687 33.37 29.874C33.37 29.3793 33.2067 28.992 32.88 28.712C32.5533 28.432 32.082 28.292 31.466 28.292H29.352V31.456ZM31.606 35.95C32.2407 35.95 32.7353 35.8007 33.09 35.502C33.4447 35.2033 33.622 34.788 33.622 34.256C33.622 33.7147 33.4353 33.29 33.062 32.982C32.6887 32.6647 32.1893 32.506 31.564 32.506H29.352V35.95H31.606ZM43.4679 29.328V37H42.1939V35.866C41.9513 36.258 41.6106 36.566 41.1719 36.79C40.7426 37.0047 40.2666 37.112 39.7439 37.112C39.1466 37.112 38.6099 36.9907 38.1339 36.748C37.6579 36.496 37.2799 36.1227 36.9999 35.628C36.7293 35.1333 36.5939 34.5313 36.5939 33.822V29.328H37.8539V33.654C37.8539 34.41 38.0453 34.9933 38.4279 35.404C38.8106 35.8053 39.3333 36.006 39.9959 36.006C40.6773 36.006 41.2139 35.796 41.6059 35.376C41.9979 34.956 42.1939 34.3447 42.1939 33.542V29.328H43.4679ZM48.335 37.126C47.747 37.126 47.2197 37.028 46.753 36.832C46.2863 36.6267 45.9177 36.3467 45.647 35.992C45.3763 35.628 45.227 35.2127 45.199 34.746H46.515C46.5523 35.1287 46.7297 35.4413 47.047 35.684C47.3737 35.9267 47.7983 36.048 48.321 36.048C48.8063 36.048 49.189 35.9407 49.469 35.726C49.749 35.5113 49.889 35.2407 49.889 34.914C49.889 34.578 49.7397 34.3307 49.441 34.172C49.1423 34.004 48.6803 33.8407 48.055 33.682C47.4857 33.5327 47.019 33.3833 46.655 33.234C46.3003 33.0753 45.9923 32.8467 45.731 32.548C45.479 32.24 45.353 31.8387 45.353 31.344C45.353 30.952 45.4697 30.5927 45.703 30.266C45.9363 29.9393 46.2677 29.6827 46.697 29.496C47.1263 29.3 47.6163 29.202 48.167 29.202C49.0163 29.202 49.7023 29.4167 50.225 29.846C50.7477 30.2753 51.0277 30.8633 51.065 31.61H49.791C49.763 31.2087 49.5997 30.8867 49.301 30.644C49.0117 30.4013 48.6197 30.28 48.125 30.28C47.6677 30.28 47.3037 30.378 47.033 30.574C46.7623 30.77 46.627 31.0267 46.627 31.344C46.627 31.596 46.7063 31.806 46.865 31.974C47.033 32.1327 47.2383 32.2633 47.481 32.366C47.733 32.4593 48.0783 32.5667 48.517 32.688C49.0677 32.8373 49.5157 32.9867 49.861 33.136C50.2063 33.276 50.5003 33.4907 50.743 33.78C50.995 34.0693 51.1257 34.4473 51.135 34.914C51.135 35.334 51.0183 35.712 50.785 36.048C50.5517 36.384 50.2203 36.65 49.791 36.846C49.371 37.0327 48.8857 37.126 48.335 37.126ZM53.5915 28.082C53.3488 28.082 53.1435 27.998 52.9755 27.83C52.8075 27.662 52.7235 27.4567 52.7235 27.214C52.7235 26.9713 52.8075 26.766 52.9755 26.598C53.1435 26.43 53.3488 26.346 53.5915 26.346C53.8248 26.346 54.0208 26.43 54.1795 26.598C54.3475 26.766 54.4315 26.9713 54.4315 27.214C54.4315 27.4567 54.3475 27.662 54.1795 27.83C54.0208 27.998 53.8248 28.082 53.5915 28.082ZM54.2075 29.328V37H52.9335V29.328H54.2075ZM60.1168 29.188C61.0501 29.188 61.8061 29.4727 62.3848 30.042C62.9634 30.602 63.2528 31.414 63.2528 32.478V37H61.9928V32.66C61.9928 31.8947 61.8014 31.3113 61.4188 30.91C61.0361 30.4993 60.5134 30.294 59.8508 30.294C59.1788 30.294 58.6421 30.504 58.2408 30.924C57.8488 31.344 57.6528 31.9553 57.6528 32.758V37H56.3788V29.328H57.6528V30.42C57.9048 30.028 58.2454 29.7247 58.6748 29.51C59.1134 29.2953 59.5941 29.188 60.1168 29.188ZM72.3339 32.87C72.3339 33.1127 72.3199 33.3693 72.2919 33.64H66.1599C66.2065 34.396 66.4632 34.9887 66.9299 35.418C67.4059 35.838 67.9799 36.048 68.6519 36.048C69.2025 36.048 69.6599 35.922 70.0239 35.67C70.3972 35.4087 70.6585 35.0633 70.8079 34.634H72.1799C71.9745 35.3713 71.5639 35.9733 70.9479 36.44C70.3319 36.8973 69.5665 37.126 68.6519 37.126C67.9239 37.126 67.2705 36.9627 66.6919 36.636C66.1225 36.3093 65.6745 35.8473 65.3479 35.25C65.0212 34.6433 64.8579 33.9433 64.8579 33.15C64.8579 32.3567 65.0165 31.6613 65.3339 31.064C65.6512 30.4667 66.0945 30.0093 66.6639 29.692C67.2425 29.3653 67.9052 29.202 68.6519 29.202C69.3799 29.202 70.0239 29.3607 70.5839 29.678C71.1439 29.9953 71.5732 30.434 71.8719 30.994C72.1799 31.5447 72.3339 32.17 72.3339 32.87ZM71.0179 32.604C71.0179 32.1187 70.9105 31.7033 70.6959 31.358C70.4812 31.0033 70.1872 30.7373 69.8139 30.56C69.4499 30.3733 69.0439 30.28 68.5959 30.28C67.9519 30.28 67.4012 30.4853 66.9439 30.896C66.4959 31.3067 66.2392 31.876 66.1739 32.604H71.0179ZM76.7315 37.126C76.1435 37.126 75.6162 37.028 75.1495 36.832C74.6828 36.6267 74.3142 36.3467 74.0435 35.992C73.7728 35.628 73.6235 35.2127 73.5955 34.746H74.9115C74.9488 35.1287 75.1262 35.4413 75.4435 35.684C75.7702 35.9267 76.1948 36.048 76.7175 36.048C77.2028 36.048 77.5855 35.9407 77.8655 35.726C78.1455 35.5113 78.2855 35.2407 78.2855 34.914C78.2855 34.578 78.1362 34.3307 77.8375 34.172C77.5388 34.004 77.0768 33.8407 76.4515 33.682C75.8822 33.5327 75.4155 33.3833 75.0515 33.234C74.6968 33.0753 74.3888 32.8467 74.1275 32.548C73.8755 32.24 73.7495 31.8387 73.7495 31.344C73.7495 30.952 73.8662 30.5927 74.0995 30.266C74.3328 29.9393 74.6642 29.6827 75.0935 29.496C75.5228 29.3 76.0128 29.202 76.5635 29.202C77.4128 29.202 78.0988 29.4167 78.6215 29.846C79.1442 30.2753 79.4242 30.8633 79.4615 31.61H78.1875C78.1595 31.2087 77.9962 30.8867 77.6975 30.644C77.4082 30.4013 77.0162 30.28 76.5215 30.28C76.0642 30.28 75.7002 30.378 75.4295 30.574C75.1588 30.77 75.0235 31.0267 75.0235 31.344C75.0235 31.596 75.1028 31.806 75.2615 31.974C75.4295 32.1327 75.6348 32.2633 75.8775 32.366C76.1295 32.4593 76.4748 32.5667 76.9135 32.688C77.4642 32.8373 77.9122 32.9867 78.2575 33.136C78.6028 33.276 78.8968 33.4907 79.1395 33.78C79.3915 34.0693 79.5222 34.4473 79.5315 34.914C79.5315 35.334 79.4148 35.712 79.1815 36.048C78.9482 36.384 78.6168 36.65 78.1875 36.846C77.7675 37.0327 77.2822 37.126 76.7315 37.126ZM84.046 37.126C83.458 37.126 82.9306 37.028 82.464 36.832C81.9973 36.6267 81.6286 36.3467 81.358 35.992C81.0873 35.628 80.938 35.2127 80.91 34.746H82.226C82.2633 35.1287 82.4406 35.4413 82.758 35.684C83.0846 35.9267 83.5093 36.048 84.032 36.048C84.5173 36.048 84.9 35.9407 85.18 35.726C85.46 35.5113 85.6 35.2407 85.6 34.914C85.6 34.578 85.4506 34.3307 85.152 34.172C84.8533 34.004 84.3913 33.8407 83.766 33.682C83.1966 33.5327 82.73 33.3833 82.366 33.234C82.0113 33.0753 81.7033 32.8467 81.442 32.548C81.19 32.24 81.064 31.8387 81.064 31.344C81.064 30.952 81.1806 30.5927 81.414 30.266C81.6473 29.9393 81.9786 29.6827 82.408 29.496C82.8373 29.3 83.3273 29.202 83.878 29.202C84.7273 29.202 85.4133 29.4167 85.936 29.846C86.4586 30.2753 86.7386 30.8633 86.776 31.61H85.502C85.474 31.2087 85.3106 30.8867 85.012 30.644C84.7226 30.4013 84.3306 30.28 83.836 30.28C83.3786 30.28 83.0146 30.378 82.744 30.574C82.4733 30.77 82.338 31.0267 82.338 31.344C82.338 31.596 82.4173 31.806 82.576 31.974C82.744 32.1327 82.9493 32.2633 83.192 32.366C83.444 32.4593 83.7893 32.5667 84.228 32.688C84.7786 32.8373 85.2266 32.9867 85.572 33.136C85.9173 33.276 86.2113 33.4907 86.454 33.78C86.706 34.0693 86.8366 34.4473 86.846 34.914C86.846 35.334 86.7293 35.712 86.496 36.048C86.2626 36.384 85.9313 36.65 85.502 36.846C85.082 37.0327 84.5966 37.126 84.046 37.126ZM95.4708 37.098C94.8268 37.098 94.2482 36.986 93.7348 36.762C93.2308 36.5287 92.8342 36.2113 92.5448 35.81C92.2555 35.3993 92.1062 34.928 92.0968 34.396H93.4548C93.5015 34.8533 93.6882 35.2407 94.0148 35.558C94.3508 35.866 94.8362 36.02 95.4708 36.02C96.0775 36.02 96.5535 35.8707 96.8988 35.572C97.2535 35.264 97.4308 34.872 97.4308 34.396C97.4308 34.0227 97.3282 33.7193 97.1228 33.486C96.9175 33.2527 96.6608 33.0753 96.3528 32.954C96.0448 32.8327 95.6295 32.702 95.1068 32.562C94.4628 32.394 93.9448 32.226 93.5528 32.058C93.1702 31.89 92.8388 31.6287 92.5588 31.274C92.2882 30.91 92.1528 30.4247 92.1528 29.818C92.1528 29.286 92.2882 28.8147 92.5588 28.404C92.8295 27.9933 93.2075 27.676 93.6928 27.452C94.1875 27.228 94.7522 27.116 95.3868 27.116C96.3015 27.116 97.0482 27.3447 97.6268 27.802C98.2148 28.2593 98.5462 28.866 98.6208 29.622H97.2208C97.1742 29.2487 96.9782 28.922 96.6328 28.642C96.2875 28.3527 95.8302 28.208 95.2608 28.208C94.7288 28.208 94.2948 28.348 93.9588 28.628C93.6228 28.8987 93.4548 29.2813 93.4548 29.776C93.4548 30.1307 93.5528 30.42 93.7488 30.644C93.9542 30.868 94.2015 31.0407 94.4908 31.162C94.7895 31.274 95.2048 31.4047 95.7368 31.554C96.3808 31.7313 96.8988 31.9087 97.2908 32.086C97.6828 32.254 98.0188 32.52 98.2988 32.884C98.5788 33.2387 98.7188 33.724 98.7188 34.34C98.7188 34.816 98.5928 35.264 98.3408 35.684C98.0888 36.104 97.7155 36.4447 97.2208 36.706C96.7262 36.9673 96.1428 37.098 95.4708 37.098ZM107.398 29.328V37H106.124V35.866C105.881 36.258 105.54 36.566 105.102 36.79C104.672 37.0047 104.196 37.112 103.674 37.112C103.076 37.112 102.54 36.9907 102.064 36.748C101.588 36.496 101.21 36.1227 100.93 35.628C100.659 35.1333 100.524 34.5313 100.524 33.822V29.328H101.784V33.654C101.784 34.41 101.975 34.9933 102.358 35.404C102.74 35.8053 103.263 36.006 103.926 36.006C104.607 36.006 105.144 35.796 105.536 35.376C105.928 34.956 106.124 34.3447 106.124 33.542V29.328H107.398ZM109.073 33.15C109.073 32.3567 109.231 31.666 109.549 31.078C109.866 30.4807 110.305 30.0187 110.865 29.692C111.434 29.3653 112.083 29.202 112.811 29.202C113.753 29.202 114.528 29.4307 115.135 29.888C115.751 30.3453 116.157 30.98 116.353 31.792H114.981C114.85 31.3253 114.593 30.9567 114.211 30.686C113.837 30.4153 113.371 30.28 112.811 30.28C112.083 30.28 111.495 30.532 111.047 31.036C110.599 31.5307 110.375 32.2353 110.375 33.15C110.375 34.074 110.599 34.788 111.047 35.292C111.495 35.796 112.083 36.048 112.811 36.048C113.371 36.048 113.837 35.9173 114.211 35.656C114.584 35.3947 114.841 35.0213 114.981 34.536H116.353C116.147 35.32 115.737 35.95 115.121 36.426C114.505 36.8927 113.735 37.126 112.811 37.126C112.083 37.126 111.434 36.9627 110.865 36.636C110.305 36.3093 109.866 35.8473 109.549 35.25C109.231 34.6527 109.073 33.9527 109.073 33.15ZM117.577 33.15C117.577 32.3567 117.735 31.666 118.053 31.078C118.37 30.4807 118.809 30.0187 119.369 29.692C119.938 29.3653 120.587 29.202 121.315 29.202C122.257 29.202 123.032 29.4307 123.639 29.888C124.255 30.3453 124.661 30.98 124.857 31.792H123.485C123.354 31.3253 123.097 30.9567 122.715 30.686C122.341 30.4153 121.875 30.28 121.315 30.28C120.587 30.28 119.999 30.532 119.551 31.036C119.103 31.5307 118.879 32.2353 118.879 33.15C118.879 34.074 119.103 34.788 119.551 35.292C119.999 35.796 120.587 36.048 121.315 36.048C121.875 36.048 122.341 35.9173 122.715 35.656C123.088 35.3947 123.345 35.0213 123.485 34.536H124.857C124.651 35.32 124.241 35.95 123.625 36.426C123.009 36.8927 122.239 37.126 121.315 37.126C120.587 37.126 119.938 36.9627 119.369 36.636C118.809 36.3093 118.37 35.8473 118.053 35.25C117.735 34.6527 117.577 33.9527 117.577 33.15ZM133.557 32.87C133.557 33.1127 133.543 33.3693 133.515 33.64H127.383C127.429 34.396 127.686 34.9887 128.153 35.418C128.629 35.838 129.203 36.048 129.875 36.048C130.425 36.048 130.883 35.922 131.247 35.67C131.62 35.4087 131.881 35.0633 132.031 34.634H133.403C133.197 35.3713 132.787 35.9733 132.171 36.44C131.555 36.8973 130.789 37.126 129.875 37.126C129.147 37.126 128.493 36.9627 127.915 36.636C127.345 36.3093 126.897 35.8473 126.571 35.25C126.244 34.6433 126.081 33.9433 126.081 33.15C126.081 32.3567 126.239 31.6613 126.557 31.064C126.874 30.4667 127.317 30.0093 127.887 29.692C128.465 29.3653 129.128 29.202 129.875 29.202C130.603 29.202 131.247 29.3607 131.807 29.678C132.367 29.9953 132.796 30.434 133.095 30.994C133.403 31.5447 133.557 32.17 133.557 32.87ZM132.241 32.604C132.241 32.1187 132.133 31.7033 131.919 31.358C131.704 31.0033 131.41 30.7373 131.037 30.56C130.673 30.3733 130.267 30.28 129.819 30.28C129.175 30.28 128.624 30.4853 128.167 30.896C127.719 31.3067 127.462 31.876 127.397 32.604H132.241ZM137.954 37.126C137.366 37.126 136.839 37.028 136.372 36.832C135.905 36.6267 135.537 36.3467 135.266 35.992C134.995 35.628 134.846 35.2127 134.818 34.746H136.134C136.171 35.1287 136.349 35.4413 136.666 35.684C136.993 35.9267 137.417 36.048 137.94 36.048C138.425 36.048 138.808 35.9407 139.088 35.726C139.368 35.5113 139.508 35.2407 139.508 34.914C139.508 34.578 139.359 34.3307 139.06 34.172C138.761 34.004 138.299 33.8407 137.674 33.682C137.105 33.5327 136.638 33.3833 136.274 33.234C135.919 33.0753 135.611 32.8467 135.35 32.548C135.098 32.24 134.972 31.8387 134.972 31.344C134.972 30.952 135.089 30.5927 135.322 30.266C135.555 29.9393 135.887 29.6827 136.316 29.496C136.745 29.3 137.235 29.202 137.786 29.202C138.635 29.202 139.321 29.4167 139.844 29.846C140.367 30.2753 140.647 30.8633 140.684 31.61H139.41C139.382 31.2087 139.219 30.8867 138.92 30.644C138.631 30.4013 138.239 30.28 137.744 30.28C137.287 30.28 136.923 30.378 136.652 30.574C136.381 30.77 136.246 31.0267 136.246 31.344C136.246 31.596 136.325 31.806 136.484 31.974C136.652 32.1327 136.857 32.2633 137.1 32.366C137.352 32.4593 137.697 32.5667 138.136 32.688C138.687 32.8373 139.135 32.9867 139.48 33.136C139.825 33.276 140.119 33.4907 140.362 33.78C140.614 34.0693 140.745 34.4473 140.754 34.914C140.754 35.334 140.637 35.712 140.404 36.048C140.171 36.384 139.839 36.65 139.41 36.846C138.99 37.0327 138.505 37.126 137.954 37.126ZM145.269 37.126C144.681 37.126 144.153 37.028 143.687 36.832C143.22 36.6267 142.851 36.3467 142.581 35.992C142.31 35.628 142.161 35.2127 142.133 34.746H143.449C143.486 35.1287 143.663 35.4413 143.981 35.684C144.307 35.9267 144.732 36.048 145.255 36.048C145.74 36.048 146.123 35.9407 146.403 35.726C146.683 35.5113 146.823 35.2407 146.823 34.914C146.823 34.578 146.673 34.3307 146.375 34.172C146.076 34.004 145.614 33.8407 144.989 33.682C144.419 33.5327 143.953 33.3833 143.589 33.234C143.234 33.0753 142.926 32.8467 142.665 32.548C142.413 32.24 142.287 31.8387 142.287 31.344C142.287 30.952 142.403 30.5927 142.637 30.266C142.87 29.9393 143.201 29.6827 143.631 29.496C144.06 29.3 144.55 29.202 145.101 29.202C145.95 29.202 146.636 29.4167 147.159 29.846C147.681 30.2753 147.961 30.8633 147.999 31.61H146.725C146.697 31.2087 146.533 30.8867 146.235 30.644C145.945 30.4013 145.553 30.28 145.059 30.28C144.601 30.28 144.237 30.378 143.967 30.574C143.696 30.77 143.561 31.0267 143.561 31.344C143.561 31.596 143.64 31.806 143.799 31.974C143.967 32.1327 144.172 32.2633 144.415 32.366C144.667 32.4593 145.012 32.5667 145.451 32.688C146.001 32.8373 146.449 32.9867 146.795 33.136C147.14 33.276 147.434 33.4907 147.677 33.78C147.929 34.0693 148.059 34.4473 148.069 34.914C148.069 35.334 147.952 35.712 147.719 36.048C147.485 36.384 147.154 36.65 146.725 36.846C146.305 37.0327 145.819 37.126 145.269 37.126Z" fill="black"/>
<defs>
<linearGradient id="paint0_linear_328_2663" x1="197.5" y1="65" x2="197.5" y2="147.661" gradientUnits="userSpaceOnUse">
<stop stop-color="#25CD25" stop-opacity="0.4"/>
<stop offset="1" stop-color="#25CD25" stop-opacity="0"/>
</linearGradient>
</defs>
</svg>
