<svg width="28" height="30" viewBox="0 0 28 30" fill="none" xmlns="http://www.w3.org/2000/svg">
<path fill-rule="evenodd" clip-rule="evenodd" d="M14.0001 2.66675C13.2044 2.66675 12.4413 2.98282 11.8787 3.54543C11.3161 4.10804 11.0001 4.8711 11.0001 5.66675V6.01341C11.7427 6.00008 12.5574 6.00008 13.4534 6.00008H14.5481C15.4414 6.00008 16.2574 6.00008 17.0014 6.01341V5.66675C17.0014 5.27267 16.9237 4.88245 16.7729 4.51839C16.6221 4.15433 16.401 3.82355 16.1222 3.54496C15.8435 3.26636 15.5126 3.04541 15.1485 2.89473C14.7844 2.74404 14.3941 2.66657 14.0001 2.66675ZM19.0001 6.10408V5.66675C19.0001 4.34067 18.4733 3.0689 17.5356 2.13121C16.5979 1.19353 15.3261 0.666748 14.0001 0.666748C12.674 0.666748 11.4022 1.19353 10.4645 2.13121C9.52684 3.0689 9.00005 4.34067 9.00005 5.66675V6.10408C8.80983 6.12008 8.62583 6.13919 8.44805 6.16141C7.10139 6.32808 5.99205 6.67741 5.04805 7.46008C4.10405 8.24275 3.55739 9.26941 3.14672 10.5627C2.74672 11.8161 2.44539 13.4254 2.06672 15.4507L2.03872 15.5974C1.50272 18.4547 1.08139 20.7067 1.00272 22.4814C0.922721 24.3014 1.19472 25.8081 2.22139 27.0441C3.24805 28.2814 4.67872 28.8254 6.48139 29.0827C8.24139 29.3334 10.5307 29.3334 13.4387 29.3334H14.5654C17.4721 29.3334 19.7627 29.3334 21.5214 29.0827C23.3241 28.8254 24.7561 28.2814 25.7827 27.0441C26.8094 25.8067 27.0787 24.3014 27.0001 22.4814C26.9227 20.7067 26.5001 18.4547 25.9641 15.5974L25.9374 15.4507C25.5574 13.4254 25.2547 11.8147 24.8574 10.5627C24.4441 9.26941 23.8974 8.24275 22.9534 7.46008C22.0107 6.67741 20.9001 6.32675 19.5534 6.16141C19.3698 6.13882 19.1857 6.11971 19.0014 6.10408M8.69339 8.14675C7.55339 8.28675 6.86405 8.55208 6.32539 9.00008C5.78805 9.44541 5.40005 10.0734 5.05072 11.1694C4.69472 12.2894 4.41339 13.7801 4.01872 15.8854C3.46405 18.8414 3.07072 20.9521 3.00005 22.5694C2.93072 24.1561 3.18672 25.0761 3.75872 25.7681C4.33205 26.4574 5.18939 26.8774 6.76272 27.1014C8.36272 27.3307 10.5121 27.3334 13.5201 27.3334H14.4801C17.4894 27.3334 19.6361 27.3307 21.2374 27.1027C22.8107 26.8774 23.6681 26.4574 24.2414 25.7681C24.8147 25.0774 25.0694 24.1574 25.0014 22.5681C24.9294 20.9534 24.5361 18.8414 23.9814 15.8854C23.5867 13.7787 23.3067 12.2907 22.9494 11.1694C22.6001 10.0734 22.2134 9.44541 21.6747 8.99875C21.1361 8.55208 20.4481 8.28675 19.3067 8.14541C18.1387 8.00141 16.6227 8.00008 14.4801 8.00008H13.5201C11.3774 8.00008 9.86139 8.00141 8.69339 8.14675ZM17.3307 14.9201C17.5288 15.0961 17.6488 15.3435 17.6646 15.608C17.6803 15.8725 17.5905 16.1325 17.4147 16.3307L13.8587 20.3307C13.7712 20.4293 13.6651 20.5096 13.5464 20.567C13.4278 20.6244 13.299 20.6578 13.1674 20.6652C13.0358 20.6726 12.904 20.654 12.7796 20.6103C12.6553 20.5666 12.5408 20.4988 12.4427 20.4107L10.6641 18.8107C10.4667 18.6332 10.348 18.3846 10.334 18.1195C10.32 17.8545 10.4119 17.5947 10.5894 17.3974C10.7669 17.2001 11.0155 17.0814 11.2806 17.0674C11.5456 17.0534 11.8054 17.1452 12.0027 17.3227L13.0321 18.2507L15.9201 15.0027C16.0961 14.8047 16.3435 14.6846 16.608 14.6689C16.8725 14.6531 17.1324 14.7443 17.3307 14.9201Z" fill="#80BE41"/>
</svg>
