<svg width="30" height="30" viewBox="0 0 30 30" fill="none" xmlns="http://www.w3.org/2000/svg">
<mask id="mask0_16_118" style="mask-type:luminance" maskUnits="userSpaceOnUse" x="0" y="0" width="30" height="30">
<path d="M15 28.3333C16.7512 28.3355 18.4857 27.9916 20.1036 27.3214C21.7216 26.6512 23.1912 25.6679 24.428 24.428C25.6679 23.1912 26.6512 21.7216 27.3214 20.1036C27.9916 18.4857 28.3355 16.7512 28.3333 15C28.3355 13.2487 27.9916 11.5143 27.3214 9.8963C26.6512 8.27834 25.6679 6.80875 24.428 5.57197C23.1912 4.33208 21.7216 3.34878 20.1036 2.67858C18.4857 2.00838 16.7512 1.66448 15 1.66664C13.2487 1.66448 11.5143 2.00838 9.8963 2.67858C8.27834 3.34878 6.80875 4.33208 5.57197 5.57197C4.33208 6.80875 3.34878 8.27834 2.67858 9.8963C2.00838 11.5143 1.66448 13.2487 1.66664 15C1.66448 16.7512 2.00838 18.4857 2.67858 20.1036C3.34878 21.7216 4.33208 23.1912 5.57197 24.428C6.80875 25.6679 8.27834 26.6512 9.8963 27.3214C11.5143 27.9916 13.2487 28.3355 15 28.3333Z" fill="white" stroke="white" stroke-width="2" stroke-linejoin="round"/>
<path d="M9.66663 15L13.6666 19L21.6666 11" stroke="black" stroke-width="2" stroke-linecap="round" stroke-linejoin="round"/>
</mask>
<g mask="url(#mask0_16_118)">
<path d="M-1 -1H31V31H-1V-1Z" fill="#80BE41"/>
</g>
</svg>
