<svg width="7" height="6" viewBox="0 0 7 6" fill="none" xmlns="http://www.w3.org/2000/svg">
<path d="M5.22737 0.727368C5.33302 0.626785 5.47362 0.571178 5.61949 0.572282C5.76536 0.573385 5.90509 0.631113 6.00921 0.733284C6.11333 0.835454 6.17368 0.974076 6.17754 1.1199C6.18139 1.26572 6.12845 1.40734 6.02987 1.51487L3.03737 5.25737C2.98592 5.31279 2.92381 5.35727 2.85477 5.38814C2.78573 5.41902 2.71118 5.43565 2.63556 5.43705C2.55995 5.43845 2.48483 5.42459 2.41469 5.39629C2.34456 5.368 2.28085 5.32585 2.22737 5.27237L0.242874 3.28787C0.187609 3.23637 0.143282 3.17427 0.112538 3.10527C0.0817944 3.03627 0.0652629 2.96179 0.0639303 2.88626C0.0625977 2.81073 0.0764914 2.73571 0.104782 2.66567C0.133073 2.59563 0.175181 2.532 0.228595 2.47859C0.282009 2.42517 0.345635 2.38307 0.415676 2.35478C0.485717 2.32649 0.560739 2.31259 0.636266 2.31392C0.711793 2.31526 0.786278 2.33179 0.855278 2.36253C0.924277 2.39328 0.986377 2.4376 1.03787 2.49287L2.60837 4.06262L5.21312 0.743868C5.21781 0.738094 5.22282 0.732585 5.22812 0.727368H5.22737Z" fill="currentColor"/>
</svg>
