<svg width="139" height="139" viewBox="0 0 139 139" fill="none" xmlns="http://www.w3.org/2000/svg">
<g clip-path="url(#clip0_823_1530)">
<mask id="mask0_823_1530" style="mask-type:luminance" maskUnits="userSpaceOnUse" x="0" y="0" width="139" height="139">
<path d="M138.504 0H0V138.504H138.504V0Z" fill="white"/>
</mask>
<g mask="url(#mask0_823_1530)">
<g opacity="0.1">
<path d="M69.9446 16.9668C97.1765 16.9668 119.287 39.077 119.287 66.3089C119.287 93.5409 97.1765 115.651 69.9446 115.651C42.7126 115.651 20.6024 93.5409 20.6024 66.3089C20.6024 39.077 42.7126 16.9668 69.9446 16.9668Z" fill="#50E3C2"/>
</g>
<g opacity="0.2">
<path d="M69.9447 19.7363C95.6478 19.7363 116.517 40.6052 116.517 66.3083C116.517 92.0113 95.6478 112.88 69.9447 112.88C44.2417 112.88 23.3728 92.0113 23.3728 66.3083C23.3728 40.6052 44.2417 19.7363 69.9447 19.7363Z" fill="#50E3C2"/>
</g>
<path d="M69.9445 23.5459C93.5455 23.5459 112.708 42.7081 112.708 66.309C112.708 89.91 93.5455 109.072 69.9445 109.072C46.3436 109.072 27.1814 89.91 27.1814 66.309C27.1814 42.7081 46.3436 23.5459 69.9445 23.5459Z" fill="#50E3C2"/>
<path d="M92.9199 49.4939L93.3 42.4878L51.5502 42.2562L51.5517 97.0269L92.9212 97.0257L92.9199 49.4939Z" fill="#CECECE"/>
<path d="M86.7186 41.6934L52.1547 41.8277L51.1214 41.8277L50.0879 41.8278L50.0879 42.8612L50.0879 43.8946L50.0894 96.5984L50.0894 97.6317L50.0895 98.6652L51.1229 98.6652L52.1563 98.6652L92.4592 98.6641L93.4927 98.664L94.526 98.664L94.526 97.6306L94.526 96.5972L94.7313 41.809L86.7186 41.6934ZM92.4591 96.5972L52.1562 96.5983L52.1548 43.8945L92.4576 43.9282L92.4591 96.5972Z" fill="#A8A8A8"/>
<path d="M86.2178 62.2676L58.1827 62.2684L58.1824 53.2316L86.2176 53.2309L86.2178 62.2676Z" fill="#A8A8A8"/>
<path d="M87.2852 68.3864L57.3288 68.3871L57.3288 66.2525L87.2851 66.2517L87.2852 68.3864Z" fill="#A8A8A8"/>
<path d="M87.2853 72.5221L57.329 72.5229L57.3289 70.3883L87.2852 70.3875L87.2853 72.5221Z" fill="#A8A8A8"/>
<path d="M87.2854 76.6588L57.3291 76.6596L57.329 74.525L87.2854 74.5242L87.2854 76.6588Z" fill="#A8A8A8"/>
<path d="M87.2855 80.7848L57.3291 80.7856L57.3291 78.651L87.2854 78.6502L87.2855 80.7848Z" fill="#A8A8A8"/>
<path d="M86.5182 50.2952L86.7141 44.753L52.4739 44.3031L52.4289 89.3835L86.4791 89.4175L86.5182 50.2952Z" fill="#E4E4E4"/>
<path d="M80.8845 43.9788L52.9721 43.9509L52.1215 43.95L51.2709 43.9492L51.2701 44.7998L51.2692 45.6503L51.2258 89.0296L51.225 89.8801L51.2241 90.7307L52.0748 90.7316L52.9253 90.7325L86.0976 90.7656L86.9483 90.7665L87.7988 90.7673L87.7997 89.9168L87.8005 89.0661L87.8455 44.1121L80.8845 43.9788ZM86.0993 89.0644L52.927 89.0313L52.9704 45.652L80.5625 45.6796L86.1426 45.7769L86.0993 89.0644Z" fill="#C1C1C1"/>
<path d="M80.9911 60.8032L57.916 60.7802L57.9234 53.3423L80.9985 53.3653L80.9911 60.8032Z" fill="#C1C1C1"/>
<path d="M81.8645 65.8414L57.2082 65.8167L57.2099 64.0597L81.8663 64.0844L81.8645 65.8414Z" fill="#C1C1C1"/>
<path d="M81.861 69.2457L57.2047 69.221L57.2064 67.464L81.8628 67.4887L81.861 69.2457Z" fill="#C1C1C1"/>
<path d="M81.8577 72.65L57.2014 72.6253L57.2031 70.8683L81.8595 70.893L81.8577 72.65Z" fill="#C1C1C1"/>
<path d="M81.8543 76.0465L57.1979 76.0218L57.1997 74.2648L81.8561 74.2895L81.8543 76.0465Z" fill="#C1C1C1"/>
<mask id="mask1_823_1530" style="mask-type:luminance" maskUnits="userSpaceOnUse" x="-9" y="-27" width="105" height="105">
<path d="M10.9666 77.9551L-8.7021 -6.34593L75.5989 -26.0146L95.2676 58.2864L10.9666 77.9551Z" fill="white"/>
</mask>
<g mask="url(#mask1_823_1530)">
<path d="M28.4258 19.053C28.3125 18.5676 28.6147 18.0815 29.1001 17.9682C29.5856 17.855 30.0717 18.1571 30.1849 18.6426C30.2982 19.128 29.996 19.6141 29.5106 19.7274C29.0251 19.8407 28.539 19.5385 28.4258 19.053Z" fill="#DD95C1"/>
<path d="M33.2835 31.9147C32.5244 32.1236 31.7499 32.4019 30.9771 32.7676" stroke="#2BB3CE" stroke-width="1.17729" stroke-linecap="round"/>
<path d="M36.9282 23.8462C36.7587 23.7255 36.5898 23.6051 36.4224 23.4856" stroke="#E46BB5" stroke-width="1.17729" stroke-linecap="round"/>
<path d="M37.0768 17.6268C36.2681 16.6136 35.5028 15.6585 34.9416 14.9658" stroke="#FFBF41" stroke-width="1.17729" stroke-linecap="round"/>
<path d="M43.412 18.7471C43.1511 17.4185 43.0137 15.9062 43.1953 14.3715" stroke="#FFBF41" stroke-width="1.17729" stroke-linecap="round"/>
<path d="M25.758 38.8337L26.2775 39.7601L27.3281 39.9159L26.6076 40.6963L26.7841 41.7436L25.8193 41.2995L24.8777 41.791L25.002 40.7362L24.2436 39.9926L25.2852 39.7848L25.758 38.8337Z" fill="#FFDB43"/>
<path d="M46.3232 10.6532C46.5269 10.5781 46.7355 10.532 46.9453 10.5209" stroke="#2BB3CE" stroke-width="0.882964" stroke-linecap="round"/>
</g>
<path d="M92.7302 43.571L86.2976 35.2051L44.6006 35.5019L45.0536 99.1432L93.1234 98.801L92.7302 43.571Z" fill="#30947E"/>
<path d="M93.261 42.6989L86.8283 34.333L45.1313 34.6298L45.5843 98.2711L93.6541 97.929L93.261 42.6989Z" fill="#E6EEF4"/>
<path d="M94.7684 41.9316L87.8339 35.0871L86.5904 33.8369L86.0699 33.8407L85.235 33.8466L45.8303 34.1271L44.6295 34.1356L43.4286 34.1441L43.4372 35.345L43.4458 36.5458L43.8817 97.7855L43.8902 98.9862L43.8987 100.187L45.0996 100.179L46.3004 100.17L93.1307 99.8367L94.3316 99.8281L95.5324 99.8196L95.5238 98.6188L95.5152 97.418L95.1263 42.778L95.1228 42.2863L94.7684 41.9316ZM93.1137 97.435L46.2832 97.7684L45.8474 36.5287L84.8 36.2514L92.7365 44.4525L93.1137 97.435Z" fill="#AEC0CE"/>
<path d="M85.5784 57.596L53.0026 57.8279L52.9279 47.3276L85.5036 47.0957L85.5784 57.596Z" fill="#AAC1CE"/>
<path d="M86.8693 64.6981L52.0612 64.9459L52.0436 62.4655L86.8517 62.2178L86.8693 64.6981Z" fill="#AAC1CE"/>
<path d="M86.9033 69.5048L52.0952 69.7526L52.0775 67.2722L86.8856 67.0244L86.9033 69.5048Z" fill="#AAC1CE"/>
<path d="M86.9377 74.3104L52.1296 74.5582L52.1119 72.0778L86.92 71.8301L86.9377 74.3104Z" fill="#AAC1CE"/>
<path d="M86.9719 79.1054L52.1638 79.3532L52.1461 76.8728L86.9542 76.625L86.9719 79.1054Z" fill="#AAC1CE"/>
<path d="M93.2743 44.5869L84.8188 36.251L84.8786 44.6467L93.2743 44.5869Z" fill="#AEC0CE"/>
<mask id="mask2_823_1530" style="mask-type:luminance" maskUnits="userSpaceOnUse" x="-200" y="-106" width="578" height="578">
<path d="M377.863 -105.49H-199.238V471.61H377.863V-105.49Z" fill="white"/>
<path d="M12.4096 73.9513L10.6061 36.4969L22.5889 36.0791L35.0292 36.4969L33.0453 76.2959L12.4096 73.9513Z" fill="black"/>
</mask>
<g mask="url(#mask2_823_1530)">
<g opacity="0.23">
<path d="M58.6904 30.2722L56.6472 30.2956L56.7541 41.4184C56.7644 42.3141 56.4243 43.1612 55.7963 43.8038C55.1684 44.4463 54.3292 44.8058 53.4334 44.8161C52.5393 44.8269 51.6906 44.4863 51.048 43.8584C50.4055 43.2304 50.046 42.3913 50.0357 41.4956L49.8955 29.3138C49.8835 28.2667 50.7256 27.405 51.7728 27.393C51.7802 27.3928 51.7875 27.3928 51.7949 27.3928C52.8319 27.3928 53.6817 28.2304 53.6936 29.2701L53.8229 40.5158C53.8243 40.6327 53.7798 40.7433 53.6977 40.8273C53.6156 40.9113 53.506 40.9583 53.389 40.9596C53.2724 40.9626 53.1615 40.9165 53.0776 40.8345C52.9936 40.7524 52.9467 40.6428 52.9454 40.5258L52.8267 30.2058L50.7836 30.2293L50.9022 40.5493C50.9099 41.2114 51.1754 41.8314 51.65 42.2953C52.1246 42.7592 52.7487 43.0082 53.4125 43.0029C54.0745 42.9952 54.6946 42.7296 55.1585 42.2549C55.6224 41.7803 55.8736 41.1543 55.866 40.4922L55.7367 29.2466C55.7117 27.073 53.9228 25.3282 51.7492 25.3498C49.5755 25.3748 47.8275 27.1636 47.8524 29.3373L47.9925 41.5191C48.0265 44.477 50.4434 46.8598 53.3938 46.8596C53.4147 46.8596 53.4359 46.8595 53.4569 46.8593C56.4358 46.825 58.8315 44.3736 58.7973 41.3949L58.6904 30.2722Z" fill="#424242"/>
</g>
</g>
<mask id="mask3_823_1530" style="mask-type:luminance" maskUnits="userSpaceOnUse" x="-198" y="-108" width="579" height="578">
<path d="M380.049 -107.654H-197.051V469.446H380.049V-107.654Z" fill="white"/>
<path d="M10.7865 73.0503L10.6061 34.0223L22.5889 33.585L35.0292 34.0223L33.5863 74.1324L10.7865 73.0503Z" fill="black"/>
</mask>
<g mask="url(#mask3_823_1530)">
<path d="M58.1656 30.7907L56.1224 30.8142L56.2293 41.9369C56.2397 42.8327 55.8995 43.6798 55.2715 44.3223C54.6436 44.9649 53.8045 45.3244 52.9086 45.3347C52.0145 45.3455 51.1658 45.0048 50.5232 44.3769C49.8807 43.749 49.5212 42.9099 49.5109 42.0141L49.3707 29.8324C49.3587 28.7853 50.2008 27.9236 51.248 27.9115C51.2554 27.9114 51.2627 27.9114 51.2701 27.9114C52.3072 27.9114 53.1569 28.749 53.1688 29.7887L53.2981 41.0343C53.2995 41.1512 53.255 41.2619 53.173 41.3459C53.0909 41.4299 52.9812 41.4769 52.8642 41.4782C52.7476 41.4812 52.6367 41.435 52.5528 41.353C52.4688 41.271 52.4219 41.1613 52.4206 41.0444L52.3019 30.7243L50.2588 30.7478L50.3774 41.0679C50.3851 41.7299 50.6506 42.35 51.1252 42.8138C51.5998 43.2778 52.2239 43.5267 52.8878 43.5214C53.5497 43.5138 54.1699 43.2482 54.6337 42.7735C55.0976 42.2988 55.3488 41.6728 55.3412 41.0108L55.2119 29.7652C55.1869 27.5916 53.398 25.8468 51.2244 25.8684C49.0507 25.8934 47.3027 27.6822 47.3277 29.8559L47.4677 42.0377C47.5018 44.9956 49.9186 47.3784 52.8691 47.3782C52.8899 47.3782 52.9111 47.378 52.9321 47.3778C55.911 47.3436 58.3067 44.8922 58.2725 41.9134L58.1656 30.7907Z" fill="#FFBF41"/>
</g>
<mask id="mask4_823_1530" style="mask-type:luminance" maskUnits="userSpaceOnUse" x="67" y="58" width="40" height="43">
<path d="M67.7639 58.1719H106.059V100.935H67.7639V58.1719Z" fill="white"/>
</mask>
<g mask="url(#mask4_823_1530)">
<g opacity="0.37">
<path d="M86.9116 64.8096C95.0134 64.8096 101.591 71.3876 101.591 79.4894C101.591 87.5913 95.0134 94.1693 86.9116 94.1693C78.8097 94.1693 72.2317 87.5913 72.2317 79.4894C72.2317 71.3876 78.8097 64.8096 86.9116 64.8096Z" fill="#50E3C2"/>
</g>
<path d="M86.9116 67.6182C93.4635 67.6182 98.7831 72.9378 98.7831 79.4896C98.7831 86.0415 93.4635 91.3611 86.9116 91.3611C80.3598 91.3611 75.0402 86.0415 75.0402 79.4896C75.0402 72.9378 80.3598 67.6182 86.9116 67.6182Z" fill="#50E3C2"/>
<path d="M80.7038 80.9929C82.1413 82.146 85.0164 84.4519 85.0164 84.4519C85.0164 84.4519 89.2727 79.7076 92.0547 76.6067" fill="#50E3C2"/>
<path d="M80.7038 80.9929C82.1413 82.146 85.0164 84.4519 85.0164 84.4519C85.0164 84.4519 89.2727 79.7076 92.0547 76.6067" stroke="white" stroke-width="3.07731" stroke-linecap="round" stroke-linejoin="round"/>
</g>
</g>
</g>
<defs>
<clipPath id="clip0_823_1530">
<rect width="138.504" height="138.504" fill="white"/>
</clipPath>
</defs>
</svg>
