<svg width="60" height="60" viewBox="0 0 60 60" fill="none" xmlns="http://www.w3.org/2000/svg">
<rect width="60" height="60" rx="30" fill="#03442C"/>
<g clip-path="url(#clip0_795_4434)">
<path d="M28.8581 25.6873C28.0247 25.6873 27.3487 26.3782 27.3487 27.23C27.3487 28.0817 28.0247 28.7727 28.8581 28.7727C29.6917 28.7727 30.3674 28.0817 30.3674 27.23C30.3674 26.3782 29.6914 25.6873 28.8581 25.6873ZM19.5961 25.6873C18.7625 25.6873 18.0867 26.3782 18.0867 27.23C18.0867 28.0817 18.7628 28.7727 19.5961 28.7727C20.4294 28.7727 21.1055 28.0817 21.1055 27.23C21.1055 26.3782 20.4294 25.6873 19.5961 25.6873ZM24.2268 25.6873C23.3932 25.6873 22.7174 26.3782 22.7174 27.23C22.7174 28.0817 23.3932 28.7727 24.2268 28.7727C25.0604 28.7727 25.7362 28.0817 25.7362 27.23C25.7362 26.3782 25.0604 25.6873 24.2268 25.6873ZM35.6924 20.1778H42.3247C44.3464 20.1778 46 21.8682 46 23.9343V30.5637C46 32.6295 44.3458 34.3202 42.3247 34.3202H39.4695C39.8779 35.9721 40.3727 37.4559 41.8841 38.8262C38.994 38.0708 36.763 36.5435 35.1258 34.3202H34.632C34.4404 34.3202 34.2391 34.3045 34.0326 34.2755C35.1245 33.3716 35.8828 32.2369 35.8828 31.0083V28.2457C36.124 28.4168 36.4172 28.5174 36.7328 28.5174C37.5568 28.5174 38.225 27.8344 38.225 26.9925C38.225 26.1507 37.5568 25.4677 36.7328 25.4677C36.4172 25.4677 36.124 25.568 35.8828 25.7392V21.6026C35.8831 21.1097 35.8161 20.6319 35.6924 20.1778ZM41.4925 25.4677C40.6685 25.4677 40.0005 26.1507 40.0005 26.9925C40.0005 27.8344 40.6685 28.5174 41.4925 28.5174C42.3164 28.5174 42.9844 27.8344 42.9844 26.9925C42.9844 26.1507 42.3164 25.4677 41.4925 25.4677ZM19.0891 18H29.3646H29.3656V18.0037C30.7682 18.0043 32.0401 18.5874 32.9594 19.5273L32.9576 19.5291C33.8784 20.4711 34.4497 21.7708 34.45 23.2012H34.4536V23.2018H34.45V30.7035H34.4536V30.7043H34.45C34.4495 32.2337 33.4099 33.5661 32.025 34.4967C30.7357 35.3633 29.1073 35.9013 27.794 35.9013V35.9052H27.7935V35.9013H27.6883C26.7607 37.082 25.6841 38.0905 24.4516 38.9178C23.0883 39.8328 21.5461 40.5222 19.8164 40.9744L19.8156 40.9713C19.4901 41.0551 19.1313 40.9553 18.8935 40.6809C18.5544 40.2891 18.5901 39.6904 18.9734 39.3439C19.7276 38.6606 20.2276 37.9494 20.5898 37.2036C20.7914 36.7887 20.9539 36.3551 21.0948 35.9052H19.0891H19.088V35.9013C17.6857 35.901 16.4135 35.3175 15.4945 34.378C14.5747 33.4381 14.0039 32.1376 14.0036 30.7038H14V30.7032H14.0036V23.2015H14V23.2002H14.0036C14.0042 21.7964 14.5536 20.5196 15.443 19.5842C15.4591 19.5648 15.476 19.5456 15.494 19.5273C16.4135 18.5874 17.6859 18.0037 19.0885 18.0035V18H19.0891Z" fill="white"/>
</g>
<defs>
<clipPath id="clip0_795_4434">
<rect width="32" height="23" fill="white" transform="translate(14 18)"/>
</clipPath>
</defs>
</svg>
