<svg width="60" height="60" viewBox="0 0 60 60" fill="none" xmlns="http://www.w3.org/2000/svg">
<rect width="60" height="60" rx="30" fill="#03442C"/>
<g clip-path="url(#clip0_795_4438)">
<path fill-rule="evenodd" clip-rule="evenodd" d="M15.0749 18H44.9251C46.0594 18 47 18.9533 47 20.1028V39.8972C47 41.0467 46.0594 42 44.9251 42H15.0749C13.9406 42 13 41.0467 13 39.8972V20.1028C13 18.9533 13.9406 18 15.0749 18ZM32.3377 35.7477H40.2221V36.8692H32.3377V35.7477ZM32.3377 32.8879H43.1546V34.0093H32.3377V32.8879ZM38.4793 27.8131H40.0285C40.1115 27.8131 40.1668 27.8692 40.1668 27.9533V31.0374C40.1668 31.1215 40.1115 31.1776 40.0285 31.1776H38.4793C38.3963 31.1776 38.3409 31.1215 38.3409 31.0374V27.9533C38.3409 27.8972 38.3963 27.8131 38.4793 27.8131ZM32.5037 25.9346H34.0529C34.1359 25.9346 34.1912 25.9907 34.1912 26.0748V31.0654C34.1912 31.1495 34.1359 31.2056 34.0529 31.2056H32.5037C32.4207 31.2056 32.3653 31.1495 32.3653 31.0654V26.0748C32.3377 25.9907 32.4207 25.9346 32.5037 25.9346ZM35.4915 24.8692H37.0407C37.1237 24.8692 37.179 24.9252 37.179 25.0093V31.0654C37.179 31.1495 37.1237 31.2056 37.0407 31.2056H35.4915C35.4085 31.2056 35.3531 31.1495 35.3531 31.0654V25.0093C35.3531 24.9252 35.4085 24.8692 35.4915 24.8692ZM23.8723 31.514L28.5753 31.5981C28.5753 33.3084 27.7453 34.8785 26.3621 35.8318L23.8723 31.514ZM23.402 30.7009L23.3466 25.1495V24.785L23.7063 24.8131C24.1489 24.8411 24.5915 24.9252 25.0065 25.0374C25.4215 25.1495 25.8088 25.3178 26.1961 25.514C28.105 26.5234 29.4329 28.5421 29.5435 30.8411L29.5712 31.2056H29.2116L23.7616 31.0374H23.4573L23.402 30.7009ZM24.0106 25.486L24.0659 30.3645L28.8519 30.5047C28.6583 28.5981 27.4963 26.9439 25.8918 26.0748C25.5598 25.9065 25.2002 25.7664 24.8405 25.6542C24.5362 25.5981 24.2872 25.5421 24.0106 25.486ZM22.9317 31.2336L25.6151 35.9439C24.7852 36.4206 23.8723 36.6729 22.9317 36.6729C19.9715 36.6729 17.5647 34.2336 17.5647 31.2336C17.5647 28.3178 19.8332 25.9065 22.7103 25.7944L22.9317 31.2336ZM44.9805 21.9533H14.9919V40.0093H44.9805V21.9533Z" fill="white"/>
</g>
<defs>
<clipPath id="clip0_795_4438">
<rect width="34" height="24" fill="white" transform="translate(13 18)"/>
</clipPath>
</defs>
</svg>
