<svg width="22" height="28" viewBox="0 0 22 28" fill="none" xmlns="http://www.w3.org/2000/svg">
<path d="M14.3334 22.0001C14.8889 22.0001 15.3614 21.8059 15.7507 21.4174C16.14 21.029 16.3343 20.5565 16.3334 20.0001C16.3325 19.4436 16.1383 18.9716 15.7507 18.5841C15.3632 18.1965 14.8907 18.0019 14.3334 18.0001C13.776 17.9983 13.304 18.193 12.9174 18.5841C12.5307 18.9752 12.336 19.4472 12.3334 20.0001C12.3307 20.553 12.5254 21.0254 12.9174 21.4174C13.3094 21.8094 13.7814 22.0036 14.3334 22.0001ZM7.60004 21.9334L16.2667 13.2667L14.4 11.4001L5.73337 20.0667L7.60004 21.9334ZM7.66671 15.3334C8.22226 15.3334 8.69471 15.1392 9.08404 14.7507C9.47337 14.3623 9.6676 13.8899 9.66671 13.3334C9.66582 12.777 9.4716 12.305 9.08404 11.9174C8.69648 11.5299 8.22404 11.3352 7.66671 11.3334C7.10937 11.3316 6.63737 11.5263 6.25071 11.9174C5.86404 12.3085 5.66937 12.7805 5.66671 13.3334C5.66404 13.8863 5.85871 14.3587 6.25071 14.7507C6.64271 15.1427 7.11471 15.337 7.66671 15.3334ZM11 27.3334C7.9556 27.3334 5.41693 26.289 3.38404 24.2001C1.35115 22.1112 0.334263 19.5112 0.333374 16.4001C0.333374 14.1779 1.21693 11.7614 2.98404 9.15075C4.75115 6.54008 7.42315 3.71208 11 0.666748C14.5778 3.71119 17.2503 6.53919 19.0174 9.15075C20.7845 11.7623 21.6676 14.1787 21.6667 16.4001C21.6667 19.5112 20.6503 22.1112 18.6174 24.2001C16.5845 26.289 14.0454 27.3334 11 27.3334ZM11 24.6667C13.3112 24.6667 15.2223 23.8832 16.7334 22.3161C18.2445 20.749 19 18.777 19 16.4001C19 14.7779 18.3276 12.9445 16.9827 10.9001C15.6378 8.85564 13.6436 6.6223 11 4.20008C8.3556 6.6223 6.36137 8.85564 5.01737 10.9001C3.67337 12.9445 3.00093 14.7779 3.00004 16.4001C3.00004 18.7779 3.7556 20.7503 5.26671 22.3174C6.77782 23.8845 8.68893 24.6676 11 24.6667Z" fill="#80BE41"/>
</svg>
