<svg width="22" height="19" viewBox="0 0 22 19" fill="none" xmlns="http://www.w3.org/2000/svg">
<path d="M19.76 0.959609C19.28 0.479609 18.44 0.479609 17.84 0.959609L14.96 3.83961C13.6924 3.36909 12.352 3.12537 11 3.11961C6.43995 3.23961 2.35995 5.63961 0.199951 9.59961C0.439951 10.0796 0.799951 10.5596 1.15995 11.0396C2.11995 12.3596 3.31995 13.4396 4.63995 14.2796L2.59995 16.3196C2.11995 16.7996 1.99995 17.6396 2.59995 18.2396C3.07995 18.7196 3.91995 18.8396 4.51995 18.2396L19.76 2.87961C20.24 2.27961 20.24 1.43961 19.76 0.959609ZM7.03995 11.7596L5.47995 13.3196C4.03995 12.4796 2.71995 11.2796 1.75995 9.83961C3.19995 7.79961 5.11995 6.35961 7.39995 5.63961C5.83995 7.31961 5.71995 9.95961 7.03995 11.7596ZM11.12 7.79961C10.52 7.19961 10.64 6.23961 11.24 5.63961C11.84 5.15961 12.68 5.15961 13.28 5.63961L11.12 7.79961ZM20.96 8.39961C20.36 7.55961 19.64 6.71961 18.8 6.11961L17.6 7.31961C18.56 8.03961 19.4 8.87961 20.12 9.95961C18.08 13.0796 14.6 14.9996 10.88 14.9996H9.91995L8.71995 16.1996C9.55995 16.0796 10.28 16.1996 11 16.1996C14.96 16.1996 18.68 14.2796 20.96 11.0396C21.32 10.5596 21.56 10.0796 21.92 9.59961C21.56 9.23961 21.32 8.75961 20.96 8.39961ZM15.8 8.99961L11 13.7996C13.64 13.7996 15.8 11.6396 15.8 8.99961Z" fill="#80BE41"/>
</svg>
