<svg xmlns="http://www.w3.org/2000/svg" fill="none" viewBox="0 0 194 101" height="101" width="194">
  <g clip-path="url(#clip0_632_1313)">
    <mask height="173" width="194" y="0" x="0" maskUnits="userSpaceOnUse" style="mask-type:luminance" id="mask0_632_1313">
      <path fill="white" d="M194 0H0V172.444H194V0Z"></path>
    </mask>
    <g mask="url(#mask0_632_1313)">
      <path fill="#FFB907" d="M116.461 55.0935L118.624 56.5683L118.653 59.1353C118.659 59.5835 119.261 59.8807 119.62 59.6113L121.672 58.0692L124.16 58.8848C124.631 59.0389 125.071 58.5974 124.901 58.1348L124.005 55.7059L125.514 53.6434C125.799 53.2523 125.5 52.6972 125.005 52.7047L122.399 52.7466L120.845 50.656C120.551 50.2626 119.927 50.3561 119.79 50.8241L119.076 53.2784L116.604 54.0494C116.134 54.1971 116.052 54.8141 116.461 55.0935Z"></path>
      <path fill="#FFB907" d="M98.4941 102.741L97.7087 102.125L97.7631 101.148C97.7726 100.977 97.5509 100.849 97.4076 100.942L96.5877 101.477L95.6621 101.103C95.4868 101.032 95.3084 101.189 95.3614 101.369L95.6403 102.316L95.0136 103.062C94.895 103.203 94.9949 103.422 95.1834 103.432L96.1754 103.482L96.7137 104.318C96.8155 104.475 97.0553 104.455 97.1191 104.28L97.4537 103.365L98.4132 103.135C98.5957 103.091 98.6427 102.858 98.4941 102.741Z"></path>
      <path fill="#FFB907" d="M49.1337 99.6156L48.9487 101.779L47.1067 102.844C46.7851 103.03 46.8162 103.585 47.1566 103.735L49.1052 104.589L49.5283 106.718C49.6086 107.121 50.1059 107.258 50.3711 106.947L51.7595 105.313L53.8636 105.563C54.2619 105.611 54.5413 105.167 54.3344 104.813L53.2449 102.949L54.1211 100.976C54.2855 100.603 53.9642 100.19 53.5706 100.282L51.5077 100.764L49.9458 99.2942C49.6477 99.0152 49.1686 99.2065 49.1337 99.6156Z"></path>
      <path fill="#FFB907" d="M65.1215 61.9638L67.4177 62.7029L68.1122 64.964C68.2339 65.3595 68.8442 65.4648 69.0909 65.1334L70.5019 63.2348L72.9144 63.3071C73.3706 63.3207 73.6434 62.8164 73.3728 62.4522L71.9478 60.5393L72.7435 58.3232C72.8941 57.9034 72.4841 57.4903 72.049 57.6259L69.7579 58.3418L67.8383 56.8993C67.4762 56.6284 66.949 56.8748 66.9505 57.3239L66.9579 59.6788L64.9756 61.0035C64.5987 61.2569 64.6868 61.8238 65.1215 61.9638Z"></path>
      <path fill="#FFB907" d="M153.252 99.432L152.252 96.6257L153.947 94.2463C154.242 93.8306 153.888 93.1536 153.377 93.1603L150.457 93.2029L148.716 90.7836C148.387 90.3265 147.687 90.4383 147.533 90.9773L146.729 93.81L143.958 94.6942C143.434 94.8619 143.336 95.574 143.797 95.8987L146.219 97.6069L146.247 100.573C146.253 101.131 146.89 101.462 147.33 101.124L149.633 99.3475L152.42 100.296C152.952 100.475 153.441 99.9633 153.252 99.432Z"></path>
      <path fill="#FFB907" d="M87.9861 53.2212L88.988 53.8499L89.0448 55.0081C89.0547 55.2105 89.3318 55.3341 89.489 55.2063L90.3891 54.4748L91.5262 54.8011C91.7414 54.8627 91.9319 54.6559 91.8476 54.4498L91.4018 53.3693L92.048 52.4122C92.1702 52.2312 92.0253 51.9853 91.8017 51.9972L90.6269 52.0603L89.889 51.1431C89.7496 50.9707 89.4696 51.024 89.4158 51.2374L89.1349 52.3574L88.0327 52.7473C87.8229 52.8219 87.7964 53.1019 87.9861 53.2212Z"></path>
      <path fill="#FFB907" d="M138.404 41.7348L138.948 41.2022L139.682 41.3401C139.81 41.3643 139.929 41.2094 139.873 41.0916L139.55 40.4187L139.925 39.7555C139.996 39.63 139.895 39.4799 139.753 39.5015L139.01 39.6185L138.507 39.0702C138.413 38.9664 138.237 39.02 138.211 39.1618L138.074 39.9069L137.389 40.231C137.26 40.2929 137.251 40.476 137.377 40.5416L138.036 40.8854L138.115 41.6346C138.13 41.7772 138.301 41.8359 138.404 41.7348Z"></path>
      <path fill="#FFB907" d="M47.2522 70.2591L46.847 70.8848L46.1155 70.9103C45.9875 70.9152 45.9072 71.0888 45.9862 71.1894L46.4396 71.7639L46.2238 72.4781C46.183 72.6134 46.3119 72.7364 46.4423 72.6847L47.1284 72.4129L47.7264 72.8291C47.8395 72.9079 47.9962 72.8183 47.9903 72.6771L47.9609 71.9359L48.5464 71.4786C48.6568 71.3918 48.6257 71.2148 48.4909 71.1791L47.7872 70.9914L47.551 70.2922C47.5056 70.1596 47.3288 70.1409 47.2522 70.2591Z"></path>
      <path fill="#FFB907" d="M171.318 72.0617L170.941 71.36L171.294 70.6621C171.354 70.5403 171.234 70.3753 171.098 70.3981L170.328 70.5264L169.77 69.9576C169.664 69.8492 169.484 69.9069 169.464 70.0558L169.366 70.8379L168.669 71.1831C168.536 71.2489 168.54 71.4412 168.675 71.5083L169.384 71.8626L169.511 72.6459C169.535 72.7934 169.717 72.8554 169.82 72.7481L170.358 72.1854L171.134 72.3239C171.282 72.3499 171.389 72.1943 171.318 72.0617Z"></path>
      <path stroke-width="0.493318" stroke="#095063" d="M57.742 46.6808C59.2512 47.1761 60.0727 48.8008 59.577 50.311C59.0816 51.8208 57.4571 52.6433 55.9478 52.148C54.4385 51.6527 53.6172 50.0275 54.1127 48.5178C54.6083 47.0075 56.2327 46.1855 57.742 46.6808Z"></path>
      <path stroke-width="0.599735" stroke="#095063" d="M110.986 29.7874C112.192 30.2373 112.805 31.5805 112.355 32.7869C111.905 33.9933 110.562 34.6066 109.356 34.1567C108.15 33.7068 107.538 32.3637 107.988 31.1573C108.438 29.9509 109.78 29.3374 110.986 29.7874Z"></path>
      <path stroke-width="0.571103" stroke="#25C754" d="M55.5449 86.373L50.3055 89.6988L49.7404 84.1793L55.5449 86.373Z"></path>
      <path stroke-width="0.615873" stroke="#25C754" d="M162.897 33.9906L166.321 36.4017L163.024 38.1771L162.897 33.9906Z"></path>
      <path stroke-width="0.61003" stroke="#03A9F4" d="M146.486 67.0338L150.613 67.4604L152.309 71.2483L149.879 74.6107L145.751 74.1848L144.054 70.3971L146.486 67.0338Z"></path>
      <path stroke-width="0.556915" stroke="#03A9F4" d="M74.1128 47.6815L72.7253 49.6728L70.3054 49.4682L69.2725 47.2712L70.661 45.2786L73.0802 45.4841L74.1128 47.6815Z"></path>
      <path fill="#03A9F4" d="M135.939 65.3799L60.9102 68.0748C58.9361 68.1457 57.3946 69.7951 57.4652 71.7599L57.8484 82.4304C57.919 84.3952 59.5749 85.9298 61.5489 85.8589L136.578 83.164C138.552 83.0931 140.094 81.4437 140.023 79.4789L139.64 68.8084C139.569 66.8436 137.913 65.309 135.939 65.3799Z"></path>
      <path fill="#0295D7" d="M133.645 88.0703H65.2827V141.767C65.2827 143.744 66.8926 145.347 68.8806 145.347H130.047C132.035 145.347 133.645 143.744 133.645 141.767V88.0703Z"></path>
      <path fill="#FFD364" d="M89.2256 67.0576L107.01 66.4189L107.466 73.6293L89.6821 74.2681L89.2256 67.0576Z"></path>
      <path fill="#DEB345" d="M89.9175 88.0703H107.778V145.5H89.9175V88.0703Z"></path>
    </g>
  </g>
  <defs>
    <clipPath id="clip0_632_1313">
      <rect fill="white" height="172.444" width="194"></rect>
    </clipPath>
  </defs>
</svg>
