<svg width="19" height="18" viewBox="0 0 19 18" fill="none" xmlns="http://www.w3.org/2000/svg">
<path d="M1.42773 5V3C1.42773 2.46957 1.63845 1.96086 2.01352 1.58579C2.38859 1.21071 2.8973 1 3.42773 1H5.42773M1.42773 13V15C1.42773 15.5304 1.63845 16.0391 2.01352 16.4142C2.38859 16.7893 2.8973 17 3.42773 17H5.42773M13.4277 1H15.4277C15.9582 1 16.4669 1.21071 16.8419 1.58579C17.217 1.96086 17.4277 2.46957 17.4277 3V5M13.4277 17H15.4277C15.9582 17 16.4669 16.7893 16.8419 16.4142C17.217 16.0391 17.4277 15.5304 17.4277 15V13M6.42773 7H6.43773M12.4277 7H12.4377M6.92773 12C7.25361 12.3326 7.64258 12.5968 8.07186 12.7772C8.50114 12.9576 8.9621 13.0505 9.42773 13.0505C9.89337 13.0505 10.3543 12.9576 10.7836 12.7772C11.2129 12.5968 11.6019 12.3326 11.9277 12" stroke="currentColor" stroke-width="2" stroke-linecap="round" stroke-linejoin="round"/>
</svg>
