<svg width="60" height="60" viewBox="0 0 60 60" fill="none" xmlns="http://www.w3.org/2000/svg">
<rect width="60" height="60" rx="30" fill="#03442C"/>
<g clip-path="url(#clip0_795_4469)">
<path d="M17.2861 44.7876C17.1188 44.7095 17 44.541 17 44.3408V15.4883C17 15.2197 17.2158 15 17.4849 15H22.1881H41.5151C41.7818 15 42 15.2173 42 15.4883V41.7896C42 41.8164 41.9976 41.8408 41.9951 41.8652C41.9273 42.8247 41.6169 43.5718 41.0593 44.1064C40.5017 44.6387 39.7187 44.9365 38.7029 44.9951C38.681 44.9976 38.6617 45 38.6398 45H17.6861C17.5212 45 17.3734 44.9146 17.2861 44.7876ZM41.0327 41.7773V15.9741H22.1881H17.9673V44.0259H38.6374H38.6471C39.4253 43.9819 40.0072 43.772 40.3926 43.4033C40.7733 43.0396 40.9842 42.4951 41.0327 41.7773ZM27.9727 24.3066L28.8163 26.8066L29.2406 25.3223L29.0321 25.0928C28.9375 24.9561 28.9182 24.834 28.9691 24.7314C29.0806 24.5068 29.3157 24.5483 29.5339 24.5483C29.7618 24.5483 30.0431 24.5044 30.1158 24.7925C30.14 24.8877 30.1085 24.9902 30.0431 25.0928L29.8346 25.3223L30.2588 26.8066L31.0225 24.3066C31.5753 24.8071 33.2068 24.9072 33.8129 25.2466C34.0045 25.354 34.179 25.4907 34.3172 25.6763C34.7487 26.25 34.7463 26.3525 34.8215 27.0728C34.79 27.4023 34.6033 27.5928 34.2372 27.6221H24.7555C24.3894 27.5928 24.2028 27.4048 24.1713 27.0728C24.244 26.3525 24.244 26.25 24.6755 25.6763C24.8161 25.4907 24.9883 25.354 25.1798 25.2466C25.7907 24.9072 27.4223 24.8047 27.9727 24.3066ZM27.5193 20.7153C27.5993 20.7471 27.6842 20.7544 27.769 20.7373L27.6502 19.7778C27.7108 19.541 27.8054 19.3555 27.9314 19.2212C28.0624 19.0796 28.2248 18.9917 28.4212 18.9551C28.6806 18.9355 28.7581 19.126 29.0151 19.292C29.8006 19.7974 30.4673 19.9683 31.4395 19.9805L31.2819 20.7837C31.3231 20.7861 31.3668 20.7861 31.408 20.7812C31.4201 20.7837 31.4322 20.7837 31.4443 20.7837C31.6237 20.7666 31.7328 20.7861 31.7644 20.8521C31.8056 20.9351 31.7716 21.0986 31.6601 21.3599L31.1267 22.2437C30.9279 22.5732 30.7267 22.9028 30.4722 23.1445C30.2249 23.3789 29.9194 23.5327 29.5024 23.5327C29.117 23.5327 28.826 23.3813 28.586 23.1616C28.3363 22.9321 28.1375 22.6221 27.9484 22.3193L27.4757 21.5625L27.4732 21.5601C27.3253 21.3403 27.2502 21.1475 27.2453 20.9985C27.2429 20.9473 27.2526 20.9009 27.2696 20.8618C27.2866 20.8276 27.3108 20.7983 27.3447 20.7739C27.386 20.7446 27.4466 20.7251 27.5193 20.7153ZM31.7644 20.5762L31.7934 19.3237C31.7571 18.8232 31.5946 18.4448 31.3304 18.1592C30.6879 17.4585 29.4855 17.2778 28.5787 17.6074C28.426 17.6636 28.2805 17.7344 28.1496 17.8174C27.7763 18.0566 27.4732 18.4058 27.352 18.8403C27.3229 18.9429 27.3035 19.0454 27.2938 19.1479C27.2744 19.5874 27.2866 20.1123 27.3181 20.5249C27.2793 20.5396 27.2453 20.5591 27.2114 20.5786C27.1411 20.625 27.0902 20.6885 27.0562 20.7617C27.0247 20.8325 27.0102 20.9131 27.0126 21.001C27.0175 21.1914 27.1072 21.4258 27.2769 21.6821L27.7496 22.4365C27.9484 22.7539 28.1545 23.0762 28.426 23.3252C28.7048 23.5815 29.0466 23.7573 29.4976 23.7573C29.9824 23.7598 30.3364 23.5791 30.6249 23.3057C30.9037 23.042 31.1146 22.7002 31.3207 22.356L31.8589 21.4648C31.8613 21.46 31.8638 21.4551 31.8662 21.4526C32.0116 21.123 32.0432 20.8936 31.968 20.7446C31.9268 20.6641 31.8589 20.6079 31.7644 20.5762ZM34.0845 41.4111C33.8202 41.4111 33.6044 41.1938 33.6044 40.9229C33.6044 40.6543 33.8178 40.4346 34.0845 40.4346H38.1283C38.3926 40.4346 38.6083 40.6519 38.6083 40.9229C38.6083 41.1914 38.395 41.4111 38.1283 41.4111H34.0845ZM21.0778 37.8564C20.8135 37.8564 20.5978 37.6392 20.5978 37.3682C20.5978 37.0996 20.8111 36.8799 21.0778 36.8799H38.1695C38.4338 36.8799 38.6495 37.0972 38.6495 37.3682C38.6495 37.6367 38.4362 37.8564 38.1695 37.8564H21.0778ZM21.1554 34.3018C20.8911 34.3018 20.6753 34.0845 20.6753 33.8135C20.6753 33.5449 20.8887 33.3252 21.1554 33.3252H38.1259C38.3901 33.3252 38.6059 33.5425 38.6059 33.8135C38.6059 34.082 38.3926 34.3018 38.1259 34.3018H21.1554ZM21.0778 30.7471C20.8135 30.7471 20.5978 30.5298 20.5978 30.2588C20.5978 29.9902 20.8111 29.7705 21.0778 29.7705H28.3824C28.6466 29.7705 28.8624 29.9878 28.8624 30.2588C28.8624 30.5273 28.649 30.7471 28.3824 30.7471H21.0778ZM30.2467 30.7471C29.9824 30.7471 29.7667 30.5298 29.7667 30.2588C29.7667 29.9902 29.98 29.7705 30.2467 29.7705H38.1259C38.3901 29.7705 38.6059 29.9878 38.6059 30.2588C38.6059 30.5273 38.3926 30.7471 38.1259 30.7471H30.2467Z" fill="white"/>
</g>
<defs>
<clipPath id="clip0_795_4469">
<rect width="25" height="30" fill="white" transform="translate(17 15)"/>
</clipPath>
</defs>
</svg>
