<svg width="296" height="159" viewBox="0 0 296 159" fill="none" xmlns="http://www.w3.org/2000/svg">
<g clip-path="url(#clip0_334_2683)">
<rect width="296" height="159" rx="14" fill="white"/>
<path d="M29.352 35.964H32.768V37H28.078V27.242H29.352V35.964ZM37.467 37.126C36.7483 37.126 36.095 36.9627 35.507 36.636C34.9283 36.3093 34.471 35.8473 34.135 35.25C33.8083 34.6433 33.645 33.9433 33.645 33.15C33.645 32.366 33.813 31.6753 34.149 31.078C34.4943 30.4713 34.961 30.0093 35.549 29.692C36.137 29.3653 36.795 29.202 37.523 29.202C38.251 29.202 38.909 29.3653 39.497 29.692C40.085 30.0093 40.547 30.4667 40.883 31.064C41.2283 31.6613 41.401 32.3567 41.401 33.15C41.401 33.9433 41.2236 34.6433 40.869 35.25C40.5236 35.8473 40.0523 36.3093 39.455 36.636C38.8576 36.9627 38.195 37.126 37.467 37.126ZM37.467 36.006C37.9243 36.006 38.3536 35.8987 38.755 35.684C39.1563 35.4693 39.4783 35.1473 39.721 34.718C39.973 34.2887 40.099 33.766 40.099 33.15C40.099 32.534 39.9776 32.0113 39.735 31.582C39.4923 31.1527 39.175 30.8353 38.783 30.63C38.391 30.4153 37.9663 30.308 37.509 30.308C37.0423 30.308 36.613 30.4153 36.221 30.63C35.8383 30.8353 35.5303 31.1527 35.297 31.582C35.0636 32.0113 34.947 32.534 34.947 33.15C34.947 33.7753 35.059 34.3027 35.283 34.732C35.5163 35.1613 35.8243 35.4833 36.207 35.698C36.5896 35.9033 37.0096 36.006 37.467 36.006ZM42.6 33.136C42.6 32.352 42.7587 31.666 43.076 31.078C43.3934 30.4807 43.8274 30.0187 44.378 29.692C44.938 29.3653 45.5587 29.202 46.24 29.202C46.912 29.202 47.4954 29.3467 47.99 29.636C48.4847 29.9253 48.8534 30.2893 49.096 30.728V29.328H50.384V37H49.096V35.572C48.844 36.02 48.466 36.3933 47.962 36.692C47.4674 36.9813 46.8887 37.126 46.226 37.126C45.5447 37.126 44.9287 36.958 44.378 36.622C43.8274 36.286 43.3934 35.8147 43.076 35.208C42.7587 34.6013 42.6 33.9107 42.6 33.136ZM49.096 33.15C49.096 32.5713 48.9794 32.0673 48.746 31.638C48.5127 31.2087 48.1954 30.882 47.794 30.658C47.402 30.4247 46.968 30.308 46.492 30.308C46.016 30.308 45.582 30.42 45.19 30.644C44.798 30.868 44.4854 31.1947 44.252 31.624C44.0187 32.0533 43.902 32.5573 43.902 33.136C43.902 33.724 44.0187 34.2373 44.252 34.676C44.4854 35.1053 44.798 35.4367 45.19 35.67C45.582 35.894 46.016 36.006 46.492 36.006C46.968 36.006 47.402 35.894 47.794 35.67C48.1954 35.4367 48.5127 35.1053 48.746 34.676C48.9794 34.2373 49.096 33.7287 49.096 33.15ZM56.275 29.188C57.2083 29.188 57.9643 29.4727 58.543 30.042C59.1217 30.602 59.411 31.414 59.411 32.478V37H58.151V32.66C58.151 31.8947 57.9597 31.3113 57.577 30.91C57.1943 30.4993 56.6717 30.294 56.009 30.294C55.337 30.294 54.8003 30.504 54.399 30.924C54.007 31.344 53.811 31.9553 53.811 32.758V37H52.537V29.328H53.811V30.42C54.063 30.028 54.4037 29.7247 54.833 29.51C55.2717 29.2953 55.7523 29.188 56.275 29.188ZM70.9925 34.83H66.7365L65.9525 37H64.6085L68.1365 27.298H69.6065L73.1205 37H71.7765L70.9925 34.83ZM70.6285 33.794L68.8645 28.866L67.1005 33.794H70.6285ZM75.9321 30.742C76.1841 30.3033 76.5574 29.9393 77.0521 29.65C77.5561 29.3513 78.1394 29.202 78.8021 29.202C79.4834 29.202 80.0994 29.3653 80.6501 29.692C81.2101 30.0187 81.6487 30.4807 81.9661 31.078C82.2834 31.666 82.4421 32.352 82.4421 33.136C82.4421 33.9107 82.2834 34.6013 81.9661 35.208C81.6487 35.8147 81.2101 36.286 80.6501 36.622C80.0994 36.958 79.4834 37.126 78.8021 37.126C78.1487 37.126 77.5701 36.9813 77.0661 36.692C76.5714 36.3933 76.1934 36.0247 75.9321 35.586V40.64H74.6581V29.328H75.9321V30.742ZM81.1401 33.136C81.1401 32.5573 81.0234 32.0533 80.7901 31.624C80.5567 31.1947 80.2394 30.868 79.8381 30.644C79.4461 30.42 79.0121 30.308 78.5361 30.308C78.0694 30.308 77.6354 30.4247 77.2341 30.658C76.8421 30.882 76.5247 31.2133 76.2821 31.652C76.0487 32.0813 75.9321 32.5807 75.9321 33.15C75.9321 33.7287 76.0487 34.2373 76.2821 34.676C76.5247 35.1053 76.8421 35.4367 77.2341 35.67C77.6354 35.894 78.0694 36.006 78.5361 36.006C79.0121 36.006 79.4461 35.894 79.8381 35.67C80.2394 35.4367 80.5567 35.1053 80.7901 34.676C81.0234 34.2373 81.1401 33.724 81.1401 33.136ZM85.393 30.742C85.645 30.3033 86.0183 29.9393 86.513 29.65C87.017 29.3513 87.6003 29.202 88.263 29.202C88.9443 29.202 89.5603 29.3653 90.111 29.692C90.671 30.0187 91.1097 30.4807 91.427 31.078C91.7443 31.666 91.903 32.352 91.903 33.136C91.903 33.9107 91.7443 34.6013 91.427 35.208C91.1097 35.8147 90.671 36.286 90.111 36.622C89.5603 36.958 88.9443 37.126 88.263 37.126C87.6097 37.126 87.031 36.9813 86.527 36.692C86.0323 36.3933 85.6543 36.0247 85.393 35.586V40.64H84.119V29.328H85.393V30.742ZM90.601 33.136C90.601 32.5573 90.4843 32.0533 90.251 31.624C90.0177 31.1947 89.7003 30.868 89.299 30.644C88.907 30.42 88.473 30.308 87.997 30.308C87.5303 30.308 87.0963 30.4247 86.695 30.658C86.303 30.882 85.9857 31.2133 85.743 31.652C85.5097 32.0813 85.393 32.5807 85.393 33.15C85.393 33.7287 85.5097 34.2373 85.743 34.676C85.9857 35.1053 86.303 35.4367 86.695 35.67C87.0963 35.894 87.5303 36.006 87.997 36.006C88.473 36.006 88.907 35.894 89.299 35.67C89.7003 35.4367 90.0177 35.1053 90.251 34.676C90.4843 34.2373 90.601 33.724 90.601 33.136ZM94.854 30.574C95.078 30.1353 95.3953 29.7947 95.806 29.552C96.226 29.3093 96.7346 29.188 97.332 29.188V30.504H96.996C95.568 30.504 94.854 31.2787 94.854 32.828V37H93.58V29.328H94.854V30.574ZM102.149 37.126C101.43 37.126 100.777 36.9627 100.189 36.636C99.6099 36.3093 99.1526 35.8473 98.8166 35.25C98.4899 34.6433 98.3266 33.9433 98.3266 33.15C98.3266 32.366 98.4946 31.6753 98.8306 31.078C99.1759 30.4713 99.6426 30.0093 100.231 29.692C100.819 29.3653 101.477 29.202 102.205 29.202C102.933 29.202 103.591 29.3653 104.179 29.692C104.767 30.0093 105.229 30.4667 105.565 31.064C105.91 31.6613 106.083 32.3567 106.083 33.15C106.083 33.9433 105.905 34.6433 105.551 35.25C105.205 35.8473 104.734 36.3093 104.137 36.636C103.539 36.9627 102.877 37.126 102.149 37.126ZM102.149 36.006C102.606 36.006 103.035 35.8987 103.437 35.684C103.838 35.4693 104.16 35.1473 104.403 34.718C104.655 34.2887 104.781 33.766 104.781 33.15C104.781 32.534 104.659 32.0113 104.417 31.582C104.174 31.1527 103.857 30.8353 103.465 30.63C103.073 30.4153 102.648 30.308 102.191 30.308C101.724 30.308 101.295 30.4153 100.903 30.63C100.52 30.8353 100.212 31.1527 99.9786 31.582C99.7453 32.0113 99.6286 32.534 99.6286 33.15C99.6286 33.7753 99.7406 34.3027 99.9646 34.732C100.198 35.1613 100.506 35.4833 100.889 35.698C101.271 35.9033 101.691 36.006 102.149 36.006ZM110.614 35.824L112.994 29.328H114.352L111.342 37H109.858L106.848 29.328H108.22L110.614 35.824ZM122.605 32.87C122.605 33.1127 122.591 33.3693 122.563 33.64H116.431C116.478 34.396 116.735 34.9887 117.201 35.418C117.677 35.838 118.251 36.048 118.923 36.048C119.474 36.048 119.931 35.922 120.295 35.67C120.669 35.4087 120.93 35.0633 121.079 34.634H122.451C122.246 35.3713 121.835 35.9733 121.219 36.44C120.603 36.8973 119.838 37.126 118.923 37.126C118.195 37.126 117.542 36.9627 116.963 36.636C116.394 36.3093 115.946 35.8473 115.619 35.25C115.293 34.6433 115.129 33.9433 115.129 33.15C115.129 32.3567 115.288 31.6613 115.605 31.064C115.923 30.4667 116.366 30.0093 116.935 29.692C117.514 29.3653 118.177 29.202 118.923 29.202C119.651 29.202 120.295 29.3607 120.855 29.678C121.415 29.9953 121.845 30.434 122.143 30.994C122.451 31.5447 122.605 32.17 122.605 32.87ZM121.289 32.604C121.289 32.1187 121.182 31.7033 120.967 31.358C120.753 31.0033 120.459 30.7373 120.085 30.56C119.721 30.3733 119.315 30.28 118.867 30.28C118.223 30.28 117.673 30.4853 117.215 30.896C116.767 31.3067 116.511 31.876 116.445 32.604H121.289ZM123.811 33.136C123.811 32.352 123.97 31.666 124.287 31.078C124.604 30.4807 125.038 30.0187 125.589 29.692C126.149 29.3653 126.774 29.202 127.465 29.202C128.062 29.202 128.618 29.342 129.131 29.622C129.644 29.8927 130.036 30.252 130.307 30.7V26.64H131.595V37H130.307V35.558C130.055 36.0153 129.682 36.3933 129.187 36.692C128.692 36.9813 128.114 37.126 127.451 37.126C126.77 37.126 126.149 36.958 125.589 36.622C125.038 36.286 124.604 35.8147 124.287 35.208C123.97 34.6013 123.811 33.9107 123.811 33.136ZM130.307 33.15C130.307 32.5713 130.19 32.0673 129.957 31.638C129.724 31.2087 129.406 30.882 129.005 30.658C128.613 30.4247 128.179 30.308 127.703 30.308C127.227 30.308 126.793 30.42 126.401 30.644C126.009 30.868 125.696 31.1947 125.463 31.624C125.23 32.0533 125.113 32.5573 125.113 33.136C125.113 33.724 125.23 34.2373 125.463 34.676C125.696 35.1053 126.009 35.4367 126.401 35.67C126.793 35.894 127.227 36.006 127.703 36.006C128.179 36.006 128.613 35.894 129.005 35.67C129.406 35.4367 129.724 35.1053 129.957 34.676C130.19 34.2373 130.307 33.7287 130.307 33.15Z" fill="black"/>
<path d="M29.112 72V65.832H27.24V64.296H29.112V62.328H27.24V60.792H29.112V54.864H31.608L33.888 60.792H36.72V54.864H38.616V60.792H40.488V62.328H38.616V64.296H40.488V65.832H38.616V72H36.096L33.816 65.832H30.984V72H29.112ZM30.984 64.296H33.24L32.52 62.328H30.936L30.984 64.296ZM36.72 68.616H36.816L36.744 65.832H35.736L36.72 68.616ZM30.936 60.792H31.944L30.936 57.816H30.84L30.936 60.792ZM35.16 64.296H36.768L36.72 62.328H34.44L35.16 64.296ZM53.4544 56.856H45.4144V61.632C45.7504 61.184 46.2464 60.808 46.9024 60.504C47.5744 60.2 48.2864 60.048 49.0384 60.048C50.3824 60.048 51.4704 60.336 52.3024 60.912C53.1504 61.488 53.7504 62.216 54.1024 63.096C54.4704 63.976 54.6544 64.904 54.6544 65.88C54.6544 67.064 54.4224 68.12 53.9584 69.048C53.5104 69.96 52.8304 70.68 51.9184 71.208C51.0224 71.736 49.9184 72 48.6064 72C46.8624 72 45.4624 71.568 44.4064 70.704C43.3504 69.84 42.7184 68.696 42.5104 67.272H45.1744C45.3504 68.024 45.7424 68.624 46.3504 69.072C46.9584 69.504 47.7184 69.72 48.6304 69.72C49.7664 69.72 50.6144 69.376 51.1744 68.688C51.7504 68 52.0384 67.088 52.0384 65.952C52.0384 64.8 51.7504 63.92 51.1744 63.312C50.5984 62.688 49.7504 62.376 48.6304 62.376C47.8464 62.376 47.1824 62.576 46.6384 62.976C46.1104 63.36 45.7264 63.888 45.4864 64.56H42.8944V54.456H53.4544V56.856ZM60.8625 68.712L57.9585 75.336H56.1825L57.8865 68.712H60.8625ZM62.8931 63.024C62.8931 60.256 63.3571 58.096 64.2851 56.544C65.2291 54.976 66.8451 54.192 69.1331 54.192C71.4211 54.192 73.0291 54.976 73.9571 56.544C74.9011 58.096 75.3731 60.256 75.3731 63.024C75.3731 65.824 74.9011 68.016 73.9571 69.6C73.0291 71.168 71.4211 71.952 69.1331 71.952C66.8451 71.952 65.2291 71.168 64.2851 69.6C63.3571 68.016 62.8931 65.824 62.8931 63.024ZM72.6851 63.024C72.6851 61.728 72.5971 60.632 72.4211 59.736C72.2611 58.84 71.9251 58.112 71.4131 57.552C70.9011 56.976 70.1411 56.688 69.1331 56.688C68.1251 56.688 67.3651 56.976 66.8531 57.552C66.3411 58.112 65.9971 58.84 65.8211 59.736C65.6611 60.632 65.5811 61.728 65.5811 63.024C65.5811 64.368 65.6611 65.496 65.8211 66.408C65.9811 67.32 66.3171 68.056 66.8291 68.616C67.3571 69.176 68.1251 69.456 69.1331 69.456C70.1411 69.456 70.9011 69.176 71.4131 68.616C71.9411 68.056 72.2851 67.32 72.4451 66.408C72.6051 65.496 72.6851 64.368 72.6851 63.024ZM78.2681 63.024C78.2681 60.256 78.7321 58.096 79.6601 56.544C80.6041 54.976 82.2201 54.192 84.5081 54.192C86.7961 54.192 88.4041 54.976 89.3321 56.544C90.2761 58.096 90.7481 60.256 90.7481 63.024C90.7481 65.824 90.2761 68.016 89.3321 69.6C88.4041 71.168 86.7961 71.952 84.5081 71.952C82.2201 71.952 80.6041 71.168 79.6601 69.6C78.7321 68.016 78.2681 65.824 78.2681 63.024ZM88.0601 63.024C88.0601 61.728 87.9721 60.632 87.7961 59.736C87.6361 58.84 87.3001 58.112 86.7881 57.552C86.2761 56.976 85.5161 56.688 84.5081 56.688C83.5001 56.688 82.7401 56.976 82.2281 57.552C81.7161 58.112 81.3721 58.84 81.1961 59.736C81.0361 60.632 80.9561 61.728 80.9561 63.024C80.9561 64.368 81.0361 65.496 81.1961 66.408C81.3561 67.32 81.6921 68.056 82.2041 68.616C82.7321 69.176 83.5001 69.456 84.5081 69.456C85.5161 69.456 86.2761 69.176 86.7881 68.616C87.3161 68.056 87.6601 67.32 87.8201 66.408C87.9801 65.496 88.0601 64.368 88.0601 63.024ZM93.6431 63.024C93.6431 60.256 94.1071 58.096 95.0351 56.544C95.9791 54.976 97.5951 54.192 99.8831 54.192C102.171 54.192 103.779 54.976 104.707 56.544C105.651 58.096 106.123 60.256 106.123 63.024C106.123 65.824 105.651 68.016 104.707 69.6C103.779 71.168 102.171 71.952 99.8831 71.952C97.5951 71.952 95.9791 71.168 95.0351 69.6C94.1071 68.016 93.6431 65.824 93.6431 63.024ZM103.435 63.024C103.435 61.728 103.347 60.632 103.171 59.736C103.011 58.84 102.675 58.112 102.163 57.552C101.651 56.976 100.891 56.688 99.8831 56.688C98.8751 56.688 98.1151 56.976 97.6031 57.552C97.0911 58.112 96.7471 58.84 96.5711 59.736C96.4111 60.632 96.3311 61.728 96.3311 63.024C96.3311 64.368 96.4111 65.496 96.5711 66.408C96.7311 67.32 97.0671 68.056 97.5791 68.616C98.1071 69.176 98.8751 69.456 99.8831 69.456C100.891 69.456 101.651 69.176 102.163 68.616C102.691 68.056 103.035 67.32 103.195 66.408C103.355 65.496 103.435 64.368 103.435 63.024ZM112.378 68.712L109.474 75.336H107.698L109.402 68.712H112.378ZM114.409 63.024C114.409 60.256 114.873 58.096 115.801 56.544C116.745 54.976 118.361 54.192 120.649 54.192C122.937 54.192 124.545 54.976 125.473 56.544C126.417 58.096 126.889 60.256 126.889 63.024C126.889 65.824 126.417 68.016 125.473 69.6C124.545 71.168 122.937 71.952 120.649 71.952C118.361 71.952 116.745 71.168 115.801 69.6C114.873 68.016 114.409 65.824 114.409 63.024ZM124.201 63.024C124.201 61.728 124.113 60.632 123.937 59.736C123.777 58.84 123.441 58.112 122.929 57.552C122.417 56.976 121.657 56.688 120.649 56.688C119.641 56.688 118.881 56.976 118.369 57.552C117.857 58.112 117.513 58.84 117.337 59.736C117.177 60.632 117.097 61.728 117.097 63.024C117.097 64.368 117.177 65.496 117.337 66.408C117.497 67.32 117.833 68.056 118.345 68.616C118.873 69.176 119.641 69.456 120.649 69.456C121.657 69.456 122.417 69.176 122.929 68.616C123.457 68.056 123.801 67.32 123.961 66.408C124.121 65.496 124.201 64.368 124.201 63.024ZM129.784 63.024C129.784 60.256 130.248 58.096 131.176 56.544C132.12 54.976 133.736 54.192 136.024 54.192C138.312 54.192 139.92 54.976 140.848 56.544C141.792 58.096 142.264 60.256 142.264 63.024C142.264 65.824 141.792 68.016 140.848 69.6C139.92 71.168 138.312 71.952 136.024 71.952C133.736 71.952 132.12 71.168 131.176 69.6C130.248 68.016 129.784 65.824 129.784 63.024ZM139.576 63.024C139.576 61.728 139.488 60.632 139.312 59.736C139.152 58.84 138.816 58.112 138.304 57.552C137.792 56.976 137.032 56.688 136.024 56.688C135.016 56.688 134.256 56.976 133.744 57.552C133.232 58.112 132.888 58.84 132.712 59.736C132.552 60.632 132.472 61.728 132.472 63.024C132.472 64.368 132.552 65.496 132.712 66.408C132.872 67.32 133.208 68.056 133.72 68.616C134.248 69.176 135.016 69.456 136.024 69.456C137.032 69.456 137.792 69.176 138.304 68.616C138.832 68.056 139.176 67.32 139.336 66.408C139.496 65.496 139.576 64.368 139.576 63.024ZM145.159 63.024C145.159 60.256 145.623 58.096 146.551 56.544C147.495 54.976 149.111 54.192 151.399 54.192C153.687 54.192 155.295 54.976 156.223 56.544C157.167 58.096 157.639 60.256 157.639 63.024C157.639 65.824 157.167 68.016 156.223 69.6C155.295 71.168 153.687 71.952 151.399 71.952C149.111 71.952 147.495 71.168 146.551 69.6C145.623 68.016 145.159 65.824 145.159 63.024ZM154.951 63.024C154.951 61.728 154.863 60.632 154.687 59.736C154.527 58.84 154.191 58.112 153.679 57.552C153.167 56.976 152.407 56.688 151.399 56.688C150.391 56.688 149.631 56.976 149.119 57.552C148.607 58.112 148.263 58.84 148.087 59.736C147.927 60.632 147.847 61.728 147.847 63.024C147.847 64.368 147.927 65.496 148.087 66.408C148.247 67.32 148.583 68.056 149.095 68.616C149.623 69.176 150.391 69.456 151.399 69.456C152.407 69.456 153.167 69.176 153.679 68.616C154.207 68.056 154.551 67.32 154.711 66.408C154.871 65.496 154.951 64.368 154.951 63.024ZM161.998 72.168C161.502 72.168 161.086 72 160.75 71.664C160.414 71.328 160.246 70.912 160.246 70.416C160.246 69.92 160.414 69.504 160.75 69.168C161.086 68.832 161.502 68.664 161.998 68.664C162.478 68.664 162.886 68.832 163.222 69.168C163.558 69.504 163.726 69.92 163.726 70.416C163.726 70.912 163.558 71.328 163.222 71.664C162.886 72 162.478 72.168 161.998 72.168ZM166.323 63.024C166.323 60.256 166.787 58.096 167.715 56.544C168.659 54.976 170.275 54.192 172.563 54.192C174.851 54.192 176.459 54.976 177.387 56.544C178.331 58.096 178.803 60.256 178.803 63.024C178.803 65.824 178.331 68.016 177.387 69.6C176.459 71.168 174.851 71.952 172.563 71.952C170.275 71.952 168.659 71.168 167.715 69.6C166.787 68.016 166.323 65.824 166.323 63.024ZM176.115 63.024C176.115 61.728 176.027 60.632 175.851 59.736C175.691 58.84 175.355 58.112 174.843 57.552C174.331 56.976 173.571 56.688 172.563 56.688C171.555 56.688 170.795 56.976 170.283 57.552C169.771 58.112 169.427 58.84 169.251 59.736C169.091 60.632 169.011 61.728 169.011 63.024C169.011 64.368 169.091 65.496 169.251 66.408C169.411 67.32 169.747 68.056 170.259 68.616C170.787 69.176 171.555 69.456 172.563 69.456C173.571 69.456 174.331 69.176 174.843 68.616C175.371 68.056 175.715 67.32 175.875 66.408C176.035 65.496 176.115 64.368 176.115 63.024ZM181.698 63.024C181.698 60.256 182.162 58.096 183.09 56.544C184.034 54.976 185.65 54.192 187.938 54.192C190.226 54.192 191.834 54.976 192.762 56.544C193.706 58.096 194.178 60.256 194.178 63.024C194.178 65.824 193.706 68.016 192.762 69.6C191.834 71.168 190.226 71.952 187.938 71.952C185.65 71.952 184.034 71.168 183.09 69.6C182.162 68.016 181.698 65.824 181.698 63.024ZM191.49 63.024C191.49 61.728 191.402 60.632 191.226 59.736C191.066 58.84 190.73 58.112 190.218 57.552C189.706 56.976 188.946 56.688 187.938 56.688C186.93 56.688 186.17 56.976 185.658 57.552C185.146 58.112 184.802 58.84 184.626 59.736C184.466 60.632 184.386 61.728 184.386 63.024C184.386 64.368 184.466 65.496 184.626 66.408C184.786 67.32 185.122 68.056 185.634 68.616C186.162 69.176 186.93 69.456 187.938 69.456C188.946 69.456 189.706 69.176 190.218 68.616C190.746 68.056 191.09 67.32 191.25 66.408C191.41 65.496 191.49 64.368 191.49 63.024Z" fill="black"/>
<path d="M29.112 72V65.832H27.24V64.296H29.112V62.328H27.24V60.792H29.112V54.864H31.608L33.888 60.792H36.72V54.864H38.616V60.792H40.488V62.328H38.616V64.296H40.488V65.832H38.616V72H36.096L33.816 65.832H30.984V72H29.112ZM30.984 64.296H33.24L32.52 62.328H30.936L30.984 64.296ZM36.72 68.616H36.816L36.744 65.832H35.736L36.72 68.616ZM30.936 60.792H31.944L30.936 57.816H30.84L30.936 60.792ZM35.16 64.296H36.768L36.72 62.328H34.44L35.16 64.296ZM53.4544 56.856H45.4144V61.632C45.7504 61.184 46.2464 60.808 46.9024 60.504C47.5744 60.2 48.2864 60.048 49.0384 60.048C50.3824 60.048 51.4704 60.336 52.3024 60.912C53.1504 61.488 53.7504 62.216 54.1024 63.096C54.4704 63.976 54.6544 64.904 54.6544 65.88C54.6544 67.064 54.4224 68.12 53.9584 69.048C53.5104 69.96 52.8304 70.68 51.9184 71.208C51.0224 71.736 49.9184 72 48.6064 72C46.8624 72 45.4624 71.568 44.4064 70.704C43.3504 69.84 42.7184 68.696 42.5104 67.272H45.1744C45.3504 68.024 45.7424 68.624 46.3504 69.072C46.9584 69.504 47.7184 69.72 48.6304 69.72C49.7664 69.72 50.6144 69.376 51.1744 68.688C51.7504 68 52.0384 67.088 52.0384 65.952C52.0384 64.8 51.7504 63.92 51.1744 63.312C50.5984 62.688 49.7504 62.376 48.6304 62.376C47.8464 62.376 47.1824 62.576 46.6384 62.976C46.1104 63.36 45.7264 63.888 45.4864 64.56H42.8944V54.456H53.4544V56.856ZM60.8625 68.712L57.9585 75.336H56.1825L57.8865 68.712H60.8625ZM62.8931 63.024C62.8931 60.256 63.3571 58.096 64.2851 56.544C65.2291 54.976 66.8451 54.192 69.1331 54.192C71.4211 54.192 73.0291 54.976 73.9571 56.544C74.9011 58.096 75.3731 60.256 75.3731 63.024C75.3731 65.824 74.9011 68.016 73.9571 69.6C73.0291 71.168 71.4211 71.952 69.1331 71.952C66.8451 71.952 65.2291 71.168 64.2851 69.6C63.3571 68.016 62.8931 65.824 62.8931 63.024ZM72.6851 63.024C72.6851 61.728 72.5971 60.632 72.4211 59.736C72.2611 58.84 71.9251 58.112 71.4131 57.552C70.9011 56.976 70.1411 56.688 69.1331 56.688C68.1251 56.688 67.3651 56.976 66.8531 57.552C66.3411 58.112 65.9971 58.84 65.8211 59.736C65.6611 60.632 65.5811 61.728 65.5811 63.024C65.5811 64.368 65.6611 65.496 65.8211 66.408C65.9811 67.32 66.3171 68.056 66.8291 68.616C67.3571 69.176 68.1251 69.456 69.1331 69.456C70.1411 69.456 70.9011 69.176 71.4131 68.616C71.9411 68.056 72.2851 67.32 72.4451 66.408C72.6051 65.496 72.6851 64.368 72.6851 63.024ZM78.2681 63.024C78.2681 60.256 78.7321 58.096 79.6601 56.544C80.6041 54.976 82.2201 54.192 84.5081 54.192C86.7961 54.192 88.4041 54.976 89.3321 56.544C90.2761 58.096 90.7481 60.256 90.7481 63.024C90.7481 65.824 90.2761 68.016 89.3321 69.6C88.4041 71.168 86.7961 71.952 84.5081 71.952C82.2201 71.952 80.6041 71.168 79.6601 69.6C78.7321 68.016 78.2681 65.824 78.2681 63.024ZM88.0601 63.024C88.0601 61.728 87.9721 60.632 87.7961 59.736C87.6361 58.84 87.3001 58.112 86.7881 57.552C86.2761 56.976 85.5161 56.688 84.5081 56.688C83.5001 56.688 82.7401 56.976 82.2281 57.552C81.7161 58.112 81.3721 58.84 81.1961 59.736C81.0361 60.632 80.9561 61.728 80.9561 63.024C80.9561 64.368 81.0361 65.496 81.1961 66.408C81.3561 67.32 81.6921 68.056 82.2041 68.616C82.7321 69.176 83.5001 69.456 84.5081 69.456C85.5161 69.456 86.2761 69.176 86.7881 68.616C87.3161 68.056 87.6601 67.32 87.8201 66.408C87.9801 65.496 88.0601 64.368 88.0601 63.024ZM93.6431 63.024C93.6431 60.256 94.1071 58.096 95.0351 56.544C95.9791 54.976 97.5951 54.192 99.8831 54.192C102.171 54.192 103.779 54.976 104.707 56.544C105.651 58.096 106.123 60.256 106.123 63.024C106.123 65.824 105.651 68.016 104.707 69.6C103.779 71.168 102.171 71.952 99.8831 71.952C97.5951 71.952 95.9791 71.168 95.0351 69.6C94.1071 68.016 93.6431 65.824 93.6431 63.024ZM103.435 63.024C103.435 61.728 103.347 60.632 103.171 59.736C103.011 58.84 102.675 58.112 102.163 57.552C101.651 56.976 100.891 56.688 99.8831 56.688C98.8751 56.688 98.1151 56.976 97.6031 57.552C97.0911 58.112 96.7471 58.84 96.5711 59.736C96.4111 60.632 96.3311 61.728 96.3311 63.024C96.3311 64.368 96.4111 65.496 96.5711 66.408C96.7311 67.32 97.0671 68.056 97.5791 68.616C98.1071 69.176 98.8751 69.456 99.8831 69.456C100.891 69.456 101.651 69.176 102.163 68.616C102.691 68.056 103.035 67.32 103.195 66.408C103.355 65.496 103.435 64.368 103.435 63.024ZM112.378 68.712L109.474 75.336H107.698L109.402 68.712H112.378ZM114.409 63.024C114.409 60.256 114.873 58.096 115.801 56.544C116.745 54.976 118.361 54.192 120.649 54.192C122.937 54.192 124.545 54.976 125.473 56.544C126.417 58.096 126.889 60.256 126.889 63.024C126.889 65.824 126.417 68.016 125.473 69.6C124.545 71.168 122.937 71.952 120.649 71.952C118.361 71.952 116.745 71.168 115.801 69.6C114.873 68.016 114.409 65.824 114.409 63.024ZM124.201 63.024C124.201 61.728 124.113 60.632 123.937 59.736C123.777 58.84 123.441 58.112 122.929 57.552C122.417 56.976 121.657 56.688 120.649 56.688C119.641 56.688 118.881 56.976 118.369 57.552C117.857 58.112 117.513 58.84 117.337 59.736C117.177 60.632 117.097 61.728 117.097 63.024C117.097 64.368 117.177 65.496 117.337 66.408C117.497 67.32 117.833 68.056 118.345 68.616C118.873 69.176 119.641 69.456 120.649 69.456C121.657 69.456 122.417 69.176 122.929 68.616C123.457 68.056 123.801 67.32 123.961 66.408C124.121 65.496 124.201 64.368 124.201 63.024ZM129.784 63.024C129.784 60.256 130.248 58.096 131.176 56.544C132.12 54.976 133.736 54.192 136.024 54.192C138.312 54.192 139.92 54.976 140.848 56.544C141.792 58.096 142.264 60.256 142.264 63.024C142.264 65.824 141.792 68.016 140.848 69.6C139.92 71.168 138.312 71.952 136.024 71.952C133.736 71.952 132.12 71.168 131.176 69.6C130.248 68.016 129.784 65.824 129.784 63.024ZM139.576 63.024C139.576 61.728 139.488 60.632 139.312 59.736C139.152 58.84 138.816 58.112 138.304 57.552C137.792 56.976 137.032 56.688 136.024 56.688C135.016 56.688 134.256 56.976 133.744 57.552C133.232 58.112 132.888 58.84 132.712 59.736C132.552 60.632 132.472 61.728 132.472 63.024C132.472 64.368 132.552 65.496 132.712 66.408C132.872 67.32 133.208 68.056 133.72 68.616C134.248 69.176 135.016 69.456 136.024 69.456C137.032 69.456 137.792 69.176 138.304 68.616C138.832 68.056 139.176 67.32 139.336 66.408C139.496 65.496 139.576 64.368 139.576 63.024ZM145.159 63.024C145.159 60.256 145.623 58.096 146.551 56.544C147.495 54.976 149.111 54.192 151.399 54.192C153.687 54.192 155.295 54.976 156.223 56.544C157.167 58.096 157.639 60.256 157.639 63.024C157.639 65.824 157.167 68.016 156.223 69.6C155.295 71.168 153.687 71.952 151.399 71.952C149.111 71.952 147.495 71.168 146.551 69.6C145.623 68.016 145.159 65.824 145.159 63.024ZM154.951 63.024C154.951 61.728 154.863 60.632 154.687 59.736C154.527 58.84 154.191 58.112 153.679 57.552C153.167 56.976 152.407 56.688 151.399 56.688C150.391 56.688 149.631 56.976 149.119 57.552C148.607 58.112 148.263 58.84 148.087 59.736C147.927 60.632 147.847 61.728 147.847 63.024C147.847 64.368 147.927 65.496 148.087 66.408C148.247 67.32 148.583 68.056 149.095 68.616C149.623 69.176 150.391 69.456 151.399 69.456C152.407 69.456 153.167 69.176 153.679 68.616C154.207 68.056 154.551 67.32 154.711 66.408C154.871 65.496 154.951 64.368 154.951 63.024ZM161.998 72.168C161.502 72.168 161.086 72 160.75 71.664C160.414 71.328 160.246 70.912 160.246 70.416C160.246 69.92 160.414 69.504 160.75 69.168C161.086 68.832 161.502 68.664 161.998 68.664C162.478 68.664 162.886 68.832 163.222 69.168C163.558 69.504 163.726 69.92 163.726 70.416C163.726 70.912 163.558 71.328 163.222 71.664C162.886 72 162.478 72.168 161.998 72.168ZM166.323 63.024C166.323 60.256 166.787 58.096 167.715 56.544C168.659 54.976 170.275 54.192 172.563 54.192C174.851 54.192 176.459 54.976 177.387 56.544C178.331 58.096 178.803 60.256 178.803 63.024C178.803 65.824 178.331 68.016 177.387 69.6C176.459 71.168 174.851 71.952 172.563 71.952C170.275 71.952 168.659 71.168 167.715 69.6C166.787 68.016 166.323 65.824 166.323 63.024ZM176.115 63.024C176.115 61.728 176.027 60.632 175.851 59.736C175.691 58.84 175.355 58.112 174.843 57.552C174.331 56.976 173.571 56.688 172.563 56.688C171.555 56.688 170.795 56.976 170.283 57.552C169.771 58.112 169.427 58.84 169.251 59.736C169.091 60.632 169.011 61.728 169.011 63.024C169.011 64.368 169.091 65.496 169.251 66.408C169.411 67.32 169.747 68.056 170.259 68.616C170.787 69.176 171.555 69.456 172.563 69.456C173.571 69.456 174.331 69.176 174.843 68.616C175.371 68.056 175.715 67.32 175.875 66.408C176.035 65.496 176.115 64.368 176.115 63.024ZM181.698 63.024C181.698 60.256 182.162 58.096 183.09 56.544C184.034 54.976 185.65 54.192 187.938 54.192C190.226 54.192 191.834 54.976 192.762 56.544C193.706 58.096 194.178 60.256 194.178 63.024C194.178 65.824 193.706 68.016 192.762 69.6C191.834 71.168 190.226 71.952 187.938 71.952C185.65 71.952 184.034 71.168 183.09 69.6C182.162 68.016 181.698 65.824 181.698 63.024ZM191.49 63.024C191.49 61.728 191.402 60.632 191.226 59.736C191.066 58.84 190.73 58.112 190.218 57.552C189.706 56.976 188.946 56.688 187.938 56.688C186.93 56.688 186.17 56.976 185.658 57.552C185.146 58.112 184.802 58.84 184.626 59.736C184.466 60.632 184.386 61.728 184.386 63.024C184.386 64.368 184.466 65.496 184.626 66.408C184.786 67.32 185.122 68.056 185.634 68.616C186.162 69.176 186.93 69.456 187.938 69.456C188.946 69.456 189.706 69.176 190.218 68.616C190.746 68.056 191.09 67.32 191.25 66.408C191.41 65.496 191.49 64.368 191.49 63.024Z" fill="#131313"/>
<g clip-path="url(#clip1_334_2683)">
<mask id="mask0_334_2683" style="mask-type:luminance" maskUnits="userSpaceOnUse" x="156" y="13" width="141" height="141">
<path d="M156 13H297V154H156V13Z" fill="white"/>
</mask>
<g mask="url(#mask0_334_2683)">
<path d="M225.861 108.299C230.279 106.456 232.37 101.372 230.527 96.9531C228.683 92.5344 223.599 90.4436 219.18 92.2871C214.762 94.1305 212.671 99.2148 214.514 103.633C216.358 108.052 221.442 110.143 225.861 108.299Z" fill="white"/>
<path d="M225.861 108.299C230.279 106.456 232.37 101.372 230.527 96.9531C228.683 92.5344 223.599 90.4436 219.18 92.2871C214.762 94.1305 212.671 99.2148 214.514 103.633C216.358 108.052 221.442 110.143 225.861 108.299Z" stroke="#25CD25" stroke-width="3.5673"/>
<path d="M224.017 104.109L220.76 96.3016" stroke="#25CD25" stroke-width="3.5673"/>
<path d="M224.103 109.23C228.819 108.404 231.978 103.905 231.152 99.1886C230.327 94.4726 225.827 91.3139 221.111 92.1395C216.395 92.9651 213.237 97.4645 214.062 102.181C214.888 106.897 219.387 110.055 224.103 109.23Z" fill="white"/>
<path d="M224.103 109.23C228.819 108.404 231.978 103.905 231.152 99.1886C230.327 94.4726 225.827 91.3139 221.111 92.1395C216.395 92.9651 213.237 97.4645 214.062 102.181C214.888 106.897 219.387 110.055 224.103 109.23Z" stroke="#25CD25" stroke-width="3.5673"/>
<path d="M223.227 104.737L221.768 96.4035" stroke="#25CD25" stroke-width="3.5673"/>
<path d="M252.564 113.226C252.568 104.848 250.141 99.1262 246.054 93.6867C240.688 85.7532 230.272 73.6857 245.646 62.8955C225.449 64.4848 220.153 64.309 200.158 62.8955C215.532 73.6857 205.116 85.7532 199.751 93.6867C195.663 99.1262 193.242 104.851 193.245 113.224C193.249 128.471 208.062 136.118 222.887 136.125C237.724 136.129 252.557 128.5 252.564 113.226Z" fill="#FEFEFE"/>
<path d="M252.564 113.226C252.568 104.848 250.141 99.1262 246.054 93.6867C240.688 85.7532 230.272 73.6857 245.646 62.8955C225.449 64.4848 220.153 64.309 200.158 62.8955C215.532 73.6857 205.116 85.7532 199.751 93.6867C195.663 99.1262 193.242 104.851 193.245 113.224C193.249 128.471 208.062 136.118 222.887 136.125C237.724 136.129 252.557 128.5 252.564 113.226Z" stroke="#25CD25" stroke-width="4.08371" stroke-linecap="round" stroke-linejoin="round"/>
<path d="M240.257 78.854C227.766 78.9883 216.783 78.9882 205.389 79.1227" stroke="#25CD25" stroke-width="7.2615" stroke-linecap="round" stroke-linejoin="round"/>
<path d="M262.167 105.19L267.589 139.917" stroke="#25CD25" stroke-width="8.16725" stroke-miterlimit="10" stroke-linecap="round"/>
<path d="M255.176 114.711C236.683 109.885 239.518 122.8 220.062 122.8C212.114 122.798 211.008 134.41 220.531 134.112C229.145 133.843 239.217 130.34 239.217 130.34C226.565 134.365 215.179 136.475 209.343 130.644C196.232 117.548 189.458 127.166 191.116 128.943C198.306 136.652 205.841 142.404 212.815 145.523C217.66 147.69 221.622 146.587 227.033 145.262C241.028 141.834 258.43 135.71 258.43 135.71L255.176 114.711Z" fill="#25CD25"/>
<path d="M255.176 114.711C236.683 109.885 239.518 122.8 220.062 122.8C212.114 122.798 211.008 134.41 220.531 134.112C229.145 133.843 239.217 130.34 239.217 130.34C226.565 134.365 215.179 136.475 209.343 130.644C196.232 117.548 189.458 127.166 191.116 128.943C198.306 136.652 205.841 142.404 212.815 145.523C217.66 147.69 221.622 146.587 227.033 145.262C241.028 141.834 258.43 135.71 258.43 135.71L255.176 114.711Z" stroke="#292828" stroke-width="4.08371" stroke-linecap="round" stroke-linejoin="round"/>
</g>
<path d="M211.974 117.429V107.478H209.638V104.497H211.974V101.596H209.638V98.6153H211.974V88.6647H218.299L221.441 98.6153H225.107V88.6647H229.579V98.6153H231.875V101.596H229.579V104.497H231.875V107.478H229.579V117.429H223.214L219.991 107.478H216.446V117.429H211.974ZM216.446 104.497H219.105L218.218 101.596H216.365L216.446 104.497ZM225.228 111.144H225.43L225.268 107.478H224.181L225.228 111.144ZM216.285 98.6153H217.413L216.244 94.7479H216.083L216.285 98.6153ZM223.335 104.497H225.188L225.107 101.596H222.408L223.335 104.497Z" fill="#25CD25"/>
<path d="M211.974 117.429V107.478H209.638V104.497H211.974V101.596H209.638V98.6153H211.974V88.6647H218.299L221.441 98.6153H225.107V88.6647H229.579V98.6153H231.875V101.596H229.579V104.497H231.875V107.478H229.579V117.429H223.214L219.991 107.478H216.446V117.429H211.974ZM216.446 104.497H219.105L218.218 101.596H216.365L216.446 104.497ZM225.228 111.144H225.43L225.268 107.478H224.181L225.228 111.144ZM216.285 98.6153H217.413L216.244 94.7479H216.083L216.285 98.6153ZM223.335 104.497H225.188L225.107 101.596H222.408L223.335 104.497Z" fill="#25CD25"/>
</g>
</g>
<rect x="0.5" y="0.5" width="295" height="158" rx="13.5" stroke="#D1D1D6"/>
<defs>
<clipPath id="clip0_334_2683">
<rect width="296" height="159" rx="14" fill="white"/>
</clipPath>
<clipPath id="clip1_334_2683">
<rect width="141" height="141" fill="white" transform="matrix(-1 0 0 1 297 13)"/>
</clipPath>
</defs>
</svg>
