<svg width="60" height="60" viewBox="0 0 60 60" fill="none" xmlns="http://www.w3.org/2000/svg">
<rect width="60" height="60" rx="30" fill="#03442C"/>
<g clip-path="url(#clip0_795_4424)">
<path fill-rule="evenodd" clip-rule="evenodd" d="M21.7853 16.5198L23.7933 18.5277C20.9288 20.5638 19.019 23.8215 18.8084 27.5427H16C16.1966 23.0492 18.4152 19.0894 21.7853 16.5198ZM38.2145 16.5198C41.5706 19.0894 43.7892 23.0492 43.9998 27.5427H41.1915C40.9808 23.8216 39.0571 20.5639 36.2206 18.5277L38.2145 16.5198ZM32.1063 18.4155L32.1062 19.3703C36.1223 20.3251 38.4252 23.934 38.4252 28.2448V35.2658L41.2335 38.0743V39.4784L18.7663 39.4785V38.0743L21.5747 35.2659V28.2449C21.5747 23.9199 23.8635 20.3251 27.8936 19.3703V18.4155C27.8936 17.2499 28.8345 16.3091 30 16.3091C31.1654 16.3091 32.1063 17.25 32.1063 18.4155ZM27.1775 40.8827H32.7943C32.7943 41.2759 32.7241 41.641 32.5837 41.978C32.2186 42.8205 31.4744 43.4383 30.5617 43.635C30.3791 43.6771 30.1966 43.6911 30 43.6912C28.4413 43.6912 27.1916 42.4273 27.1775 40.8828V40.8827Z" fill="white"/>
</g>
<defs>
<clipPath id="clip0_795_4424">
<rect width="28" height="28" fill="white" transform="translate(16 16)"/>
</clipPath>
</defs>
</svg>
