<svg width="417" height="417" viewBox="0 0 417 417" fill="none" xmlns="http://www.w3.org/2000/svg">
<path d="M416.019 208.01C416.019 322.89 322.89 416.019 208.01 416.019C93.129 416.019 0 322.89 0 208.01C0 93.129 93.129 0 208.01 0C322.89 0 416.019 93.129 416.019 208.01ZM74.2309 208.01C74.2309 281.893 134.126 341.788 208.01 341.788C281.893 341.788 341.788 281.893 341.788 208.01C341.788 134.126 281.893 74.2309 208.01 74.2309C134.126 74.2309 74.2309 134.126 74.2309 208.01Z" fill="#80BE41"/>
<path d="M416.019 208.01C416.019 322.89 322.89 416.019 208.01 416.019C93.129 416.019 0 322.89 0 208.01C0 93.129 93.129 0 208.01 0C322.89 0 416.019 93.129 416.019 208.01ZM74.2309 208.01C74.2309 281.893 134.126 341.788 208.01 341.788C281.893 341.788 341.788 281.893 341.788 208.01C341.788 134.126 281.893 74.2309 208.01 74.2309C134.126 74.2309 74.2309 134.126 74.2309 208.01Z" fill="url(#paint0_linear_453_925)" fill-opacity="0.2"/>
<path d="M205.796 91.3652C207.626 91.3652 209.456 91.3652 211.342 91.3652C211.342 93.1952 211.342 95.0252 211.342 96.9107C223.542 96.9107 235.742 96.9107 248.311 96.9107C248.311 104.841 248.311 112.771 248.311 120.941C236.111 120.941 223.911 120.941 211.342 120.941C211.452 127.004 211.563 133.067 211.693 139.315C211.693 141.182 211.711 143.067 211.73 144.99C212.155 157.818 215.353 165.822 222.432 176.396C223.745 178.392 225.057 180.388 226.407 182.459C229.512 187.154 232.655 191.849 235.797 196.526C240.991 204.215 246.112 211.96 251.213 219.724C252.101 221.073 252.988 222.423 253.894 223.809C258.681 231.092 263.469 238.394 268.256 245.677C277.795 260.243 287.37 274.79 297.148 289.19C301.492 295.604 305.799 302.019 310.125 308.433C312.195 311.501 314.265 314.57 316.372 317.62C319.293 321.871 322.177 326.16 325.042 330.448C325.911 331.687 326.779 332.944 327.685 334.219C331.937 340.67 333.36 343.665 333.249 351.632C328.998 365.995 311.991 373.111 299.533 379.932C289.625 385.145 279.236 389.045 268.645 392.668C266.186 393.592 266.186 393.592 263.672 394.535C246.629 399.637 230.085 400.654 212.321 400.543C208.569 400.524 204.835 400.543 201.082 400.561C180.25 400.524 161.858 397.936 142.375 390.598C140.859 390.025 139.362 389.47 137.809 388.879C118.899 381.577 95.2382 371.337 81.9476 355.699C80.4503 346.622 84.8313 341.095 89.8776 334.016C91.5782 331.539 93.2973 329.043 95.0164 326.566C95.9037 325.272 96.8094 323.979 97.7337 322.648C102.115 316.27 106.348 309.801 110.599 303.312C112.374 300.595 114.167 297.878 115.96 295.161C117.827 292.314 119.694 289.467 121.579 286.602C125.627 280.465 129.657 274.31 133.705 268.154C134.759 266.565 135.794 264.975 136.866 263.348C144.759 251.352 152.652 239.373 160.564 227.377C162.856 223.902 165.148 220.426 167.44 216.951C170.767 211.886 174.113 206.84 177.44 201.775C180.546 197.08 183.633 192.403 186.72 187.708C187.644 186.322 188.55 184.936 189.492 183.512C191.156 180.98 192.801 178.466 194.446 175.915C196.184 173.272 198.014 170.702 199.881 168.151C203.134 161.238 202.949 154.805 202.986 147.245C203.005 145.711 203.042 144.176 203.06 142.587C203.153 137.67 203.208 132.771 203.245 127.873C203.319 122.937 203.393 118.02 203.485 113.085C203.522 110.016 203.578 106.966 203.596 103.898C203.744 93.4171 203.744 93.4171 205.796 91.3652Z" fill="#020202"/>
<path d="M336.179 63.3707C373.038 95.4419 397.993 138.53 403.575 187.478C406.607 241.491 393.556 289.366 360.025 332.399C354.387 338.425 350.69 338.739 342.575 339.054C332.057 324.303 322.094 309.201 312.204 294.006C309.949 290.549 307.694 287.093 305.421 283.636C303.942 281.362 302.481 279.107 301.003 276.834C297.454 271.381 293.867 265.983 290.134 260.659C288.766 258.719 287.416 256.778 286.03 254.763C284.81 253.062 283.59 251.362 282.351 249.587C279.468 244.282 278.95 241.491 279.727 235.539C282.518 230.104 282.518 230.104 286.326 224.226C286.991 223.191 287.657 222.156 288.341 221.083C289.708 218.939 291.095 216.813 292.5 214.688C294.441 211.656 296.289 208.569 298.119 205.501C299.228 203.671 300.319 201.841 301.446 199.955C302.444 198.31 303.424 196.665 304.422 194.964C307.454 191.175 307.454 191.175 310.966 189.142C316.142 189.4 318.175 191.711 321.558 195.463C326.604 201.656 331.318 208.052 335.994 214.521C338.268 217.645 340.542 220.751 342.815 223.875C344.571 226.278 344.571 226.278 346.364 228.736C352.391 236.999 358.454 245.225 364.535 253.45C366.716 256.426 368.916 259.402 371.097 262.379C372.021 263.617 372.946 264.874 373.888 266.149C374.535 267.037 375.182 267.906 375.848 268.811C392.761 228.625 390.654 183.097 374.997 142.652C357.252 99.6749 323.203 66.2728 280.651 48.1577C276.658 46.5125 272.665 44.9044 268.636 43.2962C267.138 42.6492 265.623 42.0022 264.051 41.3368C222.645 25.9204 172.441 31.2256 132.883 49.2668C88.7227 70.4319 55.9306 105.83 39.017 151.765C23.9888 195.463 28.1848 237.738 44.9691 279.902C53.0839 272.231 59.7939 263.802 66.5778 254.948C67.7054 253.487 68.833 252.027 69.9975 250.53C73.3803 246.149 76.7445 241.786 80.0903 237.387C82.863 233.783 85.6542 230.178 88.4269 226.573C90.7006 223.597 92.9927 220.621 95.2663 217.627C99.9615 211.582 99.9615 211.582 104.768 210.88C109.666 211.508 109.666 211.508 113.086 215.039C114.102 216.629 115.101 218.2 116.136 219.826C117.226 221.527 118.317 223.209 119.445 224.947C120.498 226.61 121.533 228.274 122.605 229.993C123.567 231.379 124.509 232.766 125.489 234.189C133.345 245.835 133.345 245.835 131.848 254.023C129.999 255.872 129.999 255.872 125.766 256.63C120.757 255.872 120.757 255.872 116.635 251.436C114.731 248.607 114.731 248.607 112.79 245.705C111.496 243.82 110.221 241.934 108.89 239.993C107.928 238.533 106.967 237.054 105.969 235.539C97.5584 243.487 90.5342 252.304 83.4545 261.417C81.6984 263.636 81.6984 263.636 79.9239 265.872C78.8148 267.296 77.7057 268.737 76.5597 270.198C75.543 271.492 74.5448 272.786 73.5097 274.098C70.663 278.349 68.8885 282.509 67.1509 287.296C68.9809 286.686 70.8109 286.076 72.6963 285.448C78.7963 285.392 84.8594 285.577 90.9594 285.743C96.6527 285.466 99.2775 284.486 104.121 281.751C105.951 281.751 107.781 281.751 109.666 281.751C108.945 291.64 103.326 297.722 97.429 305.208C95.4142 307.833 93.3994 310.458 91.3845 313.082C90.4048 314.358 89.4066 315.633 88.4085 316.946C82.937 324.155 77.7982 331.586 72.6963 339.054C62.5297 337.852 58.9621 333.434 52.5663 325.819C21.8261 284.468 7.88845 232.858 14.4136 181.637C20.2363 143.891 37.797 108.418 63.4539 80.2659C64.7294 78.861 65.9863 77.4377 67.2987 75.9774C91.5878 50.2095 123.862 32.5934 157.727 22.9628C159.058 22.5747 160.37 22.1865 161.738 21.7798C222.479 4.9586 288.692 24.1274 336.179 63.3707Z" fill="#070707"/>
<path d="M205.796 187.486C207.626 187.486 209.456 187.486 211.341 187.486C214.281 191.405 214.281 191.405 217.423 196.858C218.551 198.818 219.678 200.777 220.843 202.81C222.026 204.881 223.19 206.951 224.392 209.095C225.575 211.128 226.758 213.162 227.959 215.269C232.821 223.735 237.479 231.924 240.917 241.092C239.549 241.055 238.2 241 236.795 240.963C234.096 240.908 234.096 240.908 231.324 240.871C229.549 240.815 227.775 240.778 225.926 240.723C220.307 241.111 216.517 242.645 211.341 244.789C206.924 245.214 206.924 245.214 202.672 245.141C201.267 245.122 199.844 245.104 198.384 245.104C194.705 244.789 194.705 244.789 191.008 242.941C188.476 242.811 185.925 242.793 183.392 242.83C179.843 242.885 179.843 242.885 176.22 242.941C177.791 231.591 183.91 222.922 189.751 213.254C191.711 210.001 193.633 206.729 195.537 203.457C196.775 201.424 197.995 199.372 199.252 197.265C200.935 194.455 200.935 194.455 202.654 191.59C203.689 190.222 204.724 188.873 205.796 187.486Z" fill="url(#paint1_linear_453_925)"/>
<path d="M311.16 213.365C312.38 213.365 313.6 213.365 314.856 213.365C317.648 216.526 317.648 216.526 320.883 220.925C322.029 222.478 323.193 224.049 324.376 225.676C325.578 227.321 326.779 228.985 328.018 230.704C329.238 232.33 330.458 233.976 331.715 235.676C340.735 248.006 340.735 248.006 340.735 252.183C322.805 255.954 309.2 254.512 292.675 246.638C295.503 238.819 299.422 231.868 303.766 224.807C304.431 223.698 305.078 222.589 305.762 221.461C307.444 218.689 309.293 216.027 311.16 213.365Z" fill="url(#paint2_linear_453_925)"/>
<path d="M211.341 96.9106C223.541 96.9106 235.741 96.9106 248.311 96.9106C248.311 104.841 248.311 112.771 248.311 120.941C236.111 120.941 223.911 120.941 211.341 120.941C211.341 113.011 211.341 105.081 211.341 96.9106Z" fill="#80BE41"/>
<path d="M252.008 111.698C257.498 111.698 262.988 111.698 268.644 111.698C268.071 115.137 268.071 115.137 267.498 118.63C266.685 124.86 266.741 128.575 270.493 133.88C267.609 136.764 264.837 135.969 260.844 135.969C258.496 135.969 258.496 135.969 256.093 135.988C253.616 135.969 253.616 135.969 251.084 135.951C249.439 135.969 247.775 135.969 246.074 135.988C244.503 135.988 242.932 135.969 241.324 135.969C239.864 135.969 238.422 135.969 236.924 135.969C233.523 135.729 233.523 135.729 231.675 133.88C231.601 130.183 231.601 126.486 231.675 122.789C237.775 122.179 243.875 121.569 250.16 120.941C250.77 117.891 251.38 114.841 252.008 111.698Z" fill="#80BE41"/>
<defs>
<linearGradient id="paint0_linear_453_925" x1="208.01" y1="0" x2="208.01" y2="416.019" gradientUnits="userSpaceOnUse">
<stop stop-color="#80BE41"/>
<stop offset="0.432363" stop-color="white"/>
</linearGradient>
<linearGradient id="paint1_linear_453_925" x1="208.569" y1="187.486" x2="208.569" y2="244.942" gradientUnits="userSpaceOnUse">
<stop stop-color="#25CD25" stop-opacity="0.4"/>
<stop offset="1" stop-color="#25CD25" stop-opacity="0"/>
</linearGradient>
<linearGradient id="paint2_linear_453_925" x1="316.705" y1="213.365" x2="316.705" y2="254.008" gradientUnits="userSpaceOnUse">
<stop stop-color="#25CD25" stop-opacity="0.4"/>
<stop offset="1" stop-color="#25CD25" stop-opacity="0"/>
</linearGradient>
</defs>
</svg>
