<svg width="417" height="417" viewBox="0 0 417 417" fill="none" xmlns="http://www.w3.org/2000/svg">
<path d="M416.019 208.01C416.019 322.89 322.89 416.019 208.01 416.019C93.129 416.019 0 322.89 0 208.01C0 93.129 93.129 0 208.01 0C322.89 0 416.019 93.129 416.019 208.01ZM74.2309 208.01C74.2309 281.893 134.126 341.788 208.01 341.788C281.893 341.788 341.788 281.893 341.788 208.01C341.788 134.126 281.893 74.2309 208.01 74.2309C134.126 74.2309 74.2309 134.126 74.2309 208.01Z" fill="#80BE41"/>
<path d="M416.019 208.01C416.019 322.89 322.89 416.019 208.01 416.019C93.129 416.019 0 322.89 0 208.01C0 93.129 93.129 0 208.01 0C322.89 0 416.019 93.129 416.019 208.01ZM74.2309 208.01C74.2309 281.893 134.126 341.788 208.01 341.788C281.893 341.788 341.788 281.893 341.788 208.01C341.788 134.126 281.893 74.2309 208.01 74.2309C134.126 74.2309 74.2309 134.126 74.2309 208.01Z" fill="url(#paint0_linear_453_870)" fill-opacity="0.2"/>
<path d="M151.865 169.689C153.211 169.673 154.557 169.656 155.953 169.656C160.423 169.606 164.892 169.573 169.379 169.556C171.655 169.54 171.655 169.54 173.998 169.523C182.074 169.49 190.149 169.456 198.241 169.423C206.583 169.407 214.924 169.324 223.282 169.24C229.696 169.191 236.11 169.174 242.524 169.157C245.598 169.141 248.689 169.124 251.763 169.074C256.066 169.024 260.37 169.024 264.674 169.041C265.953 169.008 267.216 168.991 268.529 168.958C275.125 169.041 278 169.689 283.151 173.96C284.314 175.405 285.494 176.834 286.69 178.313C288.634 180.373 288.634 180.373 290.612 182.484C298.903 191.573 306.863 200.845 314.589 210.416C319.358 216.182 324.376 221.698 329.428 227.232C334.911 233.396 340.079 239.777 345.263 246.191C347.872 249.531 347.872 249.531 349.833 251.425C350.547 255.911 350.547 255.911 349.833 261.395C346.675 265.117 343.851 267.958 340.178 271.066C338.7 272.362 338.7 272.362 337.204 273.674C329.727 280.221 322.05 286.502 314.29 292.733C309.953 296.289 305.799 299.995 301.645 303.767C296.128 308.801 290.512 313.62 284.713 318.306C277.319 324.304 270.091 330.453 262.912 336.7C261.866 337.598 260.819 338.511 259.739 339.459C257.595 341.32 255.468 343.164 253.325 345.025C245.365 351.954 237.406 358.867 229.331 365.663C227.171 367.49 225.027 369.351 222.883 371.196C217.865 375.317 214.26 377.527 207.979 379.271C199.837 377.161 195.732 372.791 189.767 367.025C185.414 362.838 180.911 359.049 176.191 355.277C170.226 350.442 164.427 345.507 158.744 340.323C153.228 335.305 147.611 330.486 141.812 325.783C132.225 318.023 122.919 309.948 113.631 301.839C108.447 297.336 103.262 292.883 98.0447 288.43C95.1534 285.954 92.2622 283.478 89.3876 280.986C85.8981 277.995 82.3921 275.037 78.8195 272.129C77.3075 270.85 75.7788 269.57 74.2168 268.257C72.8709 267.161 71.5416 266.064 70.179 264.951C67.3543 261.395 67.3543 261.395 66.324 256.709C67.8029 249.165 71.741 245.294 76.9087 239.794C78.9026 237.584 80.9132 235.374 82.9072 233.164C83.9208 232.05 84.9344 230.937 85.9812 229.791C90.4344 224.872 94.738 219.821 99.0251 214.769C100.653 212.858 102.282 210.964 103.927 209.053C104.724 208.106 105.539 207.159 106.369 206.195C109.028 203.088 111.687 199.997 114.345 196.907C115.243 195.86 116.14 194.813 117.054 193.75C118.765 191.756 120.477 189.778 122.172 187.801C125.711 183.68 129.184 179.543 132.524 175.256C137.974 168.642 143.856 169.739 151.865 169.689Z" fill="#070707"/>
<path d="M205.272 37.0789C209.077 37.378 209.077 37.378 213.581 38.7405C216.522 42.4958 216.522 42.4958 219.197 47.2481C228.053 61.9702 238.007 69.863 252.662 78.8026C256.783 81.9431 256.783 81.9431 258.195 85.6651C258.279 86.6289 258.362 87.5926 258.445 88.5896C257.398 89.2875 256.351 90.002 255.271 90.7331C237.425 102.963 222.47 115.874 211.919 135.115C208.114 134.816 208.114 134.816 203.611 133.454C200.67 129.699 200.67 129.699 197.994 124.946C189.138 110.224 179.185 102.331 164.529 93.3917C160.009 89.9355 159.727 88.9219 158.747 83.6047C160.508 82.3585 162.269 81.1122 164.097 79.8328C177.556 70.1454 189.238 60.9732 198.626 47.0487C199.739 45.4369 199.739 45.4369 200.886 43.8085C202.398 41.5985 203.843 39.3387 205.272 37.0789Z" fill="black"/>
<path d="M353.158 106.867C356.049 107.067 356.049 107.067 359.805 108.529C362.364 111.852 364.557 115.059 366.767 118.599C376.753 133.803 389.299 143.806 404.669 153.393C404.37 157.198 404.37 157.198 403.007 161.701C399.318 164.593 399.318 164.593 394.599 167.201C379.778 176.124 370.987 186.244 362.696 201.381C359.805 204.904 359.805 204.904 355.651 205.934C351.496 204.904 351.496 204.904 348.605 201.381C347.741 199.803 346.877 198.224 345.996 196.596C336.027 179.896 322.883 170.226 306.632 160.04C306.832 156.334 306.832 156.334 308.294 151.732C311.634 149.04 314.724 146.88 318.363 144.67C333.617 134.75 343.57 122.238 353.158 106.867Z" fill="black"/>
<path d="M59.0482 106.867C62.0392 107.167 62.0392 107.167 65.6948 108.529C68.4199 112.218 68.4199 112.218 71.0951 116.937C81.2145 133.487 94.3414 143.224 110.559 153.393C110.243 157.215 110.243 157.215 108.897 161.701C105.258 164.526 105.258 164.526 100.589 167.102C85.8504 175.958 75.7809 186.344 68.154 201.797C65.6948 204.904 65.6948 204.904 61.6902 205.984C55.4092 204.406 53.4817 200.202 50.3246 194.934C41.1025 180.628 30.1191 170.973 15.2641 162.566C12.5224 160.04 12.5224 160.04 11.6417 155.886C12.5224 151.732 12.5224 151.732 15.6961 149.156C17.1085 148.425 18.5375 147.694 19.9998 146.946C37.8291 136.976 47.7989 123.5 59.0482 106.867Z" fill="black"/>
<path d="M376.421 194.934C378.614 195.483 380.808 196.031 383.068 196.596C384.546 247.16 369.941 290.578 334.88 327.865C317.616 345.562 297.859 358.29 275.061 367.745C273.183 368.642 271.289 369.523 269.345 370.436C246.232 379.376 246.232 379.376 236.843 376.053C237.458 370.569 239.685 366.881 243.689 363.109C247.777 360.467 251.782 359.403 256.467 358.09C292.442 347.921 325.741 323.628 344.85 291.309C358.558 266.717 367.166 242.573 368.744 214.243C369.326 205.835 370.938 201.298 376.421 194.934Z" fill="white"/>
<path d="M35.7852 194.934C37.4302 194.934 39.0752 194.934 40.7701 194.934C47.6326 202.827 48.4801 209.573 49.0782 219.759C51.9695 253.823 63.8336 283.267 85.6343 309.587C86.4152 310.634 87.1796 311.681 87.9772 312.744C106.671 337.038 137.843 352.707 166.772 360.649C172.937 363.109 176.177 365.95 180.348 371.068C180.348 372.713 180.348 374.358 180.348 376.053C150.305 378.695 117.92 358.871 95.4711 340.361C73.2717 321.219 57.7852 299.617 45.755 273.031C44.9075 271.17 44.0435 269.293 43.1794 267.382C34.2232 245.116 31.7141 220.407 34.1235 196.596C34.6719 196.048 35.2202 195.499 35.7852 194.934Z" fill="white"/>
<path d="M231.859 191.611C265.507 188.62 265.507 188.62 275.41 195.101C279.099 199.836 282.04 204.688 285.031 209.889C287.49 212.764 290.016 215.556 292.608 218.297C313.279 241.012 313.279 241.012 313.279 244.784C295.184 244.784 277.088 244.784 258.445 244.784C250.751 230.145 250.751 230.145 248.276 225.392C243.457 216.237 238.538 207.148 233.454 198.142C231.859 194.935 231.859 194.935 231.859 191.611Z" fill="url(#paint1_linear_453_870)"/>
<path d="M166.743 190.988C169.418 191.055 169.418 191.055 172.16 191.121C176.547 191.238 180.933 191.404 185.337 191.62C183.094 196.422 180.834 201.241 178.574 206.043C177.959 207.372 177.344 208.701 176.713 210.064C171.13 221.928 164.998 233.177 158.751 244.792C140.655 244.792 122.56 244.792 103.917 244.792C107.722 238.428 110.829 234.075 115.747 228.791C122.527 221.396 128.941 213.769 135.255 205.976C136.418 204.514 137.598 203.069 138.811 201.59C139.924 199.762 141.037 197.951 142.167 196.09C148.382 188.662 157.886 190.573 166.743 190.988Z" fill="url(#paint2_linear_453_870)"/>
<path d="M193.641 191.611C202.963 191.611 212.284 191.611 221.889 191.611C227.256 204.505 230.263 217.965 233.52 231.49C234.617 235.877 235.714 240.264 236.843 244.783C218.2 244.783 199.556 244.783 180.348 244.783C182.541 233.833 184.867 223.282 187.925 212.581C188.656 210.022 189.387 207.446 190.118 204.871C190.434 203.758 190.75 202.644 191.082 201.498C191.996 198.208 192.81 194.918 193.641 191.611Z" fill="url(#paint3_linear_453_870)"/>
<path d="M182.009 268.046C199.556 268.046 217.103 268.046 235.182 268.046C232.091 278.365 228.967 288.518 225.345 298.637C224.697 300.481 224.697 300.481 224.032 302.376C222.653 306.231 221.291 310.086 219.911 313.941C218.981 316.599 218.034 319.241 217.103 321.883C214.827 328.314 212.55 334.728 210.257 341.158C209.161 341.158 208.064 341.158 206.934 341.158C203.378 331.288 199.822 321.401 196.283 311.531C195.07 308.158 193.874 304.802 192.661 301.445C190.916 296.61 189.188 291.791 187.46 286.956C186.911 285.443 186.38 283.948 185.815 282.386C185.316 280.99 184.818 279.595 184.302 278.149C183.638 276.304 183.638 276.304 182.957 274.41C182.009 271.369 182.009 271.369 182.009 268.046Z" fill="url(#paint4_linear_453_870)"/>
<path d="M263.811 266.537C266.769 266.637 266.769 266.637 269.793 266.753C271.937 266.786 274.097 266.836 276.307 266.886C278.55 266.986 280.81 267.102 283.053 267.218C285.346 267.285 287.623 267.335 289.916 267.401C295.482 267.551 301.065 267.767 306.632 268.049C301.414 274.596 296.33 279.98 289.7 285.181C283.535 290.116 277.57 295.134 271.737 300.451C264.775 306.782 257.597 312.731 250.286 318.646C242.842 324.711 235.663 331.075 228.452 337.423C227.438 338.303 226.408 339.2 225.361 340.114C224.447 340.929 223.533 341.726 222.603 342.54C220.227 344.485 220.227 344.485 216.903 346.146C219.629 338.835 223.151 332.006 226.807 325.126C227.438 323.93 228.086 322.717 228.734 321.471C230.097 318.912 231.443 316.353 232.805 313.794C234.849 309.939 236.893 306.051 238.937 302.179C240.249 299.687 241.579 297.194 242.891 294.702C243.506 293.555 244.104 292.425 244.719 291.246C245.899 289.036 247.095 286.842 248.308 284.666C249.588 282.323 250.834 279.98 252.03 277.604C257.032 268.448 257.032 268.448 263.811 266.537Z" fill="url(#paint5_linear_453_870)"/>
<path d="M110.559 268.046C126.461 268.046 142.363 268.046 158.747 268.046C167.47 284.031 167.47 284.031 170.378 289.382C175.047 297.956 179.75 306.53 184.502 315.054C185.432 316.715 186.346 318.377 187.293 320.089C189.088 323.296 190.883 326.519 192.694 329.726C193.491 331.172 194.306 332.617 195.12 334.129C195.851 335.409 196.565 336.688 197.297 338.001C197.745 339.048 198.177 340.078 198.626 341.158C197.795 342.803 197.795 342.803 196.964 344.481C195.984 343.568 194.987 342.67 193.973 341.74C186.695 335.126 179.367 328.646 171.724 322.465C163.25 315.602 154.991 308.507 146.766 301.329C141.366 296.626 135.965 291.957 130.499 287.338C128.904 285.975 128.904 285.975 127.275 284.596C125.248 282.885 123.221 281.173 121.177 279.462C116.923 275.839 113.683 272.732 110.559 268.046Z" fill="url(#paint6_linear_453_870)"/>
<path d="M354.82 125.146C355.883 126.209 356.947 127.272 358.043 128.369C359.173 129.482 359.173 129.482 360.32 130.629C362.447 132.772 364.557 134.933 366.651 137.109C374.743 145.484 374.743 145.484 383.998 152.463C385.344 153.31 386.673 154.174 388.052 155.055C388.052 156.152 388.052 157.248 388.052 158.378C385.61 160.422 385.61 160.422 382.237 162.732C374.51 168.331 368.063 174.795 361.466 181.641C359.256 183.868 357.046 186.078 354.82 188.288C354.072 187.241 353.324 186.194 352.56 185.114C344.999 175.078 337.256 167.966 326.771 161.02C325.608 160.156 324.445 159.276 323.249 158.378C323.249 157.282 323.249 156.185 323.249 155.055C325.691 153.011 325.691 153.011 329.064 150.701C339.001 143.49 347.625 135.099 354.82 125.146Z" fill="url(#paint7_linear_453_870)"/>
<path d="M206.934 55.3567C212.284 57.6664 215.226 60.1921 218.881 64.6951C225.312 72.3386 232.573 78.7858 240.167 85.2662C235.93 89.6196 231.875 93.5577 227.073 97.313C220.31 102.796 215.392 109.858 210.257 116.837C204.807 114.511 201.833 111.869 198.111 107.283C193.441 101.75 188.573 97.0305 182.973 92.4444C180.281 90.1846 177.822 87.7918 175.363 85.2662C176.31 84.5683 177.257 83.8538 178.221 83.1226C188.922 75.0139 199.324 66.5561 206.934 55.3567Z" fill="url(#paint8_linear_453_870)"/>
<path d="M59.0482 125.146C64.4486 127.422 66.8912 129.615 70.0483 134.484C76.1132 143.008 83.9562 148.874 92.281 155.055C90.2372 161.17 88.0604 162.3 82.9426 166.055C74.5513 172.535 68.4199 179.647 62.3715 188.288C61.3081 187.224 60.2446 186.161 59.1479 185.064C58.018 183.951 58.018 183.951 56.8715 182.804C54.7446 180.661 52.6343 178.501 50.5406 176.324C43.7944 169.428 37.4636 163.28 29.1388 158.378C31.0164 152.729 31.9802 152.214 36.7158 149.04C45.3397 142.842 54.2461 134.75 59.0482 125.146Z" fill="url(#paint9_linear_453_870)"/>
<path d="M186.994 37.0788C188.025 40.9172 188.025 40.9172 188.656 45.387C184.086 52.233 178.703 52.3161 171.109 54.0109C138.907 61.8871 110.991 77.656 88.8082 102.431C86.4985 104.907 86.4985 104.907 82.3112 108.529C77.1767 108.43 75.997 107.2 72.3414 103.544C73.6707 90.8328 88.3595 80.6968 97.4321 73.1696C107.203 65.3931 117.787 59.4279 128.837 53.6952C130.582 52.7647 132.326 51.8508 134.121 50.8871C149.774 43.0774 169.215 36.1816 186.994 37.0788Z" fill="white"/>
<path d="M233.235 37.0464C272.616 40.4195 312.761 62.8018 339.347 91.4982C343.185 96.8986 343.185 96.8986 344.016 101.568C343.185 105.207 343.185 105.207 339.862 108.53C334.844 108.347 333.082 106.735 329.394 103.296C327.981 101.767 326.569 100.238 325.123 98.6599C302.857 75.5465 270.887 56.0389 238.402 52.8652C233.517 52.0344 233.517 52.0344 229.363 49.0268C226.871 45.3878 226.871 45.3878 227.186 41.7488C229.28 37.0962 229.28 37.0962 233.235 37.0464Z" fill="white"/>
<path d="M59.0488 106.867C61.2422 107.416 63.4357 107.964 65.6956 108.529C64.5989 109.626 63.5022 110.723 62.3722 111.853C61.5414 112.75 60.7271 113.631 59.8796 114.545C57.3871 116.838 57.3871 116.838 54.0637 116.838C53.5153 119.031 52.967 121.225 52.402 123.484C50.7569 123.484 49.1118 123.484 47.4169 123.484C53.183 115.259 53.183 115.259 59.0488 106.867Z" fill="black"/>
<path d="M82.3118 165.025C83.4085 165.573 84.5052 166.122 85.6352 166.687C80.6999 171.622 75.7647 176.557 70.6799 181.642C69.5831 181.094 68.4864 180.545 67.3564 179.98C69.2176 177.787 71.0953 175.61 72.973 173.433C74.0033 172.22 75.0501 171.007 76.1136 169.761C78.9884 166.687 78.9884 166.687 82.3118 165.025Z" fill="black"/>
<defs>
<linearGradient id="paint0_linear_453_870" x1="208.01" y1="0" x2="208.01" y2="416.019" gradientUnits="userSpaceOnUse">
<stop stop-color="#80BE41"/>
<stop offset="0.432363" stop-color="white"/>
</linearGradient>
<linearGradient id="paint1_linear_453_870" x1="272.569" y1="189.681" x2="272.569" y2="244.559" gradientUnits="userSpaceOnUse">
<stop stop-color="#25CD25" stop-opacity="0.4"/>
<stop offset="1" stop-color="#25CD25" stop-opacity="0"/>
</linearGradient>
<linearGradient id="paint2_linear_453_870" x1="144.627" y1="190.461" x2="144.627" y2="244.57" gradientUnits="userSpaceOnUse">
<stop stop-color="#25CD25" stop-opacity="0.4"/>
<stop offset="1" stop-color="#25CD25" stop-opacity="0"/>
</linearGradient>
<linearGradient id="paint3_linear_453_870" x1="208.596" y1="191.611" x2="208.596" y2="244.566" gradientUnits="userSpaceOnUse">
<stop stop-color="#25CD25" stop-opacity="0.4"/>
<stop offset="1" stop-color="#25CD25" stop-opacity="0"/>
</linearGradient>
<linearGradient id="paint4_linear_453_870" x1="208.596" y1="268.046" x2="208.596" y2="340.86" gradientUnits="userSpaceOnUse">
<stop stop-color="#25CD25" stop-opacity="0.4"/>
<stop offset="1" stop-color="#25CD25" stop-opacity="0"/>
</linearGradient>
<linearGradient id="paint5_linear_453_870" x1="261.768" y1="266.537" x2="261.768" y2="345.821" gradientUnits="userSpaceOnUse">
<stop stop-color="#25CD25" stop-opacity="0.4"/>
<stop offset="1" stop-color="#25CD25" stop-opacity="0"/>
</linearGradient>
<linearGradient id="paint6_linear_453_870" x1="154.592" y1="268.046" x2="154.592" y2="344.169" gradientUnits="userSpaceOnUse">
<stop stop-color="#25CD25" stop-opacity="0.4"/>
<stop offset="1" stop-color="#25CD25" stop-opacity="0"/>
</linearGradient>
<linearGradient id="paint7_linear_453_870" x1="355.65" y1="125.146" x2="355.65" y2="188.03" gradientUnits="userSpaceOnUse">
<stop stop-color="#25CD25" stop-opacity="0.4"/>
<stop offset="1" stop-color="#25CD25" stop-opacity="0"/>
</linearGradient>
<linearGradient id="paint8_linear_453_870" x1="207.765" y1="55.3567" x2="207.765" y2="116.586" gradientUnits="userSpaceOnUse">
<stop stop-color="#25CD25" stop-opacity="0.4"/>
<stop offset="1" stop-color="#25CD25" stop-opacity="0"/>
</linearGradient>
<linearGradient id="paint9_linear_453_870" x1="60.7099" y1="125.146" x2="60.7099" y2="188.03" gradientUnits="userSpaceOnUse">
<stop stop-color="#25CD25" stop-opacity="0.4"/>
<stop offset="1" stop-color="#25CD25" stop-opacity="0"/>
</linearGradient>
</defs>
</svg>
