<svg width="417" height="417" viewBox="0 0 417 417" fill="none" xmlns="http://www.w3.org/2000/svg">
<path d="M416.019 208.01C416.019 322.89 322.89 416.019 208.01 416.019C93.129 416.019 0 322.89 0 208.01C0 93.129 93.129 0 208.01 0C322.89 0 416.019 93.129 416.019 208.01ZM74.2309 208.01C74.2309 281.893 134.126 341.788 208.01 341.788C281.893 341.788 341.788 281.893 341.788 208.01C341.788 134.126 281.893 74.2309 208.01 74.2309C134.126 74.2309 74.2309 134.126 74.2309 208.01Z" fill="#80BE41"/>
<path d="M416.019 208.01C416.019 322.89 322.89 416.019 208.01 416.019C93.129 416.019 0 322.89 0 208.01C0 93.129 93.129 0 208.01 0C322.89 0 416.019 93.129 416.019 208.01ZM74.2309 208.01C74.2309 281.893 134.126 341.788 208.01 341.788C281.893 341.788 341.788 281.893 341.788 208.01C341.788 134.126 281.893 74.2309 208.01 74.2309C134.126 74.2309 74.2309 134.126 74.2309 208.01Z" fill="url(#paint0_linear_453_892)" fill-opacity="0.2"/>
<path d="M331.549 134.952C339.881 141.573 347.851 148.575 355.752 155.697C356.806 156.648 357.861 157.599 358.95 158.567C382.651 179.969 382.651 179.969 392.056 192.002C393.162 193.385 394.269 194.785 395.41 196.22C398.141 202.824 398.643 209.186 397.242 216.205C391.658 229.015 381.337 238.108 371.518 247.755C370.636 248.636 369.737 249.518 368.821 250.434C355.406 263.729 341.783 276.159 326.362 287.085C324.547 288.416 322.749 289.747 320.882 291.113C279.391 320.848 234.201 339.778 182.337 332.569C137.216 323.493 97.3159 295.383 64.0541 264.749C60.4582 261.464 56.8105 258.266 53.1109 255.102C20.3159 226.422 20.3159 226.422 17.8783 209.082C19.6935 193.039 33.8868 181.162 44.8992 170.392C46.3686 168.94 47.8208 167.505 49.3421 166.001C59.4209 156.147 69.5689 146.863 80.8751 138.409C81.826 137.683 82.7768 136.957 83.7622 136.196C166.139 73.1132 248.602 71.1597 331.549 134.952Z" fill="#040404"/>
<path d="M236.465 119.393C238.92 120.275 238.92 120.275 241.41 121.191C252.647 125.53 261.999 130.44 271.041 138.409C272.735 139.844 272.735 139.844 274.464 141.297C292.651 157.824 302.038 179.641 304.355 203.827C305.288 228.773 295.279 253.46 279.149 272.286C259.441 292.513 235.221 302.609 206.972 303.18C182.787 302.972 159.137 293.585 141.348 277.006C119.669 253.235 112.01 227.442 113.411 195.632C115.364 172.743 130.284 151.911 146.569 136.681C171.377 117.699 206.073 108.052 236.465 119.393Z" fill="url(#paint1_linear_453_892)"/>
<path d="M226.863 155.414C243.148 161.62 255.422 172.494 262.649 188.502C266.936 203.681 266.452 220.053 259.917 234.471C251.498 248.785 240.347 258.57 224.391 263.514C205.27 267.525 190.576 264.863 174.221 254.231C162.241 245.604 154.271 232.535 151.747 217.926C151.073 207.07 150.71 196.956 155.205 186.808C156.346 186.877 157.469 186.929 158.628 186.998C168.015 187.292 174.93 187.258 182.865 181.622C188.76 174.932 188.83 167.913 189.262 159.338C189.435 158.145 189.608 156.935 189.78 155.69C199.79 150.694 216.283 152.838 226.863 155.414Z" fill="#80BE41"/>
<path d="M314.261 62.3428C315.678 63.3801 317.113 64.4347 318.583 65.5065C348.248 88.2919 377.482 122.66 383.412 160.883C381.13 161.454 378.848 162.024 376.497 162.612C367.697 154.262 362.148 145.013 356.719 134.295C350.651 122.349 343.927 112.184 335.006 102.105C334.072 100.929 333.139 99.7537 332.188 98.5435C307.518 68.0305 265.751 51.123 227.821 45.055C181.698 40.6466 137.026 53.5952 100.894 82.535C80.3218 99.6673 65.558 120.188 54.7877 144.512C51.0016 152.741 46.9908 157.547 39.3842 162.612C37.6727 162.042 35.9612 161.471 34.1978 160.883C38.2605 124.06 66.8027 89.9169 94.7052 67.5292C116.488 51.3997 141.037 39.5921 167.314 32.9535C168.835 32.5559 170.357 32.1756 171.93 31.778C220.353 21.6473 274.447 33.0746 314.261 62.3428Z" fill="white"/>
<path d="M34.1978 255.967C40.6116 256.157 42.9109 257.764 47.6996 262.121C52.8341 268.466 56.1188 275.554 59.5937 282.866C77.2791 319.897 109.607 348.405 148.004 362.805C167.401 369.634 185.38 372.365 206.004 372.227C208.96 372.244 208.96 372.244 211.986 372.262C231.158 372.227 248.792 369.686 266.719 362.823C268.119 362.287 269.537 361.768 270.989 361.215C311.616 345.414 342.734 314.832 361.37 275.744C365.381 267.359 369.063 261.62 376.497 255.967C380.266 256.589 380.266 256.589 383.412 257.695C374.111 297.993 345.327 335.975 310.993 358.362C296.057 367.577 280.757 374.803 264.126 380.439C262.639 381.009 261.135 381.58 259.597 382.168C242.361 387.25 225.176 387.942 207.284 387.89C205.123 387.925 202.944 387.942 200.697 387.976C157.754 387.994 117.681 371.069 86.0613 342.406C85.2142 341.645 84.3844 340.884 83.5027 340.106C59.9048 318.618 37.6035 288.589 34.1978 255.967Z" fill="white"/>
<path d="M298.702 143.596C308.608 148.021 316.404 155.68 324.633 162.612C325.619 163.425 326.587 164.255 327.607 165.084C360.782 192.849 360.782 192.849 371.31 207.561C367.058 217.518 358.552 224.364 350.997 231.867C350.185 232.68 349.372 233.492 348.525 234.34C316.837 265.89 316.837 265.89 300.43 273.254C302.643 267.498 305.167 262.138 308.106 256.727C319.914 232.749 322.939 200.697 314.797 174.921C311.806 167.626 308.175 160.641 304.147 153.865C302.159 150.511 300.413 147.105 298.702 143.596Z" fill="url(#paint2_linear_453_892)"/>
<path d="M115.451 143.596C115.451 150.286 112.667 154.781 109.607 160.555C97.0392 184.516 93.3741 212.816 101.448 238.955C105.545 251.091 110.334 262.38 117.179 273.254C96.0192 263.763 78.3165 244.176 61.8584 228.306C60.3025 226.819 58.7466 225.333 57.1389 223.811C50.2064 217.069 50.2064 217.069 48.0282 214.476C48.0282 213.335 48.0282 212.194 48.0282 211.018C46.8872 211.018 45.7462 211.018 44.5706 211.018C47.1119 205.158 50.3793 201.302 54.8742 196.79C56.2572 195.407 57.6229 194.024 59.0405 192.607C60.51 191.155 61.9795 189.702 63.4835 188.216C64.9703 186.746 66.457 185.259 67.9956 183.738C78.1781 173.694 88.4817 164.324 99.8917 155.697C102.882 153.363 105.873 151.012 108.864 148.678C111.06 146.984 113.255 145.29 115.451 143.596Z" fill="url(#paint3_linear_453_892)"/>
<path d="M220.474 189.733C226.214 193.813 228.772 195.87 231.279 202.37C232.904 213.607 232.904 213.607 229.066 219.727C220.682 229.719 220.682 229.719 213.248 230.445C199.764 230.791 199.764 230.791 193.142 227.005C186.919 219.796 185.466 213.918 185.657 204.548C187.005 196.751 191.949 192.481 198.208 187.9C206.264 185.532 213.058 185.86 220.474 189.733Z" fill="#FEF8F9"/>
<path d="M155.213 186.815C155.783 186.815 156.354 186.815 156.941 186.815C157.339 197.672 155.904 207.353 153.484 217.934C152.913 217.934 152.343 217.934 151.755 217.934C151.115 196.03 151.115 196.03 155.213 186.815Z" fill="#80BE41"/>
<defs>
<linearGradient id="paint0_linear_453_892" x1="208.01" y1="0" x2="208.01" y2="416.019" gradientUnits="userSpaceOnUse">
<stop stop-color="#80BE41"/>
<stop offset="0.432363" stop-color="white"/>
</linearGradient>
<linearGradient id="paint1_linear_453_892" x1="208.833" y1="114.536" x2="208.833" y2="302.41" gradientUnits="userSpaceOnUse">
<stop stop-color="#25CD25" stop-opacity="0.4"/>
<stop offset="1" stop-color="#25CD25" stop-opacity="0"/>
</linearGradient>
<linearGradient id="paint2_linear_453_892" x1="335.006" y1="143.596" x2="335.006" y2="272.725" gradientUnits="userSpaceOnUse">
<stop stop-color="#25CD25" stop-opacity="0.4"/>
<stop offset="1" stop-color="#25CD25" stop-opacity="0"/>
</linearGradient>
<linearGradient id="paint3_linear_453_892" x1="80.875" y1="143.596" x2="80.875" y2="272.725" gradientUnits="userSpaceOnUse">
<stop stop-color="#25CD25" stop-opacity="0.4"/>
<stop offset="1" stop-color="#25CD25" stop-opacity="0"/>
</linearGradient>
</defs>
</svg>
