<svg width="143" height="143" viewBox="0 0 143 143" fill="none" xmlns="http://www.w3.org/2000/svg">
<path fill-rule="evenodd" clip-rule="evenodd" d="M65.0304 0.138954C65.0304 0.221354 64.5209 0.277908 63.7798 0.277908C63.0388 0.277908 62.5292 0.334462 62.5292 0.416862C62.5292 0.497872 62.0661 0.555816 61.4176 0.555816C60.7691 0.555816 60.306 0.613759 60.306 0.694769C60.306 0.772028 59.9354 0.833723 59.4723 0.833723C59.0091 0.833723 58.6385 0.895419 58.6385 0.972677C58.6385 1.0491 58.3259 1.11163 57.9438 1.11163C57.5616 1.11163 57.249 1.17416 57.249 1.25059C57.249 1.32701 56.9364 1.38954 56.5542 1.38954C56.1721 1.38954 55.8595 1.45207 55.8595 1.52849C55.8595 1.60492 55.6093 1.66745 55.3036 1.66745C54.9979 1.66745 54.7478 1.72998 54.7478 1.8064C54.7478 1.88283 54.4977 1.94535 54.192 1.94535C53.8863 1.94535 53.6362 2.00788 53.6362 2.08431C53.6362 2.16073 53.3861 2.22326 53.0804 2.22326C52.7747 2.22326 52.5246 2.28579 52.5246 2.36222C52.5246 2.43864 52.2745 2.50117 51.9688 2.50117C51.6631 2.50117 51.4129 2.5637 51.4129 2.64012C51.4129 2.71655 51.2253 2.77908 50.9961 2.77908C50.7668 2.77908 50.5792 2.84161 50.5792 2.91803C50.5792 2.99446 50.3916 3.05699 50.1624 3.05699C49.9331 3.05699 49.7455 3.11951 49.7455 3.19594C49.7455 3.27236 49.5579 3.33489 49.3286 3.33489C49.0994 3.33489 48.9118 3.39742 48.9118 3.47385C48.9118 3.55027 48.7242 3.6128 48.4949 3.6128C48.2656 3.6128 48.078 3.67533 48.078 3.75175C48.078 3.82818 47.8905 3.89071 47.6612 3.89071C47.4319 3.89071 47.2443 3.95324 47.2443 4.02966C47.2443 4.10609 47.0567 4.16862 46.8275 4.16862C46.5982 4.16862 46.4106 4.23115 46.4106 4.30757C46.4106 4.384 46.223 4.44652 45.9937 4.44652C45.7645 4.44652 45.5769 4.50905 45.5769 4.58548C45.5769 4.6619 45.4518 4.72443 45.299 4.72443C45.1461 4.72443 45.0211 4.78696 45.0211 4.86339C45.0211 4.93981 44.8335 5.00234 44.6042 5.00234C44.3749 5.00234 44.1873 5.06487 44.1873 5.14129C44.1873 5.21772 44.0623 5.28025 43.9094 5.28025C43.7566 5.28025 43.6315 5.34278 43.6315 5.4192C43.6315 5.49563 43.4439 5.55816 43.2147 5.55816C42.9854 5.55816 42.7978 5.62069 42.7978 5.69711C42.7978 5.77353 42.6727 5.83606 42.5199 5.83606C42.367 5.83606 42.242 5.89859 42.242 5.97502C42.242 6.05144 42.1169 6.11397 41.9641 6.11397C41.8112 6.11397 41.6862 6.1765 41.6862 6.25293C41.6862 6.32935 41.5611 6.39188 41.4083 6.39188C41.2554 6.39188 41.1303 6.45441 41.1303 6.53083C41.1303 6.60726 41.0053 6.66979 40.8524 6.66979C40.6996 6.66979 40.5745 6.73232 40.5745 6.80874C40.5745 6.88517 40.4495 6.94769 40.2966 6.94769C40.1438 6.94769 40.0187 7.01022 40.0187 7.08665C40.0187 7.16307 39.8937 7.2256 39.7408 7.2256C39.588 7.2256 39.4629 7.28813 39.4629 7.36456C39.4629 7.44098 39.3378 7.50351 39.185 7.50351C39.0321 7.50351 38.9071 7.56604 38.9071 7.64246C38.9071 7.71889 38.782 7.78142 38.6292 7.78142C38.4763 7.78142 38.3513 7.84395 38.3513 7.92037C38.3513 7.9968 38.2262 8.05933 38.0734 8.05933C37.9205 8.05933 37.7955 8.12185 37.7955 8.19828C37.7955 8.2747 37.6704 8.33723 37.5175 8.33723C37.3647 8.33723 37.2396 8.39976 37.2396 8.47619C37.2396 8.55261 37.1146 8.61514 36.9617 8.61514C36.8089 8.61514 36.6838 8.67767 36.6838 8.7541C36.6838 8.83052 36.5725 8.89305 36.4366 8.89305C36.3006 8.89305 36.0992 9.01811 35.9891 9.17096C35.8789 9.32381 35.6775 9.44886 35.5415 9.44886C35.4056 9.44886 35.2943 9.51139 35.2943 9.58782C35.2943 9.66424 35.1692 9.72677 35.0164 9.72677C34.8635 9.72677 34.7385 9.7893 34.7385 9.86573C34.7385 9.94215 34.6272 10.0047 34.4913 10.0047C34.3552 10.0047 34.1539 10.1297 34.0437 10.2826C33.9335 10.4354 33.7459 10.5605 33.6268 10.5605C33.5078 10.5605 33.3202 10.6856 33.21 10.8384C33.0998 10.9913 32.9122 11.1163 32.7931 11.1163C32.674 11.1163 32.4864 11.2414 32.3763 11.3942C32.2661 11.5471 32.0785 11.6721 31.9594 11.6721C31.8403 11.6721 31.6527 11.7972 31.5425 11.95C31.4323 12.1029 31.2448 12.2279 31.1257 12.2279C31.0066 12.2279 30.819 12.353 30.7088 12.5059C30.5986 12.6587 30.411 12.7838 30.2919 12.7838C30.1729 12.7838 29.9853 12.9088 29.8751 13.0617C29.7649 13.2145 29.5886 13.3396 29.4832 13.3396C29.378 13.3396 29.1165 13.5272 28.9024 13.7564C28.6883 13.9857 28.4394 14.1733 28.3494 14.1733C28.2595 14.1733 27.9456 14.4234 27.6518 14.7291C27.3581 15.0348 27.0454 15.2849 26.9571 15.2849C26.8687 15.2849 26.556 15.535 26.2623 15.8407C25.9685 16.1464 25.6574 16.3966 25.5707 16.3966C25.484 16.3966 25.0449 16.7717 24.5948 17.2303C24.1448 17.6888 23.7101 18.064 23.629 18.064C23.4355 18.064 17.7861 23.7147 17.7861 23.9083C17.7861 23.9901 17.4735 24.3615 17.0913 24.7338C16.7092 25.1061 16.3966 25.4812 16.3966 25.5675C16.3966 25.6538 16.0839 26.029 15.7018 26.4012C15.3197 26.7735 15.007 27.1508 15.007 27.2397C15.007 27.3286 14.8194 27.5767 14.5902 27.7908C14.3609 28.0049 14.1733 28.255 14.1733 28.3466C14.1733 28.4382 13.9857 28.6883 13.7564 28.9024C13.5272 29.1165 13.3396 29.378 13.3396 29.4832C13.3396 29.5886 13.2145 29.7649 13.0617 29.8751C12.9088 29.9853 12.7838 30.1729 12.7838 30.2919C12.7838 30.411 12.6587 30.5986 12.5058 30.7088C12.353 30.819 12.2279 31.0066 12.2279 31.1257C12.2279 31.2448 12.1029 31.4323 11.95 31.5425C11.7972 31.6527 11.6721 31.8403 11.6721 31.9594C11.6721 32.0785 11.5471 32.2661 11.3942 32.3763C11.2414 32.4864 11.1163 32.674 11.1163 32.7931C11.1163 32.9122 10.9913 33.0998 10.8384 33.21C10.6856 33.3202 10.5605 33.5078 10.5605 33.6268C10.5605 33.7459 10.4354 33.9335 10.2826 34.0437C10.1297 34.1539 10.0047 34.3552 10.0047 34.4913C10.0047 34.6272 9.94215 34.7385 9.86573 34.7385C9.7893 34.7385 9.72677 34.8635 9.72677 35.0164C9.72677 35.1692 9.66424 35.2943 9.58782 35.2943C9.51139 35.2943 9.44886 35.4056 9.44886 35.5415C9.44886 35.6775 9.32381 35.8789 9.17096 35.9891C9.01811 36.0992 8.89305 36.3006 8.89305 36.4366C8.89305 36.5725 8.83052 36.6838 8.7541 36.6838C8.67767 36.6838 8.61514 36.8089 8.61514 36.9617C8.61514 37.1146 8.55261 37.2396 8.47619 37.2396C8.39976 37.2396 8.33723 37.3647 8.33723 37.5176C8.33723 37.6704 8.2747 37.7955 8.19828 37.7955C8.12185 37.7955 8.05933 37.9205 8.05933 38.0734C8.05933 38.2262 7.9968 38.3513 7.92037 38.3513C7.84395 38.3513 7.78142 38.4763 7.78142 38.6292C7.78142 38.782 7.71889 38.9071 7.64246 38.9071C7.56604 38.9071 7.50351 39.0322 7.50351 39.185C7.50351 39.3378 7.44098 39.4629 7.36456 39.4629C7.28813 39.4629 7.2256 39.588 7.2256 39.7408C7.2256 39.8937 7.16307 40.0187 7.08665 40.0187C7.01022 40.0187 6.94769 40.1438 6.94769 40.2966C6.94769 40.4495 6.88516 40.5745 6.80874 40.5745C6.73232 40.5745 6.66979 40.6996 6.66979 40.8524C6.66979 41.0053 6.60726 41.1304 6.53083 41.1304C6.45441 41.1304 6.39188 41.2554 6.39188 41.4083C6.39188 41.5611 6.32935 41.6862 6.25292 41.6862C6.1765 41.6862 6.11397 41.8112 6.11397 41.9641C6.11397 42.1169 6.05144 42.242 5.97502 42.242C5.89859 42.242 5.83606 42.367 5.83606 42.5199C5.83606 42.6727 5.77353 42.7978 5.69711 42.7978C5.62068 42.7978 5.55816 42.9854 5.55816 43.2147C5.55816 43.4439 5.49563 43.6315 5.4192 43.6315C5.34278 43.6315 5.28025 43.7566 5.28025 43.9094C5.28025 44.0623 5.21772 44.1873 5.14129 44.1873C5.06487 44.1873 5.00234 44.3749 5.00234 44.6042C5.00234 44.8335 4.93981 45.0211 4.86339 45.0211C4.78696 45.0211 4.72443 45.1461 4.72443 45.299C4.72443 45.4518 4.6619 45.5769 4.58548 45.5769C4.50905 45.5769 4.44652 45.7645 4.44652 45.9937C4.44652 46.223 4.384 46.4106 4.30757 46.4106C4.23115 46.4106 4.16862 46.5982 4.16862 46.8275C4.16862 47.0567 4.10609 47.2443 4.02966 47.2443C3.95324 47.2443 3.89071 47.4319 3.89071 47.6612C3.89071 47.8905 3.82818 48.078 3.75175 48.078C3.67533 48.078 3.6128 48.2031 3.6128 48.356C3.6128 48.5088 3.55027 48.6339 3.47385 48.6339C3.39742 48.6339 3.33489 48.884 3.33489 49.1897C3.33489 49.4954 3.27236 49.7455 3.19594 49.7455C3.11951 49.7455 3.05699 49.9331 3.05699 50.1624C3.05699 50.3916 2.99446 50.5792 2.91803 50.5792C2.84161 50.5792 2.77908 50.7668 2.77908 50.9961C2.77908 51.2254 2.71655 51.4129 2.64012 51.4129C2.5637 51.4129 2.50117 51.6631 2.50117 51.9688C2.50117 52.2745 2.43864 52.5246 2.36222 52.5246C2.28579 52.5246 2.22326 52.7747 2.22326 53.0804C2.22326 53.3861 2.16073 53.6362 2.08431 53.6362C2.00788 53.6362 1.94535 53.8863 1.94535 54.192C1.94535 54.4977 1.88283 54.7478 1.8064 54.7478C1.72998 54.7478 1.66745 54.998 1.66745 55.3036C1.66745 55.6093 1.60492 55.8595 1.52849 55.8595C1.45207 55.8595 1.38954 56.1721 1.38954 56.5542C1.38954 56.9364 1.32701 57.249 1.25058 57.249C1.17416 57.249 1.11163 57.5616 1.11163 57.9438C1.11163 58.3259 1.0491 58.6385 0.972677 58.6385C0.895419 58.6385 0.833723 59.0091 0.833723 59.4723C0.833723 59.9354 0.772028 60.306 0.694769 60.306C0.613759 60.306 0.555816 60.7691 0.555816 61.4176C0.555816 62.0661 0.497872 62.5293 0.416862 62.5293C0.333489 62.5293 0.277908 63.0851 0.277908 63.9188C0.277908 64.7525 0.222326 65.3083 0.138954 65.3083C0.0484949 65.3083 0 67.3464 0 71.1444C0 74.9424 0.0484949 76.9805 0.138954 76.9805C0.222326 76.9805 0.277908 77.5363 0.277908 78.37C0.277908 79.2037 0.333489 79.7595 0.416862 79.7595C0.497872 79.7595 0.555816 80.2227 0.555816 80.8712C0.555816 81.5197 0.613759 81.9828 0.694769 81.9828C0.772028 81.9828 0.833723 82.3534 0.833723 82.8165C0.833723 83.2797 0.895419 83.6502 0.972677 83.6502C1.0491 83.6502 1.11163 83.9629 1.11163 84.345C1.11163 84.7271 1.17416 85.0398 1.25058 85.0398C1.32701 85.0398 1.38954 85.3524 1.38954 85.7346C1.38954 86.1167 1.45207 86.4293 1.52849 86.4293C1.60492 86.4293 1.66745 86.6794 1.66745 86.9851C1.66745 87.2908 1.72998 87.541 1.8064 87.541C1.88283 87.541 1.94535 87.7911 1.94535 88.0968C1.94535 88.4025 2.00788 88.6526 2.08431 88.6526C2.16073 88.6526 2.22326 88.9027 2.22326 89.2084C2.22326 89.5141 2.28579 89.7642 2.36222 89.7642C2.43864 89.7642 2.50117 90.0143 2.50117 90.32C2.50117 90.6257 2.5637 90.8758 2.64012 90.8758C2.71655 90.8758 2.77908 91.0634 2.77908 91.2927C2.77908 91.522 2.84161 91.7096 2.91803 91.7096C2.99446 91.7096 3.05699 91.8972 3.05699 92.1264C3.05699 92.3557 3.11951 92.5433 3.19594 92.5433C3.27236 92.5433 3.33489 92.7309 3.33489 92.9602C3.33489 93.1894 3.39742 93.377 3.47385 93.377C3.55027 93.377 3.6128 93.5646 3.6128 93.7939C3.6128 94.0232 3.67533 94.2107 3.75175 94.2107C3.82818 94.2107 3.89071 94.3983 3.89071 94.6276C3.89071 94.8569 3.95324 95.0445 4.02966 95.0445C4.10609 95.0445 4.16862 95.232 4.16862 95.4613C4.16862 95.6906 4.23115 95.8782 4.30757 95.8782C4.384 95.8782 4.44652 96.0032 4.44652 96.1561C4.44652 96.3089 4.50905 96.434 4.58548 96.434C4.6619 96.434 4.72443 96.6216 4.72443 96.8509C4.72443 97.0801 4.78696 97.2677 4.86339 97.2677C4.93981 97.2677 5.00234 97.4553 5.00234 97.6846C5.00234 97.9139 5.06487 98.1014 5.14129 98.1014C5.21772 98.1014 5.28025 98.2265 5.28025 98.3794C5.28025 98.5322 5.34278 98.6573 5.4192 98.6573C5.49563 98.6573 5.55816 98.7823 5.55816 98.9352C5.55816 99.088 5.62068 99.2131 5.69711 99.2131C5.77353 99.2131 5.83606 99.4007 5.83606 99.6299C5.83606 99.8592 5.89859 100.047 5.97502 100.047C6.05144 100.047 6.11397 100.172 6.11397 100.325C6.11397 100.478 6.1765 100.603 6.25292 100.603C6.32935 100.603 6.39188 100.728 6.39188 100.881C6.39188 101.033 6.45441 101.158 6.53083 101.158C6.60726 101.158 6.66979 101.283 6.66979 101.436C6.66979 101.589 6.73232 101.714 6.80874 101.714C6.88516 101.714 6.94769 101.839 6.94769 101.992C6.94769 102.145 7.01022 102.27 7.08665 102.27C7.16307 102.27 7.2256 102.395 7.2256 102.548C7.2256 102.701 7.28813 102.826 7.36456 102.826C7.44098 102.826 7.50351 102.951 7.50351 103.104C7.50351 103.257 7.56604 103.382 7.64246 103.382C7.71889 103.382 7.78142 103.507 7.78142 103.66C7.78142 103.812 7.84395 103.938 7.92037 103.938C7.9968 103.938 8.05933 104.063 8.05933 104.215C8.05933 104.368 8.12185 104.493 8.19828 104.493C8.2747 104.493 8.33723 104.618 8.33723 104.771C8.33723 104.924 8.39976 105.049 8.47619 105.049C8.55261 105.049 8.61514 105.174 8.61514 105.327C8.61514 105.48 8.67767 105.605 8.7541 105.605C8.83052 105.605 8.89305 105.716 8.89305 105.852C8.89305 105.988 9.01811 106.19 9.17096 106.3C9.32381 106.41 9.44886 106.611 9.44886 106.747C9.44886 106.883 9.51139 106.994 9.58782 106.994C9.66424 106.994 9.72677 107.106 9.72677 107.242C9.72677 107.378 9.85183 107.579 10.0047 107.689C10.1575 107.799 10.2826 108.001 10.2826 108.137C10.2826 108.273 10.3451 108.384 10.4215 108.384C10.498 108.384 10.5605 108.495 10.5605 108.631C10.5605 108.767 10.6856 108.969 10.8384 109.079C10.9913 109.189 11.1163 109.377 11.1163 109.496C11.1163 109.615 11.2414 109.802 11.3942 109.913C11.5471 110.023 11.6721 110.21 11.6721 110.329C11.6721 110.448 11.7972 110.636 11.95 110.746C12.1029 110.856 12.2279 111.044 12.2279 111.163C12.2279 111.282 12.353 111.47 12.5058 111.58C12.6587 111.69 12.7838 111.867 12.7838 111.972C12.7838 112.077 12.9713 112.339 13.2006 112.553C13.4299 112.767 13.6175 113.017 13.6175 113.108C13.6175 113.2 13.8051 113.45 14.0343 113.664C14.2636 113.878 14.4512 114.129 14.4512 114.22C14.4512 114.312 14.6388 114.562 14.8681 114.776C15.0973 114.99 15.2849 115.238 15.2849 115.327C15.2849 115.416 15.5976 115.793 15.9797 116.165C16.3618 116.538 16.6745 116.912 16.6745 116.997C16.6745 117.082 17.1122 117.583 17.6471 118.111C18.1821 118.638 18.6198 119.136 18.6198 119.217C18.6198 119.408 22.602 123.391 22.7932 123.391C22.8735 123.391 23.4342 123.891 24.039 124.503C24.6439 125.114 25.2089 125.614 25.2946 125.614C25.3802 125.614 25.6906 125.364 25.9844 125.059C26.2781 124.753 26.6033 124.503 26.7071 124.503C26.8109 124.503 26.9858 124.378 27.096 124.225C27.2062 124.072 27.3938 123.947 27.5129 123.947C27.632 123.947 27.8195 123.822 27.9297 123.669C28.0399 123.516 28.2413 123.391 28.3773 123.391C28.5132 123.391 28.6245 123.329 28.6245 123.252C28.6245 123.176 28.7496 123.113 28.9024 123.113C29.0553 123.113 29.1803 123.051 29.1803 122.974C29.1803 122.898 29.2916 122.835 29.4275 122.835C29.5635 122.835 29.7649 122.71 29.8751 122.557C29.9853 122.404 30.1866 122.279 30.3227 122.279C30.4586 122.279 30.5699 122.217 30.5699 122.14C30.5699 122.064 30.6949 122.002 30.8478 122.002C31.0006 122.002 31.1257 121.939 31.1257 121.863C31.1257 121.786 31.2507 121.724 31.4036 121.724C31.5564 121.724 31.6815 121.661 31.6815 121.585C31.6815 121.508 31.8065 121.446 31.9594 121.446C32.1122 121.446 32.2373 121.383 32.2373 121.307C32.2373 121.23 32.3486 121.168 32.4845 121.168C32.6205 121.168 32.8219 121.043 32.9321 120.89C33.0423 120.737 33.2436 120.612 33.3796 120.612C33.5155 120.612 33.6268 120.549 33.6268 120.473C33.6268 120.397 33.7519 120.334 33.9047 120.334C34.0576 120.334 34.1827 120.272 34.1827 120.195C34.1827 120.119 34.3077 120.056 34.4606 120.056C34.6134 120.056 34.7385 119.994 34.7385 119.917C34.7385 119.841 34.8635 119.778 35.0164 119.778C35.1692 119.778 35.2943 119.716 35.2943 119.639C35.2943 119.563 35.4056 119.5 35.5415 119.5C35.6775 119.5 35.8789 119.375 35.9891 119.222C36.0992 119.07 36.3006 118.945 36.4366 118.945C36.5725 118.945 36.6838 118.882 36.6838 118.806C36.6838 118.729 36.8089 118.667 36.9617 118.667C37.1146 118.667 37.2396 118.604 37.2396 118.528C37.2396 118.451 37.3647 118.389 37.5175 118.389C37.6704 118.389 37.7955 118.326 37.7955 118.25C37.7955 118.173 37.9205 118.111 38.0734 118.111C38.2262 118.111 38.3513 118.048 38.3513 117.972C38.3513 117.895 38.4626 117.833 38.5985 117.833C38.7345 117.833 38.9359 117.708 39.046 117.555C39.1562 117.402 39.3576 117.277 39.4936 117.277C39.6295 117.277 39.7408 117.215 39.7408 117.138C39.7408 117.062 39.8659 116.999 40.0187 116.999C40.1716 116.999 40.2966 116.937 40.2966 116.86C40.2966 116.784 40.4217 116.721 40.5745 116.721C40.7274 116.721 40.8524 116.659 40.8524 116.582C40.8524 116.506 40.9775 116.443 41.1303 116.443C41.2832 116.443 41.4083 116.381 41.4083 116.304C41.4083 116.228 41.5196 116.165 41.6555 116.165C41.7915 116.165 41.9928 116.04 42.103 115.888C42.2132 115.735 42.4146 115.61 42.5506 115.61C42.6865 115.61 42.7978 115.547 42.7978 115.471C42.7978 115.394 42.9229 115.332 43.0757 115.332C43.2286 115.332 43.3536 115.269 43.3536 115.193C43.3536 115.116 43.4787 115.054 43.6315 115.054C43.7844 115.054 43.9094 114.991 43.9094 114.915C43.9094 114.838 44.0345 114.776 44.1873 114.776C44.3402 114.776 44.4652 114.713 44.4652 114.637C44.4652 114.561 44.5765 114.498 44.7124 114.498C44.8485 114.498 45.0498 114.373 45.16 114.22C45.2702 114.067 45.4715 113.942 45.6076 113.942C45.7435 113.942 45.8548 113.88 45.8548 113.803C45.8548 113.727 45.9798 113.664 46.1327 113.664C46.2855 113.664 46.4106 113.602 46.4106 113.525C46.4106 113.449 46.5357 113.386 46.6885 113.386C46.8414 113.386 46.9664 113.324 46.9664 113.247C46.9664 113.171 47.0915 113.108 47.2443 113.108C47.3972 113.108 47.5222 113.046 47.5222 112.97C47.5222 112.893 47.6335 112.831 47.7694 112.831C47.9055 112.831 48.1068 112.706 48.217 112.553C48.3272 112.4 48.5285 112.275 48.6646 112.275C48.8005 112.275 48.9118 112.212 48.9118 112.136C48.9118 112.059 49.0368 111.997 49.1897 111.997C49.3425 111.997 49.4676 111.934 49.4676 111.858C49.4676 111.781 49.5789 111.719 49.7148 111.719C49.8508 111.719 50.0522 111.594 50.1624 111.441C50.2725 111.288 50.4489 111.163 50.5542 111.163C50.6594 111.163 50.9209 110.976 51.135 110.746C51.3492 110.517 51.5976 110.329 51.6871 110.329C51.8969 110.329 52.2467 109.98 52.2467 109.77C52.2467 109.68 52.4342 109.432 52.6635 109.218C52.8928 109.004 53.0804 108.742 53.0804 108.637C53.0804 108.532 53.2054 108.355 53.3583 108.245C53.5111 108.135 53.6362 107.934 53.6362 107.798C53.6362 107.662 53.6987 107.55 53.7752 107.55C53.8516 107.55 53.9141 107.363 53.9141 107.133C53.9141 106.904 53.9766 106.717 54.0531 106.717C54.1295 106.717 54.192 106.466 54.192 106.161C54.192 105.855 54.2545 105.605 54.331 105.605C54.4212 105.605 54.4699 103.762 54.4699 100.355C54.4699 95.2653 54.4614 95.0998 54.192 94.9055C54.0392 94.7953 53.9141 94.6077 53.9141 94.4886C53.9141 94.3696 53.789 94.182 53.6362 94.0718C53.4833 93.9616 53.3583 93.7853 53.3583 93.6799C53.3583 93.5747 53.1707 93.3132 52.9414 93.0991C52.7122 92.885 52.5246 92.6097 52.5246 92.4876C52.5246 92.3653 52.462 92.2654 52.3856 92.2654C52.3092 92.2654 52.2467 92.1541 52.2467 92.0182C52.2467 91.8821 52.1216 91.6808 51.9688 91.5706C51.8159 91.4604 51.6908 91.2728 51.6908 91.1538C51.6908 91.0347 51.5658 90.8471 51.4129 90.7369C51.2601 90.6267 51.135 90.4254 51.135 90.2893C51.135 90.1534 51.0725 90.0421 50.9961 90.0421C50.9197 90.0421 50.8571 89.9171 50.8571 89.7642C50.8571 89.6114 50.7946 89.4863 50.7182 89.4863C50.6417 89.4863 50.5792 89.375 50.5792 89.2391C50.5792 89.1031 50.4542 88.9017 50.3013 88.7915C50.1485 88.6814 50.0234 88.48 50.0234 88.344C50.0234 88.2081 49.9609 88.0968 49.8844 88.0968C49.808 88.0968 49.7455 87.9717 49.7455 87.8189C49.7455 87.666 49.683 87.541 49.6065 87.541C49.5301 87.541 49.4676 87.4159 49.4676 87.263C49.4676 87.1102 49.4051 86.9851 49.3286 86.9851C49.2522 86.9851 49.1897 86.8601 49.1897 86.7072C49.1897 86.5544 49.1271 86.4293 49.0507 86.4293C48.9743 86.4293 48.9118 86.3043 48.9118 86.1514C48.9118 85.9986 48.8492 85.8735 48.7728 85.8735C48.6964 85.8735 48.6339 85.6859 48.6339 85.4566C48.6339 85.2274 48.5713 85.0398 48.4949 85.0398C48.4185 85.0398 48.3559 84.9147 48.3559 84.7619C48.3559 84.609 48.2934 84.484 48.217 84.484C48.1406 84.484 48.078 84.3589 48.078 84.2061C48.078 84.0532 48.0155 83.9282 47.9391 83.9282C47.8627 83.9282 47.8001 83.7406 47.8001 83.5113C47.8001 83.282 47.7376 83.0944 47.6612 83.0944C47.5848 83.0944 47.5222 82.9068 47.5222 82.6776C47.5222 82.4483 47.4597 82.2607 47.3833 82.2607C47.3069 82.2607 47.2443 82.1356 47.2443 81.9828C47.2443 81.8299 47.1818 81.7049 47.1054 81.7049C47.0289 81.7049 46.9664 81.5173 46.9664 81.288C46.9664 81.0588 46.9039 80.8712 46.8275 80.8712C46.751 80.8712 46.6885 80.621 46.6885 80.3154C46.6885 80.0097 46.626 79.7595 46.5495 79.7595C46.4731 79.7595 46.4106 79.5719 46.4106 79.3427C46.4106 79.1134 46.3481 78.9258 46.2716 78.9258C46.1952 78.9258 46.1327 78.6757 46.1327 78.37C46.1327 78.0643 46.0702 77.8142 45.9937 77.8142C45.9173 77.8142 45.8548 77.7159 45.8548 77.5959C45.8548 77.344 45.5296 76.9805 45.3042 76.9805C45.0889 76.9805 44.1873 76.0556 44.1873 75.8346C44.1873 75.7343 44.0623 75.5622 43.9094 75.452C43.7566 75.3418 43.6315 75.1404 43.6315 75.0044C43.6315 74.8685 43.569 74.7572 43.4926 74.7572C43.4161 74.7572 43.3536 74.6321 43.3536 74.4793C43.3536 74.3264 43.2911 74.2014 43.2147 74.2014C43.1382 74.2014 43.0757 74.0138 43.0757 73.7845C43.0757 73.5552 43.0132 73.3677 42.9367 73.3677C42.8603 73.3677 42.7978 73.055 42.7978 72.6729C42.7978 72.2908 42.7353 71.9781 42.6588 71.9781C42.5685 71.9781 42.5199 70.079 42.5199 66.5589C42.5199 63.0388 42.5685 61.1397 42.6588 61.1397C42.7353 61.1397 42.7978 60.8271 42.7978 60.4449C42.7978 60.0628 42.8603 59.7502 42.9367 59.7502C43.0132 59.7502 43.0757 59.6251 43.0757 59.4723C43.0757 59.3194 43.1382 59.1944 43.2147 59.1944C43.2911 59.1944 43.3536 59.0693 43.3536 58.9165C43.3536 58.7636 43.4161 58.6385 43.4926 58.6385C43.569 58.6385 43.6315 58.5272 43.6315 58.3913C43.6315 58.2553 43.7566 58.054 43.9094 57.9438C44.0623 57.8336 44.1873 57.6573 44.1873 57.5519C44.1873 57.4467 44.3749 57.1852 44.6042 56.9711L45.0211 56.5817V47.4665C45.0211 41.4823 45.0687 38.3513 45.16 38.3513C45.2364 38.3513 45.299 38.0386 45.299 37.6565C45.299 37.2744 45.3615 36.9617 45.4379 36.9617C45.5143 36.9617 45.5769 36.7116 45.5769 36.4059C45.5769 36.1002 45.6394 35.8501 45.7158 35.8501C45.7923 35.8501 45.8548 35.6625 45.8548 35.4332C45.8548 35.204 45.9173 35.0164 45.9937 35.0164C46.0702 35.0164 46.1327 34.8288 46.1327 34.5995C46.1327 34.3702 46.1952 34.1827 46.2716 34.1827C46.3481 34.1827 46.4106 34.0576 46.4106 33.9048C46.4106 33.7519 46.4731 33.6268 46.5495 33.6268C46.626 33.6268 46.6885 33.5018 46.6885 33.3489C46.6885 33.1961 46.751 33.071 46.8275 33.071C46.9039 33.071 46.9664 32.946 46.9664 32.7931C46.9664 32.6403 47.0289 32.5152 47.1054 32.5152C47.1818 32.5152 47.2443 32.3902 47.2443 32.2373C47.2443 32.0845 47.3069 31.9594 47.3833 31.9594C47.4597 31.9594 47.5222 31.8343 47.5222 31.6815C47.5222 31.5286 47.5848 31.4036 47.6612 31.4036C47.7376 31.4036 47.8001 31.3037 47.8001 31.1814C47.8001 31.0593 47.9877 30.784 48.217 30.5699C48.4463 30.3557 48.6339 30.111 48.6339 30.0263C48.6339 29.8095 51.7877 26.6791 52.0061 26.6791C52.1046 26.6791 52.2754 26.5541 52.3856 26.4012C52.4958 26.2484 52.6834 26.1233 52.8025 26.1233C52.9216 26.1233 53.1091 25.9983 53.2193 25.8454C53.3295 25.6926 53.5171 25.5675 53.6362 25.5675C53.7553 25.5675 53.9429 25.4425 54.0531 25.2896C54.1632 25.1368 54.3646 25.0117 54.5006 25.0117C54.6365 25.0117 54.7478 24.9492 54.7478 24.8727C54.7478 24.7963 54.8729 24.7338 55.0257 24.7338C55.1786 24.7338 55.3036 24.6713 55.3036 24.5948C55.3036 24.5184 55.4287 24.4559 55.5816 24.4559C55.7344 24.4559 55.8595 24.3934 55.8595 24.3169C55.8595 24.2405 56.0471 24.178 56.2763 24.178C56.5056 24.178 56.6932 24.1154 56.6932 24.039C56.6932 23.9626 56.8182 23.9001 56.9711 23.9001C57.1239 23.9001 57.249 23.8375 57.249 23.7611C57.249 23.6847 57.4366 23.6222 57.6659 23.6222C57.8951 23.6222 58.0827 23.5596 58.0827 23.4832C58.0827 23.4068 58.2703 23.3443 58.4996 23.3443C58.7289 23.3443 58.9164 23.2817 58.9164 23.2053C58.9164 23.1289 59.104 23.0663 59.3333 23.0663C59.5626 23.0663 59.7502 23.0038 59.7502 22.9274C59.7502 22.851 60.0003 22.7884 60.306 22.7884C60.6117 22.7884 60.8618 22.7259 60.8618 22.6495C60.8618 22.5731 61.1119 22.5105 61.4176 22.5105C61.7233 22.5105 61.9734 22.448 61.9734 22.3716C61.9734 22.2943 62.344 22.2326 62.8072 22.2326C63.2703 22.2326 63.6409 22.1709 63.6409 22.0937C63.6409 22.0143 64.0577 21.9547 64.6136 21.9547C65.1694 21.9547 65.5862 21.8951 65.5862 21.8158C65.5862 21.7289 66.42 21.6768 67.8095 21.6768C69.199 21.6768 70.0328 21.6247 70.0328 21.5379C70.0328 21.4568 70.4959 21.3989 71.1444 21.3989C71.7929 21.3989 72.256 21.4568 72.256 21.5379C72.256 21.6247 73.0897 21.6768 74.4793 21.6768C75.8688 21.6768 76.7025 21.7289 76.7025 21.8158C76.7025 21.8951 77.1194 21.9547 77.6752 21.9547C78.231 21.9547 78.6479 22.0143 78.6479 22.0937C78.6479 22.1709 79.0185 22.2326 79.4816 22.2326C79.9448 22.2326 80.3153 22.2943 80.3153 22.3716C80.3153 22.448 80.5655 22.5105 80.8712 22.5105C81.1769 22.5105 81.427 22.5731 81.427 22.6495C81.427 22.7259 81.6771 22.7884 81.9828 22.7884C82.2885 22.7884 82.5386 22.851 82.5386 22.9274C82.5386 23.0038 82.7262 23.0663 82.9555 23.0663C83.1847 23.0663 83.3723 23.1289 83.3723 23.2053C83.3723 23.2817 83.5599 23.3443 83.7892 23.3443C84.0185 23.3443 84.2061 23.4068 84.2061 23.4832C84.2061 23.5596 84.3936 23.6222 84.6229 23.6222C84.8522 23.6222 85.0398 23.6847 85.0398 23.7611C85.0398 23.8375 85.1648 23.9001 85.3177 23.9001C85.4705 23.9001 85.5956 23.9626 85.5956 24.039C85.5956 24.1154 85.7832 24.178 86.0125 24.178C86.2417 24.178 86.4293 24.2405 86.4293 24.3169C86.4293 24.3934 86.5544 24.4559 86.7072 24.4559C86.8601 24.4559 86.9851 24.5184 86.9851 24.5948C86.9851 24.6713 87.1102 24.7338 87.263 24.7338C87.4159 24.7338 87.5409 24.7963 87.5409 24.8727C87.5409 24.9492 87.6522 25.0117 87.7881 25.0117C87.9242 25.0117 88.1255 25.1368 88.2357 25.2896C88.3459 25.4425 88.5472 25.5675 88.6833 25.5675C88.8192 25.5675 88.9305 25.63 88.9305 25.7065C88.9305 25.7829 89.0304 25.8454 89.1527 25.8454C89.2748 25.8454 89.5501 26.033 89.7642 26.2623C89.9783 26.4916 90.223 26.6791 90.3078 26.6791C90.5246 26.6791 93.6549 29.833 93.6549 30.0514C93.6549 30.1499 93.78 30.3207 93.9328 30.4309C94.0857 30.5411 94.2107 30.7287 94.2107 30.8478C94.2107 30.9668 94.3358 31.1544 94.4886 31.2646C94.6415 31.3748 94.7665 31.5762 94.7665 31.7122C94.7665 31.8481 94.8291 31.9594 94.9055 31.9594C94.9819 31.9594 95.0445 32.0845 95.0445 32.2373C95.0445 32.3902 95.107 32.5152 95.1834 32.5152C95.2598 32.5152 95.3224 32.6403 95.3224 32.7931C95.3224 32.946 95.3849 33.071 95.4613 33.071C95.5377 33.071 95.6003 33.1961 95.6003 33.3489C95.6003 33.5018 95.6628 33.6268 95.7392 33.6268C95.8157 33.6268 95.8782 33.7519 95.8782 33.9048C95.8782 34.0576 95.9407 34.1827 96.0171 34.1827C96.0936 34.1827 96.1561 34.3702 96.1561 34.5995C96.1561 34.8288 96.2186 35.0164 96.295 35.0164C96.3715 35.0164 96.434 35.204 96.434 35.4332C96.434 35.6625 96.4965 35.8501 96.573 35.8501C96.6494 35.8501 96.7119 36.1002 96.7119 36.4059C96.7119 36.7116 96.7744 36.9617 96.8509 36.9617C96.9273 36.9617 96.9898 37.2744 96.9898 37.6565C96.9898 38.0386 97.0523 38.3513 97.1288 38.3513C97.2201 38.3513 97.2677 41.4823 97.2677 47.4665V56.5817L97.6846 56.9711C97.9139 57.1852 98.1014 57.4467 98.1014 57.5519C98.1014 57.6573 98.2265 57.8336 98.3793 57.9438C98.5322 58.054 98.6573 58.2553 98.6573 58.3913C98.6573 58.5272 98.7198 58.6385 98.7962 58.6385C98.8726 58.6385 98.9352 58.7636 98.9352 58.9165C98.9352 59.0693 98.9977 59.1944 99.0741 59.1944C99.1505 59.1944 99.2131 59.3819 99.2131 59.6112C99.2131 59.8405 99.2756 60.0281 99.352 60.0281C99.4285 60.0281 99.491 60.3407 99.491 60.7229C99.491 61.105 99.5535 61.4176 99.6299 61.4176C99.7201 61.4176 99.7689 63.2703 99.7689 66.6979C99.7689 70.1254 99.7201 71.9781 99.6299 71.9781C99.5535 71.9781 99.491 72.2908 99.491 72.6729C99.491 73.055 99.4285 73.3677 99.352 73.3677C99.2756 73.3677 99.2131 73.5552 99.2131 73.7845C99.2131 74.0138 99.1505 74.2014 99.0741 74.2014C98.9977 74.2014 98.9352 74.3264 98.9352 74.4793C98.9352 74.6321 98.8726 74.7572 98.7962 74.7572C98.7198 74.7572 98.6573 74.8685 98.6573 75.0044C98.6573 75.1404 98.5322 75.3418 98.3793 75.452C98.2265 75.5622 98.1014 75.7343 98.1014 75.8346C98.1014 76.0717 97.1927 76.9805 96.9556 76.9805C96.8553 76.9805 96.6831 77.1055 96.573 77.2584C96.4628 77.4112 96.2614 77.5363 96.1254 77.5363C95.9895 77.5363 95.8782 77.5988 95.8782 77.6752C95.8782 77.7516 95.7531 77.8142 95.6003 77.8142C95.4474 77.8142 95.3224 77.8767 95.3224 77.9531C95.3224 78.0296 95.2241 78.0921 95.1041 78.0921C94.8232 78.0921 94.4886 78.4267 94.4886 78.7075C94.4886 78.8276 94.4261 78.9258 94.3497 78.9258C94.2733 78.9258 94.2107 79.1134 94.2107 79.3427C94.2107 79.5719 94.1482 79.7595 94.0718 79.7595C93.9954 79.7595 93.9328 79.9471 93.9328 80.1764C93.9328 80.4057 93.8703 80.5933 93.7939 80.5933C93.7174 80.5933 93.6549 80.7183 93.6549 80.8712C93.6549 81.024 93.5924 81.1491 93.516 81.1491C93.4395 81.1491 93.377 81.3367 93.377 81.5659C93.377 81.7952 93.3145 81.9828 93.2381 81.9828C93.1616 81.9828 93.0991 82.1079 93.0991 82.2607C93.0991 82.4136 93.0366 82.5386 92.9601 82.5386C92.8837 82.5386 92.8212 82.7262 92.8212 82.9555C92.8212 83.1847 92.7587 83.3723 92.6822 83.3723C92.6058 83.3723 92.5433 83.4974 92.5433 83.6502C92.5433 83.8031 92.4808 83.9282 92.4043 83.9282C92.3279 83.9282 92.2654 84.0532 92.2654 84.2061C92.2654 84.3589 92.2029 84.484 92.1264 84.484C92.05 84.484 91.9875 84.609 91.9875 84.7619C91.9875 84.9147 91.9249 85.0398 91.8485 85.0398C91.7721 85.0398 91.7096 85.1648 91.7096 85.3177C91.7096 85.4705 91.647 85.5956 91.5706 85.5956C91.4942 85.5956 91.4317 85.7207 91.4317 85.8735C91.4317 86.0264 91.3691 86.1514 91.2927 86.1514C91.2163 86.1514 91.1537 86.2765 91.1537 86.4293C91.1537 86.5822 91.0912 86.7072 91.0148 86.7072C90.9384 86.7072 90.8758 86.8323 90.8758 86.9851C90.8758 87.138 90.8133 87.263 90.7369 87.263C90.6605 87.263 90.5979 87.3881 90.5979 87.541C90.5979 87.6938 90.5354 87.8189 90.459 87.8189C90.3826 87.8189 90.32 87.9302 90.32 88.0661C90.32 88.2021 90.195 88.4034 90.0421 88.5136C89.8893 88.6238 89.7642 88.8252 89.7642 88.9612C89.7642 89.0971 89.7017 89.2084 89.6253 89.2084C89.5488 89.2084 89.4863 89.3197 89.4863 89.4556C89.4863 89.5916 89.3612 89.793 89.2084 89.9032C89.0555 90.0134 88.9305 90.2147 88.9305 90.3507C88.9305 90.4866 88.868 90.5979 88.7915 90.5979C88.7151 90.5979 88.6526 90.7092 88.6526 90.8451C88.6526 90.9812 88.5275 91.1825 88.3747 91.2927C88.2218 91.4029 88.0968 91.5792 88.0968 91.6846C88.0968 91.7897 87.9092 92.0513 87.6799 92.2654C87.4506 92.4795 87.263 92.7296 87.263 92.8212C87.263 92.9128 87.0754 93.1629 86.8462 93.377C86.6169 93.5911 86.4293 93.84 86.4293 93.93C86.4293 94.02 86.1792 94.3339 85.8735 94.6276L85.3177 95.1616V100.244C85.3177 103.54 85.3666 105.327 85.4566 105.327C85.5331 105.327 85.5956 105.64 85.5956 106.022C85.5956 106.404 85.6581 106.717 85.7345 106.717C85.811 106.717 85.8735 106.842 85.8735 106.994C85.8735 107.147 85.936 107.272 86.0125 107.272C86.0889 107.272 86.1514 107.446 86.1514 107.659C86.1514 107.885 86.2662 108.127 86.4293 108.245C86.5822 108.355 86.7072 108.543 86.7072 108.662C86.7072 108.781 86.8323 108.969 86.9851 109.079C87.138 109.189 87.263 109.36 87.263 109.46C87.263 109.695 88.7308 111.163 88.9663 111.163C89.0657 111.163 89.2372 111.288 89.3473 111.441C89.4575 111.594 89.6589 111.719 89.7949 111.719C89.9308 111.719 90.0421 111.781 90.0421 111.858C90.0421 111.934 90.1672 111.997 90.32 111.997C90.4729 111.997 90.5979 112.059 90.5979 112.136C90.5979 112.212 90.723 112.275 90.8758 112.275C91.0287 112.275 91.1537 112.337 91.1537 112.414C91.1537 112.49 91.2788 112.553 91.4317 112.553C91.5845 112.553 91.7096 112.615 91.7096 112.692C91.7096 112.768 91.8346 112.831 91.9875 112.831C92.1403 112.831 92.2654 112.893 92.2654 112.97C92.2654 113.046 92.3904 113.108 92.5433 113.108C92.6961 113.108 92.8212 113.171 92.8212 113.247C92.8212 113.324 92.9463 113.386 93.0991 113.386C93.252 113.386 93.377 113.449 93.377 113.525C93.377 113.602 93.5021 113.664 93.6549 113.664C93.8078 113.664 93.9328 113.727 93.9328 113.803C93.9328 113.88 94.0579 113.942 94.2107 113.942C94.3636 113.942 94.4886 114.005 94.4886 114.081C94.4886 114.158 94.6137 114.22 94.7665 114.22C94.9194 114.22 95.0445 114.283 95.0445 114.359C95.0445 114.435 95.1695 114.498 95.3224 114.498C95.4752 114.498 95.6003 114.561 95.6003 114.637C95.6003 114.713 95.7253 114.776 95.8782 114.776C96.031 114.776 96.1561 114.838 96.1561 114.915C96.1561 114.991 96.2811 115.054 96.434 115.054C96.5868 115.054 96.7119 115.116 96.7119 115.193C96.7119 115.269 96.837 115.332 96.9898 115.332C97.1427 115.332 97.2677 115.394 97.2677 115.471C97.2677 115.547 97.3928 115.61 97.5456 115.61C97.6985 115.61 97.8235 115.672 97.8235 115.749C97.8235 115.825 97.9486 115.888 98.1014 115.888C98.2543 115.888 98.3793 115.95 98.3793 116.026C98.3793 116.103 98.5044 116.165 98.6573 116.165C98.8101 116.165 98.9352 116.228 98.9352 116.304C98.9352 116.381 99.0602 116.443 99.2131 116.443C99.3659 116.443 99.491 116.506 99.491 116.582C99.491 116.659 99.616 116.721 99.7689 116.721C99.9217 116.721 100.047 116.784 100.047 116.86C100.047 116.937 100.172 116.999 100.325 116.999C100.478 116.999 100.603 117.062 100.603 117.138C100.603 117.215 100.728 117.277 100.881 117.277C101.033 117.277 101.158 117.34 101.158 117.416C101.158 117.492 101.283 117.555 101.436 117.555C101.589 117.555 101.714 117.618 101.714 117.694C101.714 117.77 101.839 117.833 101.992 117.833C102.145 117.833 102.27 117.895 102.27 117.972C102.27 118.048 102.395 118.111 102.548 118.111C102.701 118.111 102.826 118.173 102.826 118.25C102.826 118.326 102.951 118.389 103.104 118.389C103.257 118.389 103.382 118.451 103.382 118.528C103.382 118.604 103.507 118.667 103.66 118.667C103.812 118.667 103.938 118.729 103.938 118.806C103.938 118.882 104.063 118.945 104.215 118.945C104.368 118.945 104.493 119.007 104.493 119.083C104.493 119.16 104.618 119.222 104.771 119.222C104.924 119.222 105.049 119.285 105.049 119.361C105.049 119.438 105.174 119.5 105.327 119.5C105.48 119.5 105.605 119.563 105.605 119.639C105.605 119.716 105.73 119.778 105.883 119.778C106.036 119.778 106.161 119.841 106.161 119.917C106.161 119.994 106.286 120.056 106.439 120.056C106.592 120.056 106.717 120.119 106.717 120.195C106.717 120.272 106.842 120.334 106.994 120.334C107.147 120.334 107.272 120.397 107.272 120.473C107.272 120.549 107.397 120.612 107.55 120.612C107.703 120.612 107.828 120.675 107.828 120.751C107.828 120.827 107.953 120.89 108.106 120.89C108.259 120.89 108.384 120.952 108.384 121.029C108.384 121.105 108.509 121.168 108.662 121.168C108.815 121.168 108.94 121.23 108.94 121.307C108.94 121.383 109.065 121.446 109.218 121.446C109.371 121.446 109.496 121.508 109.496 121.585C109.496 121.661 109.621 121.724 109.774 121.724C109.926 121.724 110.051 121.786 110.051 121.863C110.051 121.939 110.177 122.002 110.329 122.002C110.482 122.002 110.607 122.064 110.607 122.14C110.607 122.217 110.732 122.279 110.885 122.279C111.038 122.279 111.163 122.342 111.163 122.418C111.163 122.495 111.288 122.557 111.441 122.557C111.594 122.557 111.719 122.62 111.719 122.696C111.719 122.773 111.844 122.835 111.997 122.835C112.15 122.835 112.275 122.898 112.275 122.974C112.275 123.051 112.4 123.113 112.553 123.113C112.705 123.113 112.831 123.176 112.831 123.252C112.831 123.329 112.956 123.391 113.108 123.391C113.261 123.391 113.386 123.454 113.386 123.53C113.386 123.606 113.498 123.669 113.634 123.669C113.77 123.669 113.971 123.794 114.081 123.947C114.191 124.1 114.379 124.225 114.498 124.225C114.617 124.225 114.805 124.35 114.915 124.503C115.025 124.656 115.201 124.781 115.307 124.781C115.412 124.781 115.673 124.968 115.888 125.197C116.102 125.427 116.372 125.614 116.488 125.614C116.603 125.614 116.724 125.691 116.755 125.785C116.787 125.88 117.246 125.515 117.802 124.951C118.347 124.399 118.858 123.947 118.939 123.947C119.13 123.947 123.947 119.13 123.947 118.939C123.947 118.858 124.385 118.361 124.92 117.833C125.455 117.305 125.892 116.803 125.892 116.717C125.892 116.631 126.142 116.32 126.448 116.026C126.754 115.733 127.004 115.42 127.004 115.332C127.004 115.243 127.254 114.931 127.56 114.637C127.865 114.343 128.115 114.018 128.115 113.914C128.115 113.81 128.241 113.636 128.393 113.525C128.546 113.415 128.671 113.239 128.671 113.133C128.671 113.028 128.859 112.767 129.088 112.553C129.317 112.339 129.505 112.077 129.505 111.972C129.505 111.867 129.63 111.69 129.783 111.58C129.936 111.47 130.061 111.282 130.061 111.163C130.061 111.044 130.186 110.856 130.339 110.746C130.492 110.636 130.617 110.448 130.617 110.329C130.617 110.21 130.742 110.023 130.895 109.913C131.047 109.802 131.172 109.615 131.172 109.496C131.172 109.377 131.298 109.189 131.45 109.079C131.603 108.969 131.728 108.767 131.728 108.631C131.728 108.495 131.791 108.384 131.867 108.384C131.944 108.384 132.006 108.273 132.006 108.137C132.006 108.001 132.131 107.799 132.284 107.689C132.437 107.579 132.562 107.378 132.562 107.242C132.562 107.106 132.625 106.994 132.701 106.994C132.777 106.994 132.84 106.883 132.84 106.747C132.84 106.611 132.965 106.41 133.118 106.3C133.271 106.19 133.396 105.988 133.396 105.852C133.396 105.716 133.458 105.605 133.535 105.605C133.611 105.605 133.674 105.48 133.674 105.327C133.674 105.174 133.736 105.049 133.813 105.049C133.889 105.049 133.952 104.924 133.952 104.771C133.952 104.618 134.014 104.493 134.09 104.493C134.167 104.493 134.229 104.368 134.229 104.215C134.229 104.063 134.292 103.938 134.368 103.938C134.445 103.938 134.507 103.812 134.507 103.66C134.507 103.507 134.57 103.382 134.646 103.382C134.723 103.382 134.785 103.257 134.785 103.104C134.785 102.951 134.848 102.826 134.924 102.826C135.001 102.826 135.063 102.701 135.063 102.548C135.063 102.395 135.126 102.27 135.202 102.27C135.279 102.27 135.341 102.145 135.341 101.992C135.341 101.839 135.404 101.714 135.48 101.714C135.556 101.714 135.619 101.589 135.619 101.436C135.619 101.283 135.682 101.158 135.758 101.158C135.834 101.158 135.897 101.033 135.897 100.881C135.897 100.728 135.959 100.603 136.036 100.603C136.112 100.603 136.175 100.478 136.175 100.325C136.175 100.172 136.237 100.047 136.314 100.047C136.39 100.047 136.453 99.8592 136.453 99.6299C136.453 99.4007 136.515 99.2131 136.592 99.2131C136.668 99.2131 136.731 99.088 136.731 98.9352C136.731 98.7823 136.793 98.6573 136.87 98.6573C136.946 98.6573 137.009 98.5322 137.009 98.3794C137.009 98.2265 137.071 98.1014 137.147 98.1014C137.224 98.1014 137.286 97.9139 137.286 97.6846C137.286 97.4553 137.349 97.2677 137.425 97.2677C137.502 97.2677 137.564 97.1427 137.564 96.9898C137.564 96.837 137.627 96.7119 137.703 96.7119C137.78 96.7119 137.842 96.5243 137.842 96.295C137.842 96.0658 137.905 95.8782 137.981 95.8782C138.058 95.8782 138.12 95.6906 138.12 95.4613C138.12 95.232 138.183 95.0445 138.259 95.0445C138.336 95.0445 138.398 94.8569 138.398 94.6276C138.398 94.3983 138.461 94.2107 138.537 94.2107C138.613 94.2107 138.676 94.0232 138.676 93.7939C138.676 93.5646 138.739 93.377 138.815 93.377C138.891 93.377 138.954 93.1894 138.954 92.9602C138.954 92.7309 139.016 92.5433 139.093 92.5433C139.169 92.5433 139.232 92.3557 139.232 92.1264C139.232 91.8972 139.294 91.7096 139.371 91.7096C139.447 91.7096 139.51 91.522 139.51 91.2927C139.51 91.0634 139.572 90.8758 139.649 90.8758C139.725 90.8758 139.788 90.6257 139.788 90.32C139.788 90.0143 139.85 89.7642 139.927 89.7642C140.003 89.7642 140.066 89.5141 140.066 89.2084C140.066 88.9027 140.128 88.6526 140.204 88.6526C140.281 88.6526 140.343 88.4025 140.343 88.0968C140.343 87.7911 140.406 87.541 140.482 87.541C140.559 87.541 140.621 87.2908 140.621 86.9851C140.621 86.6794 140.684 86.4293 140.76 86.4293C140.837 86.4293 140.899 86.1167 140.899 85.7346C140.899 85.3524 140.962 85.0398 141.038 85.0398C141.115 85.0398 141.177 84.6692 141.177 84.2061C141.177 83.7429 141.239 83.3723 141.316 83.3723C141.393 83.3723 141.455 83.0017 141.455 82.5386C141.455 82.0755 141.517 81.7049 141.594 81.7049C141.673 81.7049 141.733 81.288 141.733 80.7322C141.733 80.1764 141.793 79.7595 141.872 79.7595C141.955 79.7595 142.011 79.2087 142.011 78.3849C142.011 77.2912 142.054 76.9938 142.219 76.9302C142.4 76.8608 142.428 76.0736 142.428 71.0142C142.428 65.8836 142.403 65.1877 142.219 65.258C142.043 65.326 142.011 65.1249 142.011 63.9337C142.011 63.0901 141.955 62.5293 141.872 62.5293C141.793 62.5293 141.733 62.1124 141.733 61.5566C141.733 61.0008 141.673 60.5839 141.594 60.5839C141.515 60.5839 141.455 60.167 141.455 59.6112C141.455 59.0554 141.395 58.6385 141.316 58.6385C141.24 58.6385 141.177 58.3259 141.177 57.9438C141.177 57.5616 141.115 57.249 141.038 57.249C140.962 57.249 140.899 56.9364 140.899 56.5542C140.899 56.1721 140.837 55.8595 140.76 55.8595C140.684 55.8595 140.621 55.6093 140.621 55.3036C140.621 54.998 140.559 54.7478 140.482 54.7478C140.406 54.7478 140.343 54.4977 140.343 54.192C140.343 53.8863 140.281 53.6362 140.204 53.6362C140.128 53.6362 140.066 53.3861 140.066 53.0804C140.066 52.7747 140.003 52.5246 139.927 52.5246C139.85 52.5246 139.788 52.2745 139.788 51.9688C139.788 51.6631 139.725 51.4129 139.649 51.4129C139.572 51.4129 139.51 51.2254 139.51 50.9961C139.51 50.7668 139.447 50.5792 139.371 50.5792C139.294 50.5792 139.232 50.3916 139.232 50.1624C139.232 49.9331 139.169 49.7455 139.093 49.7455C139.016 49.7455 138.954 49.5579 138.954 49.3286C138.954 49.0994 138.891 48.9118 138.815 48.9118C138.739 48.9118 138.676 48.7242 138.676 48.4949C138.676 48.2656 138.613 48.078 138.537 48.078C138.461 48.078 138.398 47.8905 138.398 47.6612C138.398 47.4319 138.336 47.2443 138.259 47.2443C138.183 47.2443 138.12 47.0567 138.12 46.8275C138.12 46.5982 138.058 46.4106 137.981 46.4106C137.905 46.4106 137.842 46.223 137.842 45.9937C137.842 45.7645 137.78 45.5769 137.703 45.5769C137.627 45.5769 137.564 45.4518 137.564 45.299C137.564 45.1461 137.502 45.0211 137.425 45.0211C137.349 45.0211 137.286 44.8335 137.286 44.6042C137.286 44.3749 137.224 44.1873 137.147 44.1873C137.071 44.1873 137.009 44.0623 137.009 43.9094C137.009 43.7566 136.946 43.6315 136.87 43.6315C136.793 43.6315 136.731 43.5065 136.731 43.3536C136.731 43.2008 136.668 43.0757 136.592 43.0757C136.515 43.0757 136.453 42.8881 136.453 42.6588C136.453 42.4296 136.39 42.242 136.314 42.242C136.237 42.242 136.175 42.1169 136.175 41.9641C136.175 41.8112 136.112 41.6862 136.036 41.6862C135.959 41.6862 135.897 41.5611 135.897 41.4083C135.897 41.2554 135.834 41.1304 135.758 41.1304C135.682 41.1304 135.619 41.0053 135.619 40.8524C135.619 40.6996 135.556 40.5745 135.48 40.5745C135.404 40.5745 135.341 40.4495 135.341 40.2966C135.341 40.1438 135.279 40.0187 135.202 40.0187C135.126 40.0187 135.063 39.8937 135.063 39.7408C135.063 39.588 135.001 39.4629 134.924 39.4629C134.848 39.4629 134.785 39.3378 134.785 39.185C134.785 39.0322 134.723 38.9071 134.646 38.9071C134.57 38.9071 134.507 38.782 134.507 38.6292C134.507 38.4763 134.445 38.3513 134.368 38.3513C134.292 38.3513 134.229 38.2262 134.229 38.0734C134.229 37.9205 134.167 37.7955 134.09 37.7955C134.014 37.7955 133.952 37.6704 133.952 37.5176C133.952 37.3647 133.889 37.2396 133.813 37.2396C133.736 37.2396 133.674 37.1146 133.674 36.9617C133.674 36.8089 133.611 36.6838 133.535 36.6838C133.458 36.6838 133.396 36.5725 133.396 36.4366C133.396 36.3006 133.271 36.0992 133.118 35.9891C132.965 35.8789 132.84 35.6775 132.84 35.5415C132.84 35.4056 132.777 35.2943 132.701 35.2943C132.625 35.2943 132.562 35.1692 132.562 35.0164C132.562 34.8635 132.499 34.7385 132.423 34.7385C132.347 34.7385 132.284 34.6272 132.284 34.4913C132.284 34.3552 132.159 34.1539 132.006 34.0437C131.853 33.9335 131.728 33.7459 131.728 33.6268C131.728 33.5078 131.603 33.3202 131.45 33.21C131.298 33.0998 131.172 32.9122 131.172 32.7931C131.172 32.674 131.047 32.4864 130.895 32.3763C130.742 32.2661 130.617 32.0785 130.617 31.9594C130.617 31.8403 130.492 31.6527 130.339 31.5425C130.186 31.4323 130.061 31.2448 130.061 31.1257C130.061 31.0066 129.936 30.819 129.783 30.7088C129.63 30.5986 129.505 30.411 129.505 30.2919C129.505 30.1729 129.38 29.9853 129.227 29.8751C129.074 29.7649 128.949 29.5886 128.949 29.4832C128.949 29.378 128.762 29.1165 128.532 28.9024C128.303 28.6883 128.115 28.4382 128.115 28.3466C128.115 28.255 127.928 28.0049 127.699 27.7908C127.469 27.5767 127.282 27.3286 127.282 27.2397C127.282 27.1508 126.969 26.7735 126.587 26.4012C126.205 26.029 125.892 25.6545 125.892 25.5689C125.892 25.4832 125.517 25.0449 125.058 24.5948C124.6 24.1448 124.225 23.7101 124.225 23.629C124.225 23.4362 118.853 18.064 118.66 18.064C118.579 18.064 118.144 17.6888 117.694 17.2303C117.244 16.7717 116.806 16.3966 116.72 16.3966C116.634 16.3966 116.26 16.0839 115.888 15.7018C115.515 15.3197 115.138 15.007 115.049 15.007C114.96 15.007 114.712 14.8194 114.498 14.5902C114.284 14.3609 114.034 14.1733 113.942 14.1733C113.851 14.1733 113.6 13.9857 113.386 13.7564C113.172 13.5272 112.911 13.3396 112.806 13.3396C112.7 13.3396 112.524 13.2145 112.414 13.0617C112.303 12.9088 112.116 12.7838 111.997 12.7838C111.878 12.7838 111.69 12.6587 111.58 12.5059C111.47 12.353 111.282 12.2279 111.163 12.2279C111.044 12.2279 110.856 12.1029 110.746 11.95C110.636 11.7972 110.448 11.6721 110.329 11.6721C110.21 11.6721 110.023 11.5471 109.913 11.3942C109.802 11.2414 109.615 11.1163 109.496 11.1163C109.377 11.1163 109.189 10.9913 109.079 10.8384C108.969 10.6856 108.781 10.5605 108.662 10.5605C108.543 10.5605 108.355 10.4354 108.245 10.2826C108.135 10.1297 107.934 10.0047 107.798 10.0047C107.662 10.0047 107.55 9.94215 107.55 9.86573C107.55 9.7893 107.425 9.72677 107.272 9.72677C107.12 9.72677 106.994 9.66424 106.994 9.58782C106.994 9.51139 106.883 9.44886 106.747 9.44886C106.611 9.44886 106.41 9.32381 106.3 9.17096C106.19 9.01811 105.988 8.89305 105.852 8.89305C105.716 8.89305 105.605 8.83052 105.605 8.7541C105.605 8.67767 105.48 8.61514 105.327 8.61514C105.174 8.61514 105.049 8.55261 105.049 8.47619C105.049 8.39976 104.924 8.33723 104.771 8.33723C104.618 8.33723 104.493 8.2747 104.493 8.19828C104.493 8.12185 104.368 8.05933 104.215 8.05933C104.063 8.05933 103.938 7.9968 103.938 7.92037C103.938 7.84395 103.812 7.78142 103.66 7.78142C103.507 7.78142 103.382 7.71889 103.382 7.64246C103.382 7.56604 103.257 7.50351 103.104 7.50351C102.951 7.50351 102.826 7.44098 102.826 7.36456C102.826 7.28813 102.701 7.2256 102.548 7.2256C102.395 7.2256 102.27 7.16307 102.27 7.08665C102.27 7.01022 102.145 6.94769 101.992 6.94769C101.839 6.94769 101.714 6.88517 101.714 6.80874C101.714 6.73232 101.589 6.66979 101.436 6.66979C101.283 6.66979 101.158 6.60726 101.158 6.53083C101.158 6.45441 101.033 6.39188 100.881 6.39188C100.728 6.39188 100.603 6.32935 100.603 6.25293C100.603 6.1765 100.478 6.11397 100.325 6.11397C100.172 6.11397 100.047 6.05144 100.047 5.97502C100.047 5.89859 99.9217 5.83606 99.7689 5.83606C99.616 5.83606 99.491 5.77353 99.491 5.69711C99.491 5.62069 99.3034 5.55816 99.0741 5.55816C98.8448 5.55816 98.6573 5.49563 98.6573 5.4192C98.6573 5.34278 98.5322 5.28025 98.3793 5.28025C98.2265 5.28025 98.1014 5.21772 98.1014 5.14129C98.1014 5.06487 97.9139 5.00234 97.6846 5.00234C97.4553 5.00234 97.2677 4.93981 97.2677 4.86339C97.2677 4.78696 97.1427 4.72443 96.9898 4.72443C96.837 4.72443 96.7119 4.6619 96.7119 4.58548C96.7119 4.50905 96.5243 4.44652 96.295 4.44652C96.0658 4.44652 95.8782 4.384 95.8782 4.30757C95.8782 4.23115 95.6906 4.16862 95.4613 4.16862C95.232 4.16862 95.0445 4.10609 95.0445 4.02966C95.0445 3.95324 94.8569 3.89071 94.6276 3.89071C94.3983 3.89071 94.2107 3.82818 94.2107 3.75175C94.2107 3.67533 94.0857 3.6128 93.9328 3.6128C93.78 3.6128 93.6549 3.55027 93.6549 3.47385C93.6549 3.39742 93.4048 3.33489 93.0991 3.33489C92.7934 3.33489 92.5433 3.27236 92.5433 3.19594C92.5433 3.11951 92.3557 3.05699 92.1264 3.05699C91.8971 3.05699 91.7096 2.99446 91.7096 2.91803C91.7096 2.84161 91.522 2.77908 91.2927 2.77908C91.0634 2.77908 90.8758 2.71655 90.8758 2.64012C90.8758 2.5637 90.6257 2.50117 90.32 2.50117C90.0143 2.50117 89.7642 2.43864 89.7642 2.36222C89.7642 2.28579 89.5141 2.22326 89.2084 2.22326C88.9027 2.22326 88.6526 2.16073 88.6526 2.08431C88.6526 2.00788 88.4025 1.94535 88.0968 1.94535C87.7911 1.94535 87.5409 1.88283 87.5409 1.8064C87.5409 1.72998 87.2908 1.66745 86.9851 1.66745C86.6794 1.66745 86.4293 1.60492 86.4293 1.52849C86.4293 1.45207 86.1167 1.38954 85.7345 1.38954C85.3524 1.38954 85.0398 1.32701 85.0398 1.25059C85.0398 1.17416 84.7271 1.11163 84.345 1.11163C83.9629 1.11163 83.6502 1.0491 83.6502 0.972677C83.6502 0.895419 83.2796 0.833723 82.8165 0.833723C82.3534 0.833723 81.9828 0.772028 81.9828 0.694769C81.9828 0.613759 81.5197 0.555816 80.8712 0.555816C80.2227 0.555816 79.7595 0.497872 79.7595 0.416862C79.7595 0.333489 79.2037 0.277908 78.37 0.277908C77.5363 0.277908 76.9805 0.222326 76.9805 0.138954C76.9805 0.0484949 74.8961 0 71.0054 0C67.1147 0 65.0304 0.0484949 65.0304 0.138954ZM0.0636409 71.1444C0.0636409 74.3924 0.0818438 75.7213 0.104076 74.0972C0.126309 72.4732 0.126309 69.8157 0.104076 68.1916C0.0818438 66.5677 0.0636409 67.8963 0.0636409 71.1444Z" fill="#80BE41"/>
<path fill-rule="evenodd" clip-rule="evenodd" d="M70.0328 21.5379C70.0328 21.6247 69.199 21.6768 67.8095 21.6768C66.42 21.6768 65.5862 21.7289 65.5862 21.8158C65.5862 21.8951 65.1694 21.9547 64.6136 21.9547C64.0577 21.9547 63.6409 22.0143 63.6409 22.0937C63.6409 22.1709 63.2703 22.2326 62.8072 22.2326C62.344 22.2326 61.9734 22.2943 61.9734 22.3716C61.9734 22.448 61.7233 22.5105 61.4176 22.5105C61.1119 22.5105 60.8618 22.5731 60.8618 22.6495C60.8618 22.7259 60.6117 22.7884 60.306 22.7884C60.0003 22.7884 59.7502 22.851 59.7502 22.9274C59.7502 23.0038 59.5626 23.0663 59.3333 23.0663C59.104 23.0663 58.9164 23.1289 58.9164 23.2053C58.9164 23.2817 58.7289 23.3443 58.4996 23.3443C58.2703 23.3443 58.0827 23.4068 58.0827 23.4832C58.0827 23.5596 57.8951 23.6222 57.6659 23.6222C57.4366 23.6222 57.249 23.6847 57.249 23.7611C57.249 23.8375 57.1239 23.9001 56.9711 23.9001C56.8182 23.9001 56.6932 23.9626 56.6932 24.039C56.6932 24.1154 56.5056 24.178 56.2763 24.178C56.0471 24.178 55.8595 24.2405 55.8595 24.3169C55.8595 24.3934 55.7344 24.4559 55.5816 24.4559C55.4287 24.4559 55.3036 24.5184 55.3036 24.5948C55.3036 24.6713 55.1786 24.7338 55.0257 24.7338C54.8729 24.7338 54.7478 24.7963 54.7478 24.8727C54.7478 24.9492 54.6365 25.0117 54.5006 25.0117C54.3646 25.0117 54.1632 25.1368 54.0531 25.2896C53.9429 25.4425 53.7553 25.5675 53.6362 25.5675C53.5171 25.5675 53.3295 25.6926 53.2193 25.8454C53.1091 25.9983 52.9216 26.1233 52.8025 26.1233C52.6834 26.1233 52.4958 26.2484 52.3856 26.4012C52.2754 26.5541 52.1046 26.6791 52.0061 26.6791C51.7877 26.6791 48.6339 29.8095 48.6339 30.0263C48.6339 30.111 48.4463 30.3557 48.217 30.5699C47.9877 30.784 47.8001 31.0593 47.8001 31.1814C47.8001 31.3037 47.7376 31.4036 47.6612 31.4036C47.5848 31.4036 47.5222 31.5286 47.5222 31.6815C47.5222 31.8343 47.4597 31.9594 47.3833 31.9594C47.3069 31.9594 47.2443 32.0845 47.2443 32.2373C47.2443 32.3902 47.1818 32.5152 47.1054 32.5152C47.0289 32.5152 46.9664 32.6403 46.9664 32.7931C46.9664 32.946 46.9039 33.071 46.8275 33.071C46.751 33.071 46.6885 33.1961 46.6885 33.3489C46.6885 33.5018 46.626 33.6268 46.5495 33.6268C46.4731 33.6268 46.4106 33.7519 46.4106 33.9048C46.4106 34.0576 46.3481 34.1827 46.2716 34.1827C46.1952 34.1827 46.1327 34.3702 46.1327 34.5995C46.1327 34.8288 46.0702 35.0164 45.9937 35.0164C45.9173 35.0164 45.8548 35.204 45.8548 35.4332C45.8548 35.6625 45.7923 35.8501 45.7158 35.8501C45.6394 35.8501 45.5769 36.1002 45.5769 36.4059C45.5769 36.7116 45.5143 36.9617 45.4379 36.9617C45.3615 36.9617 45.299 37.2744 45.299 37.6565C45.299 38.0386 45.2364 38.3513 45.16 38.3513C45.0687 38.3513 45.0211 41.4823 45.0211 47.4665V56.5817L44.6042 56.9711C44.3749 57.1852 44.1873 57.4467 44.1873 57.5519C44.1873 57.6573 44.0623 57.8336 43.9094 57.9438C43.7566 58.054 43.6315 58.2553 43.6315 58.3913C43.6315 58.5272 43.569 58.6385 43.4926 58.6385C43.4161 58.6385 43.3536 58.7636 43.3536 58.9165C43.3536 59.0693 43.2911 59.1944 43.2147 59.1944C43.1382 59.1944 43.0757 59.3194 43.0757 59.4723C43.0757 59.6251 43.0132 59.7502 42.9367 59.7502C42.8603 59.7502 42.7978 60.0628 42.7978 60.4449C42.7978 60.8271 42.7353 61.1397 42.6588 61.1397C42.5685 61.1397 42.5199 63.0388 42.5199 66.5589C42.5199 70.079 42.5685 71.9781 42.6588 71.9781C42.7353 71.9781 42.7978 72.2908 42.7978 72.6729C42.7978 73.055 42.8603 73.3677 42.9367 73.3677C43.0132 73.3677 43.0757 73.5552 43.0757 73.7845C43.0757 74.0138 43.1382 74.2014 43.2147 74.2014C43.2911 74.2014 43.3536 74.3264 43.3536 74.4793C43.3536 74.6321 43.4161 74.7572 43.4926 74.7572C43.569 74.7572 43.6315 74.8685 43.6315 75.0044C43.6315 75.1404 43.7566 75.3418 43.9094 75.452C44.0623 75.5622 44.1873 75.7343 44.1873 75.8346C44.1873 76.0556 45.0889 76.9805 45.3042 76.9805C45.5296 76.9805 45.8548 77.344 45.8548 77.5959C45.8548 77.7159 45.9173 77.8142 45.9937 77.8142C46.0702 77.8142 46.1327 78.0643 46.1327 78.37C46.1327 78.6757 46.1952 78.9258 46.2716 78.9258C46.3481 78.9258 46.4106 79.1134 46.4106 79.3427C46.4106 79.5719 46.4731 79.7595 46.5495 79.7595C46.626 79.7595 46.6885 80.0097 46.6885 80.3154C46.6885 80.621 46.751 80.8712 46.8275 80.8712C46.9039 80.8712 46.9664 81.0588 46.9664 81.288C46.9664 81.5173 47.0289 81.7049 47.1054 81.7049C47.1818 81.7049 47.2443 81.8299 47.2443 81.9828C47.2443 82.1356 47.3069 82.2607 47.3833 82.2607C47.4597 82.2607 47.5222 82.4483 47.5222 82.6776C47.5222 82.9068 47.5848 83.0944 47.6612 83.0944C47.7376 83.0944 47.8001 83.282 47.8001 83.5113C47.8001 83.7406 47.8627 83.9282 47.9391 83.9282C48.0155 83.9282 48.078 84.0532 48.078 84.2061C48.078 84.3589 48.1406 84.484 48.217 84.484C48.2934 84.484 48.3559 84.609 48.3559 84.7619C48.3559 84.9147 48.4185 85.0398 48.4949 85.0398C48.5713 85.0398 48.6339 85.2274 48.6339 85.4566C48.6339 85.6859 48.6964 85.8735 48.7728 85.8735C48.8492 85.8735 48.9118 85.9986 48.9118 86.1514C48.9118 86.3043 48.9743 86.4293 49.0507 86.4293C49.1271 86.4293 49.1897 86.5544 49.1897 86.7072C49.1897 86.8601 49.2522 86.9851 49.3286 86.9851C49.4051 86.9851 49.4676 87.1102 49.4676 87.263C49.4676 87.4159 49.5301 87.541 49.6065 87.541C49.683 87.541 49.7455 87.666 49.7455 87.8189C49.7455 87.9717 49.808 88.0968 49.8844 88.0968C49.9609 88.0968 50.0234 88.2081 50.0234 88.344C50.0234 88.48 50.1485 88.6814 50.3013 88.7915C50.4542 88.9017 50.5792 89.1031 50.5792 89.2391C50.5792 89.375 50.6417 89.4863 50.7182 89.4863C50.7946 89.4863 50.8571 89.6114 50.8571 89.7642C50.8571 89.9171 50.9197 90.0421 50.9961 90.0421C51.0725 90.0421 51.135 90.1534 51.135 90.2893C51.135 90.4254 51.2601 90.6267 51.4129 90.7369C51.5658 90.8471 51.6908 91.0347 51.6908 91.1538C51.6908 91.2728 51.8159 91.4604 51.9688 91.5706C52.1216 91.6808 52.2467 91.8821 52.2467 92.0182C52.2467 92.1541 52.3092 92.2654 52.3856 92.2654C52.462 92.2654 52.5246 92.3653 52.5246 92.4876C52.5246 92.6097 52.7122 92.885 52.9414 93.0991C53.1707 93.3132 53.3583 93.5747 53.3583 93.6799C53.3583 93.7853 53.4833 93.9616 53.6362 94.0718C53.789 94.182 53.9141 94.3696 53.9141 94.4886C53.9141 94.6077 54.0392 94.7953 54.192 94.9055C54.4614 95.0998 54.4699 95.2653 54.4699 100.355C54.4699 103.762 54.4212 105.605 54.331 105.605C54.2545 105.605 54.192 105.855 54.192 106.161C54.192 106.466 54.1295 106.717 54.0531 106.717C53.9766 106.717 53.9141 106.904 53.9141 107.133C53.9141 107.363 53.8516 107.55 53.7752 107.55C53.6987 107.55 53.6362 107.662 53.6362 107.798C53.6362 107.934 53.5111 108.135 53.3583 108.245C53.2054 108.355 53.0804 108.532 53.0804 108.637C53.0804 108.742 52.8928 109.004 52.6635 109.218C52.4342 109.432 52.2467 109.68 52.2467 109.77C52.2467 109.98 51.8969 110.329 51.6871 110.329C51.5976 110.329 51.3492 110.517 51.135 110.746C50.9209 110.976 50.6594 111.163 50.5542 111.163C50.4489 111.163 50.2725 111.288 50.1624 111.441C50.0522 111.594 49.8508 111.719 49.7148 111.719C49.5789 111.719 49.4676 111.781 49.4676 111.858C49.4676 111.934 49.3425 111.997 49.1897 111.997C49.0368 111.997 48.9118 112.059 48.9118 112.136C48.9118 112.212 48.8005 112.275 48.6646 112.275C48.5285 112.275 48.3272 112.4 48.217 112.553C48.1068 112.706 47.9055 112.831 47.7694 112.831C47.6335 112.831 47.5222 112.893 47.5222 112.97C47.5222 113.046 47.3972 113.108 47.2443 113.108C47.0915 113.108 46.9664 113.171 46.9664 113.247C46.9664 113.324 46.8414 113.386 46.6885 113.386C46.5357 113.386 46.4106 113.449 46.4106 113.525C46.4106 113.602 46.2855 113.664 46.1327 113.664C45.9798 113.664 45.8548 113.727 45.8548 113.803C45.8548 113.88 45.7435 113.942 45.6076 113.942C45.4715 113.942 45.2702 114.067 45.16 114.22C45.0498 114.373 44.8485 114.498 44.7124 114.498C44.5765 114.498 44.4652 114.561 44.4652 114.637C44.4652 114.713 44.3402 114.776 44.1873 114.776C44.0345 114.776 43.9094 114.838 43.9094 114.915C43.9094 114.991 43.7844 115.054 43.6315 115.054C43.4787 115.054 43.3536 115.116 43.3536 115.193C43.3536 115.269 43.2286 115.332 43.0757 115.332C42.9229 115.332 42.7978 115.394 42.7978 115.471C42.7978 115.547 42.6865 115.61 42.5506 115.61C42.4146 115.61 42.2132 115.735 42.103 115.888C41.9928 116.04 41.7915 116.165 41.6555 116.165C41.5196 116.165 41.4083 116.228 41.4083 116.304C41.4083 116.381 41.2832 116.443 41.1303 116.443C40.9775 116.443 40.8524 116.506 40.8524 116.582C40.8524 116.659 40.7274 116.721 40.5745 116.721C40.4217 116.721 40.2966 116.784 40.2966 116.86C40.2966 116.937 40.1716 116.999 40.0187 116.999C39.8659 116.999 39.7408 117.062 39.7408 117.138C39.7408 117.215 39.6295 117.277 39.4936 117.277C39.3576 117.277 39.1562 117.402 39.046 117.555C38.9359 117.708 38.7345 117.833 38.5985 117.833C38.4626 117.833 38.3513 117.895 38.3513 117.972C38.3513 118.048 38.2262 118.111 38.0734 118.111C37.9205 118.111 37.7955 118.173 37.7955 118.25C37.7955 118.326 37.6704 118.389 37.5175 118.389C37.3647 118.389 37.2396 118.451 37.2396 118.528C37.2396 118.604 37.1146 118.667 36.9617 118.667C36.8089 118.667 36.6838 118.729 36.6838 118.806C36.6838 118.882 36.5725 118.945 36.4366 118.945C36.3006 118.945 36.0992 119.07 35.9891 119.222C35.8789 119.375 35.6775 119.5 35.5415 119.5C35.4056 119.5 35.2943 119.563 35.2943 119.639C35.2943 119.716 35.1692 119.778 35.0164 119.778C34.8635 119.778 34.7385 119.841 34.7385 119.917C34.7385 119.994 34.6134 120.056 34.4606 120.056C34.3077 120.056 34.1827 120.119 34.1827 120.195C34.1827 120.272 34.0576 120.334 33.9047 120.334C33.7519 120.334 33.6268 120.397 33.6268 120.473C33.6268 120.549 33.5155 120.612 33.3796 120.612C33.2436 120.612 33.0423 120.737 32.9321 120.89C32.8219 121.043 32.6205 121.168 32.4845 121.168C32.3486 121.168 32.2373 121.23 32.2373 121.307C32.2373 121.383 32.1122 121.446 31.9594 121.446C31.8065 121.446 31.6815 121.508 31.6815 121.585C31.6815 121.661 31.5564 121.724 31.4036 121.724C31.2507 121.724 31.1257 121.786 31.1257 121.863C31.1257 121.939 31.0006 122.002 30.8478 122.002C30.6949 122.002 30.5699 122.064 30.5699 122.14C30.5699 122.217 30.4586 122.279 30.3227 122.279C30.1866 122.279 29.9853 122.404 29.8751 122.557C29.7649 122.71 29.5635 122.835 29.4275 122.835C29.2916 122.835 29.1803 122.898 29.1803 122.974C29.1803 123.051 29.0553 123.113 28.9024 123.113C28.7496 123.113 28.6245 123.176 28.6245 123.252C28.6245 123.329 28.5132 123.391 28.3773 123.391C28.2413 123.391 28.0399 123.516 27.9297 123.669C27.8195 123.822 27.632 123.947 27.5129 123.947C27.3938 123.947 27.2062 124.072 27.096 124.225C26.9858 124.378 26.8141 124.503 26.7143 124.503C26.5435 124.503 25.2896 125.661 25.2896 125.819C25.2896 125.859 25.3883 125.892 25.5089 125.892C25.6296 125.892 25.9685 126.142 26.2623 126.448C26.556 126.754 26.8699 127.004 26.9598 127.004C27.0499 127.004 27.2987 127.191 27.5129 127.421C27.727 127.65 27.9771 127.838 28.0687 127.838C28.1603 127.838 28.4104 128.025 28.6245 128.254C28.8386 128.484 29.0887 128.671 29.1803 128.671C29.2719 128.671 29.522 128.859 29.7361 129.088C29.9503 129.317 30.2118 129.505 30.317 129.505C30.4223 129.505 30.5986 129.63 30.7088 129.783C30.819 129.936 31.0066 130.061 31.1257 130.061C31.2448 130.061 31.4323 130.186 31.5425 130.339C31.6527 130.492 31.8403 130.617 31.9594 130.617C32.0785 130.617 32.2661 130.742 32.3763 130.895C32.4864 131.047 32.674 131.172 32.7931 131.172C32.9122 131.172 33.0998 131.298 33.21 131.45C33.3202 131.603 33.5215 131.728 33.6575 131.728C33.7934 131.728 33.9047 131.791 33.9047 131.867C33.9047 131.944 34.016 132.006 34.1519 132.006C34.288 132.006 34.4893 132.131 34.5995 132.284C34.7097 132.437 34.9111 132.562 35.0471 132.562C35.183 132.562 35.2943 132.625 35.2943 132.701C35.2943 132.777 35.4056 132.84 35.5415 132.84C35.6775 132.84 35.8789 132.965 35.9891 133.118C36.0992 133.271 36.3006 133.396 36.4366 133.396C36.5725 133.396 36.6838 133.458 36.6838 133.535C36.6838 133.611 36.8089 133.674 36.9617 133.674C37.1146 133.674 37.2396 133.736 37.2396 133.813C37.2396 133.889 37.3647 133.952 37.5175 133.952C37.6704 133.952 37.7955 134.014 37.7955 134.09C37.7955 134.167 37.9205 134.229 38.0734 134.229C38.2262 134.229 38.3513 134.292 38.3513 134.368C38.3513 134.445 38.4763 134.507 38.6292 134.507C38.782 134.507 38.9071 134.57 38.9071 134.646C38.9071 134.723 39.0321 134.785 39.185 134.785C39.3378 134.785 39.4629 134.848 39.4629 134.924C39.4629 135.001 39.588 135.063 39.7408 135.063C39.8937 135.063 40.0187 135.126 40.0187 135.202C40.0187 135.279 40.1438 135.341 40.2966 135.341C40.4495 135.341 40.5745 135.404 40.5745 135.48C40.5745 135.556 40.6996 135.619 40.8524 135.619C41.0053 135.619 41.1303 135.682 41.1303 135.758C41.1303 135.834 41.2554 135.897 41.4083 135.897C41.5611 135.897 41.6862 135.959 41.6862 136.036C41.6862 136.112 41.8112 136.175 41.9641 136.175C42.1169 136.175 42.242 136.237 42.242 136.314C42.242 136.39 42.4296 136.453 42.6588 136.453C42.8881 136.453 43.0757 136.515 43.0757 136.592C43.0757 136.668 43.2008 136.731 43.3536 136.731C43.5065 136.731 43.6315 136.793 43.6315 136.87C43.6315 136.946 43.7566 137.009 43.9094 137.009C44.0623 137.009 44.1873 137.071 44.1873 137.147C44.1873 137.224 44.3749 137.286 44.6042 137.286C44.8335 137.286 45.0211 137.349 45.0211 137.425C45.0211 137.502 45.1461 137.564 45.299 137.564C45.4518 137.564 45.5769 137.627 45.5769 137.703C45.5769 137.78 45.7645 137.842 45.9937 137.842C46.223 137.842 46.4106 137.905 46.4106 137.981C46.4106 138.058 46.5982 138.12 46.8275 138.12C47.0567 138.12 47.2443 138.183 47.2443 138.259C47.2443 138.336 47.4319 138.398 47.6612 138.398C47.8905 138.398 48.078 138.461 48.078 138.537C48.078 138.613 48.2656 138.676 48.4949 138.676C48.7242 138.676 48.9118 138.739 48.9118 138.815C48.9118 138.891 49.0994 138.954 49.3286 138.954C49.5579 138.954 49.7455 139.016 49.7455 139.093C49.7455 139.169 49.9331 139.232 50.1624 139.232C50.3916 139.232 50.5792 139.294 50.5792 139.371C50.5792 139.447 50.7668 139.51 50.9961 139.51C51.2253 139.51 51.4129 139.572 51.4129 139.649C51.4129 139.725 51.6631 139.788 51.9688 139.788C52.2745 139.788 52.5246 139.85 52.5246 139.927C52.5246 140.003 52.7747 140.066 53.0804 140.066C53.3861 140.066 53.6362 140.128 53.6362 140.204C53.6362 140.281 53.8863 140.343 54.192 140.343C54.4977 140.343 54.7478 140.406 54.7478 140.482C54.7478 140.559 54.9979 140.621 55.3036 140.621C55.6093 140.621 55.8595 140.684 55.8595 140.76C55.8595 140.837 56.1721 140.899 56.5542 140.899C56.9364 140.899 57.249 140.962 57.249 141.038C57.249 141.115 57.6196 141.177 58.0827 141.177C58.5459 141.177 58.9164 141.239 58.9164 141.316C58.9164 141.393 59.287 141.455 59.7502 141.455C60.2133 141.455 60.5839 141.517 60.5839 141.594C60.5839 141.673 61.0008 141.733 61.5566 141.733C62.1124 141.733 62.5292 141.793 62.5292 141.872C62.5292 141.955 63.0851 142.011 63.9188 142.011C64.7525 142.011 65.3083 142.066 65.3083 142.15C65.3083 142.24 67.3464 142.289 71.1444 142.289C74.9424 142.289 76.9805 142.24 76.9805 142.15C76.9805 142.066 77.5363 142.011 78.37 142.011C79.2037 142.011 79.7595 141.955 79.7595 141.872C79.7595 141.793 80.1764 141.733 80.7322 141.733C81.288 141.733 81.7049 141.673 81.7049 141.594C81.7049 141.515 82.1217 141.455 82.6776 141.455C83.2334 141.455 83.6502 141.395 83.6502 141.316C83.6502 141.24 83.9629 141.177 84.345 141.177C84.7271 141.177 85.0398 141.115 85.0398 141.038C85.0398 140.962 85.3524 140.899 85.7345 140.899C86.1167 140.899 86.4293 140.837 86.4293 140.76C86.4293 140.684 86.6794 140.621 86.9851 140.621C87.2908 140.621 87.5409 140.559 87.5409 140.482C87.5409 140.406 87.7911 140.343 88.0968 140.343C88.4025 140.343 88.6526 140.281 88.6526 140.204C88.6526 140.128 88.9027 140.066 89.2084 140.066C89.5141 140.066 89.7642 140.003 89.7642 139.927C89.7642 139.85 90.0143 139.788 90.32 139.788C90.6257 139.788 90.8758 139.725 90.8758 139.649C90.8758 139.572 91.0634 139.51 91.2927 139.51C91.522 139.51 91.7096 139.447 91.7096 139.371C91.7096 139.294 91.8971 139.232 92.1264 139.232C92.3557 139.232 92.5433 139.169 92.5433 139.093C92.5433 139.016 92.7309 138.954 92.9601 138.954C93.1894 138.954 93.377 138.891 93.377 138.815C93.377 138.739 93.5646 138.676 93.7939 138.676C94.0231 138.676 94.2107 138.613 94.2107 138.537C94.2107 138.461 94.3983 138.398 94.6276 138.398C94.8569 138.398 95.0445 138.336 95.0445 138.259C95.0445 138.183 95.232 138.12 95.4613 138.12C95.6906 138.12 95.8782 138.058 95.8782 137.981C95.8782 137.905 96.0658 137.842 96.295 137.842C96.5243 137.842 96.7119 137.78 96.7119 137.703C96.7119 137.627 96.837 137.564 96.9898 137.564C97.1427 137.564 97.2677 137.502 97.2677 137.425C97.2677 137.349 97.4553 137.286 97.6846 137.286C97.9139 137.286 98.1014 137.224 98.1014 137.147C98.1014 137.071 98.2265 137.009 98.3793 137.009C98.5322 137.009 98.6573 136.946 98.6573 136.87C98.6573 136.793 98.7823 136.731 98.9352 136.731C99.088 136.731 99.2131 136.668 99.2131 136.592C99.2131 136.515 99.4007 136.453 99.6299 136.453C99.8592 136.453 100.047 136.39 100.047 136.314C100.047 136.237 100.172 136.175 100.325 136.175C100.478 136.175 100.603 136.112 100.603 136.036C100.603 135.959 100.728 135.897 100.881 135.897C101.033 135.897 101.158 135.834 101.158 135.758C101.158 135.682 101.283 135.619 101.436 135.619C101.589 135.619 101.714 135.556 101.714 135.48C101.714 135.404 101.839 135.341 101.992 135.341C102.145 135.341 102.27 135.279 102.27 135.202C102.27 135.126 102.395 135.063 102.548 135.063C102.701 135.063 102.826 135.001 102.826 134.924C102.826 134.848 102.951 134.785 103.104 134.785C103.257 134.785 103.382 134.723 103.382 134.646C103.382 134.57 103.507 134.507 103.66 134.507C103.812 134.507 103.938 134.445 103.938 134.368C103.938 134.292 104.063 134.229 104.215 134.229C104.368 134.229 104.493 134.167 104.493 134.09C104.493 134.014 104.618 133.952 104.771 133.952C104.924 133.952 105.049 133.889 105.049 133.813C105.049 133.736 105.174 133.674 105.327 133.674C105.48 133.674 105.605 133.611 105.605 133.535C105.605 133.458 105.716 133.396 105.852 133.396C105.988 133.396 106.19 133.271 106.3 133.118C106.41 132.965 106.611 132.84 106.747 132.84C106.883 132.84 106.994 132.777 106.994 132.701C106.994 132.625 107.106 132.562 107.242 132.562C107.378 132.562 107.579 132.437 107.689 132.284C107.799 132.131 108.001 132.006 108.137 132.006C108.273 132.006 108.384 131.944 108.384 131.867C108.384 131.791 108.495 131.728 108.631 131.728C108.767 131.728 108.969 131.603 109.079 131.45C109.189 131.298 109.377 131.172 109.496 131.172C109.615 131.172 109.802 131.047 109.913 130.895C110.023 130.742 110.21 130.617 110.329 130.617C110.448 130.617 110.636 130.492 110.746 130.339C110.856 130.186 111.044 130.061 111.163 130.061C111.282 130.061 111.47 129.936 111.58 129.783C111.69 129.63 111.878 129.505 111.997 129.505C112.116 129.505 112.303 129.38 112.414 129.227C112.524 129.074 112.7 128.949 112.806 128.949C112.911 128.949 113.172 128.762 113.386 128.532C113.6 128.303 113.849 128.115 113.939 128.115C114.029 128.115 114.343 127.865 114.637 127.56C114.931 127.254 115.24 127.004 115.324 127.004C115.476 127.004 116.721 125.83 116.721 125.687C116.721 125.647 116.621 125.614 116.499 125.614C116.377 125.614 116.102 125.427 115.888 125.197C115.673 124.968 115.412 124.781 115.307 124.781C115.201 124.781 115.025 124.656 114.915 124.503C114.805 124.35 114.617 124.225 114.498 124.225C114.379 124.225 114.191 124.1 114.081 123.947C113.971 123.794 113.77 123.669 113.634 123.669C113.498 123.669 113.386 123.606 113.386 123.53C113.386 123.454 113.261 123.391 113.108 123.391C112.956 123.391 112.831 123.329 112.831 123.252C112.831 123.176 112.705 123.113 112.553 123.113C112.4 123.113 112.275 123.051 112.275 122.974C112.275 122.898 112.15 122.835 111.997 122.835C111.844 122.835 111.719 122.773 111.719 122.696C111.719 122.62 111.594 122.557 111.441 122.557C111.288 122.557 111.163 122.495 111.163 122.418C111.163 122.342 111.038 122.279 110.885 122.279C110.732 122.279 110.607 122.217 110.607 122.14C110.607 122.064 110.482 122.002 110.329 122.002C110.177 122.002 110.051 121.939 110.051 121.863C110.051 121.786 109.926 121.724 109.774 121.724C109.621 121.724 109.496 121.661 109.496 121.585C109.496 121.508 109.371 121.446 109.218 121.446C109.065 121.446 108.94 121.383 108.94 121.307C108.94 121.23 108.815 121.168 108.662 121.168C108.509 121.168 108.384 121.105 108.384 121.029C108.384 120.952 108.259 120.89 108.106 120.89C107.953 120.89 107.828 120.827 107.828 120.751C107.828 120.675 107.703 120.612 107.55 120.612C107.397 120.612 107.272 120.549 107.272 120.473C107.272 120.397 107.147 120.334 106.994 120.334C106.842 120.334 106.717 120.272 106.717 120.195C106.717 120.119 106.592 120.056 106.439 120.056C106.286 120.056 106.161 119.994 106.161 119.917C106.161 119.841 106.036 119.778 105.883 119.778C105.73 119.778 105.605 119.716 105.605 119.639C105.605 119.563 105.48 119.5 105.327 119.5C105.174 119.5 105.049 119.438 105.049 119.361C105.049 119.285 104.924 119.222 104.771 119.222C104.618 119.222 104.493 119.16 104.493 119.083C104.493 119.007 104.368 118.945 104.215 118.945C104.063 118.945 103.938 118.882 103.938 118.806C103.938 118.729 103.812 118.667 103.66 118.667C103.507 118.667 103.382 118.604 103.382 118.528C103.382 118.451 103.257 118.389 103.104 118.389C102.951 118.389 102.826 118.326 102.826 118.25C102.826 118.173 102.701 118.111 102.548 118.111C102.395 118.111 102.27 118.048 102.27 117.972C102.27 117.895 102.145 117.833 101.992 117.833C101.839 117.833 101.714 117.77 101.714 117.694C101.714 117.618 101.589 117.555 101.436 117.555C101.283 117.555 101.158 117.492 101.158 117.416C101.158 117.34 101.033 117.277 100.881 117.277C100.728 117.277 100.603 117.215 100.603 117.138C100.603 117.062 100.478 116.999 100.325 116.999C100.172 116.999 100.047 116.937 100.047 116.86C100.047 116.784 99.9217 116.721 99.7689 116.721C99.616 116.721 99.491 116.659 99.491 116.582C99.491 116.506 99.3659 116.443 99.2131 116.443C99.0602 116.443 98.9352 116.381 98.9352 116.304C98.9352 116.228 98.8101 116.165 98.6573 116.165C98.5044 116.165 98.3793 116.103 98.3793 116.026C98.3793 115.95 98.2543 115.888 98.1014 115.888C97.9486 115.888 97.8235 115.825 97.8235 115.749C97.8235 115.672 97.6985 115.61 97.5456 115.61C97.3928 115.61 97.2677 115.547 97.2677 115.471C97.2677 115.394 97.1427 115.332 96.9898 115.332C96.837 115.332 96.7119 115.269 96.7119 115.193C96.7119 115.116 96.5868 115.054 96.434 115.054C96.2811 115.054 96.1561 114.991 96.1561 114.915C96.1561 114.838 96.031 114.776 95.8782 114.776C95.7253 114.776 95.6003 114.713 95.6003 114.637C95.6003 114.561 95.4752 114.498 95.3224 114.498C95.1695 114.498 95.0445 114.435 95.0445 114.359C95.0445 114.283 94.9194 114.22 94.7665 114.22C94.6137 114.22 94.4886 114.158 94.4886 114.081C94.4886 114.005 94.3636 113.942 94.2107 113.942C94.0579 113.942 93.9328 113.88 93.9328 113.803C93.9328 113.727 93.8078 113.664 93.6549 113.664C93.5021 113.664 93.377 113.602 93.377 113.525C93.377 113.449 93.252 113.386 93.0991 113.386C92.9463 113.386 92.8212 113.324 92.8212 113.247C92.8212 113.171 92.6961 113.108 92.5433 113.108C92.3904 113.108 92.2654 113.046 92.2654 112.97C92.2654 112.893 92.1403 112.831 91.9875 112.831C91.8346 112.831 91.7096 112.768 91.7096 112.692C91.7096 112.615 91.5845 112.553 91.4317 112.553C91.2788 112.553 91.1537 112.49 91.1537 112.414C91.1537 112.337 91.0287 112.275 90.8758 112.275C90.723 112.275 90.5979 112.212 90.5979 112.136C90.5979 112.059 90.4729 111.997 90.32 111.997C90.1672 111.997 90.0421 111.934 90.0421 111.858C90.0421 111.781 89.9308 111.719 89.7949 111.719C89.6589 111.719 89.4575 111.594 89.3473 111.441C89.2372 111.288 89.0657 111.163 88.9663 111.163C88.7308 111.163 87.263 109.695 87.263 109.46C87.263 109.36 87.138 109.189 86.9851 109.079C86.8323 108.969 86.7072 108.781 86.7072 108.662C86.7072 108.543 86.5822 108.355 86.4293 108.245C86.2662 108.127 86.1514 107.885 86.1514 107.659C86.1514 107.446 86.0889 107.272 86.0125 107.272C85.936 107.272 85.8735 107.147 85.8735 106.994C85.8735 106.842 85.811 106.717 85.7345 106.717C85.6581 106.717 85.5956 106.404 85.5956 106.022C85.5956 105.64 85.5331 105.327 85.4566 105.327C85.3666 105.327 85.3177 103.54 85.3177 100.244V95.1616L85.8735 94.6276C86.1792 94.3339 86.4293 94.02 86.4293 93.93C86.4293 93.84 86.6169 93.5911 86.8462 93.377C87.0754 93.1629 87.263 92.9128 87.263 92.8212C87.263 92.7296 87.4506 92.4795 87.6799 92.2654C87.9092 92.0513 88.0968 91.7897 88.0968 91.6846C88.0968 91.5792 88.2218 91.4029 88.3747 91.2927C88.5275 91.1825 88.6526 90.9812 88.6526 90.8451C88.6526 90.7092 88.7151 90.5979 88.7915 90.5979C88.868 90.5979 88.9305 90.4866 88.9305 90.3507C88.9305 90.2147 89.0555 90.0134 89.2084 89.9032C89.3612 89.793 89.4863 89.5916 89.4863 89.4556C89.4863 89.3197 89.5488 89.2084 89.6253 89.2084C89.7017 89.2084 89.7642 89.0971 89.7642 88.9612C89.7642 88.8252 89.8893 88.6238 90.0421 88.5136C90.195 88.4034 90.32 88.2021 90.32 88.0661C90.32 87.9302 90.3826 87.8189 90.459 87.8189C90.5354 87.8189 90.5979 87.6938 90.5979 87.541C90.5979 87.3881 90.6605 87.263 90.7369 87.263C90.8133 87.263 90.8758 87.138 90.8758 86.9851C90.8758 86.8323 90.9384 86.7072 91.0148 86.7072C91.0912 86.7072 91.1537 86.5822 91.1537 86.4293C91.1537 86.2765 91.2163 86.1514 91.2927 86.1514C91.3691 86.1514 91.4317 86.0264 91.4317 85.8735C91.4317 85.7207 91.4942 85.5956 91.5706 85.5956C91.647 85.5956 91.7096 85.4705 91.7096 85.3177C91.7096 85.1648 91.7721 85.0398 91.8485 85.0398C91.9249 85.0398 91.9875 84.9147 91.9875 84.7619C91.9875 84.609 92.05 84.484 92.1264 84.484C92.2029 84.484 92.2654 84.3589 92.2654 84.2061C92.2654 84.0532 92.3279 83.9282 92.4043 83.9282C92.4808 83.9282 92.5433 83.8031 92.5433 83.6502C92.5433 83.4974 92.6058 83.3723 92.6822 83.3723C92.7587 83.3723 92.8212 83.1847 92.8212 82.9555C92.8212 82.7262 92.8837 82.5386 92.9601 82.5386C93.0366 82.5386 93.0991 82.4136 93.0991 82.2607C93.0991 82.1079 93.1616 81.9828 93.2381 81.9828C93.3145 81.9828 93.377 81.7952 93.377 81.5659C93.377 81.3367 93.4395 81.1491 93.516 81.1491C93.5924 81.1491 93.6549 81.024 93.6549 80.8712C93.6549 80.7183 93.7174 80.5933 93.7939 80.5933C93.8703 80.5933 93.9328 80.4057 93.9328 80.1764C93.9328 79.9471 93.9954 79.7595 94.0718 79.7595C94.1482 79.7595 94.2107 79.5719 94.2107 79.3427C94.2107 79.1134 94.2733 78.9258 94.3497 78.9258C94.4261 78.9258 94.4886 78.8276 94.4886 78.7075C94.4886 78.4267 94.8232 78.0921 95.1041 78.0921C95.2241 78.0921 95.3224 78.0296 95.3224 77.9531C95.3224 77.8767 95.4474 77.8142 95.6003 77.8142C95.7531 77.8142 95.8782 77.7516 95.8782 77.6752C95.8782 77.5988 95.9895 77.5363 96.1254 77.5363C96.2614 77.5363 96.4628 77.4112 96.573 77.2584C96.6831 77.1055 96.8553 76.9805 96.9556 76.9805C97.1927 76.9805 98.1014 76.0717 98.1014 75.8346C98.1014 75.7343 98.2265 75.5622 98.3793 75.452C98.5322 75.3418 98.6573 75.1404 98.6573 75.0044C98.6573 74.8685 98.7198 74.7572 98.7962 74.7572C98.8726 74.7572 98.9352 74.6321 98.9352 74.4793C98.9352 74.3264 98.9977 74.2014 99.0741 74.2014C99.1505 74.2014 99.2131 74.0138 99.2131 73.7845C99.2131 73.5552 99.2756 73.3677 99.352 73.3677C99.4285 73.3677 99.491 73.055 99.491 72.6729C99.491 72.2908 99.5535 71.9781 99.6299 71.9781C99.7201 71.9781 99.7689 70.1254 99.7689 66.6979C99.7689 63.2703 99.7201 61.4176 99.6299 61.4176C99.5535 61.4176 99.491 61.105 99.491 60.7229C99.491 60.3407 99.4285 60.0281 99.352 60.0281C99.2756 60.0281 99.2131 59.8405 99.2131 59.6112C99.2131 59.3819 99.1505 59.1944 99.0741 59.1944C98.9977 59.1944 98.9352 59.0693 98.9352 58.9165C98.9352 58.7636 98.8726 58.6385 98.7962 58.6385C98.7198 58.6385 98.6573 58.5272 98.6573 58.3913C98.6573 58.2553 98.5322 58.054 98.3793 57.9438C98.2265 57.8336 98.1014 57.6573 98.1014 57.5519C98.1014 57.4467 97.9139 57.1852 97.6846 56.9711L97.2677 56.5817V47.4665C97.2677 41.4823 97.2201 38.3513 97.1288 38.3513C97.0523 38.3513 96.9898 38.0386 96.9898 37.6565C96.9898 37.2744 96.9273 36.9617 96.8509 36.9617C96.7744 36.9617 96.7119 36.7116 96.7119 36.4059C96.7119 36.1002 96.6494 35.8501 96.573 35.8501C96.4965 35.8501 96.434 35.6625 96.434 35.4332C96.434 35.204 96.3715 35.0164 96.295 35.0164C96.2186 35.0164 96.1561 34.8288 96.1561 34.5995C96.1561 34.3702 96.0936 34.1827 96.0171 34.1827C95.9407 34.1827 95.8782 34.0576 95.8782 33.9048C95.8782 33.7519 95.8157 33.6268 95.7392 33.6268C95.6628 33.6268 95.6003 33.5018 95.6003 33.3489C95.6003 33.1961 95.5377 33.071 95.4613 33.071C95.3849 33.071 95.3224 32.946 95.3224 32.7931C95.3224 32.6403 95.2598 32.5152 95.1834 32.5152C95.107 32.5152 95.0445 32.3902 95.0445 32.2373C95.0445 32.0845 94.9819 31.9594 94.9055 31.9594C94.8291 31.9594 94.7665 31.8481 94.7665 31.7122C94.7665 31.5762 94.6415 31.3748 94.4886 31.2646C94.3358 31.1544 94.2107 30.9668 94.2107 30.8478C94.2107 30.7287 94.0857 30.5411 93.9328 30.4309C93.78 30.3207 93.6549 30.1499 93.6549 30.0514C93.6549 29.833 90.5246 26.6791 90.3078 26.6791C90.223 26.6791 89.9783 26.4916 89.7642 26.2623C89.5501 26.033 89.2748 25.8454 89.1527 25.8454C89.0304 25.8454 88.9305 25.7829 88.9305 25.7065C88.9305 25.63 88.8192 25.5675 88.6833 25.5675C88.5472 25.5675 88.3459 25.4425 88.2357 25.2896C88.1255 25.1368 87.9242 25.0117 87.7881 25.0117C87.6522 25.0117 87.5409 24.9492 87.5409 24.8727C87.5409 24.7963 87.4159 24.7338 87.263 24.7338C87.1102 24.7338 86.9851 24.6713 86.9851 24.5948C86.9851 24.5184 86.8601 24.4559 86.7072 24.4559C86.5544 24.4559 86.4293 24.3934 86.4293 24.3169C86.4293 24.2405 86.2417 24.178 86.0125 24.178C85.7832 24.178 85.5956 24.1154 85.5956 24.039C85.5956 23.9626 85.4705 23.9001 85.3177 23.9001C85.1648 23.9001 85.0398 23.8375 85.0398 23.7611C85.0398 23.6847 84.8522 23.6222 84.6229 23.6222C84.3936 23.6222 84.2061 23.5596 84.2061 23.4832C84.2061 23.4068 84.0185 23.3443 83.7892 23.3443C83.5599 23.3443 83.3723 23.2817 83.3723 23.2053C83.3723 23.1289 83.1847 23.0663 82.9555 23.0663C82.7262 23.0663 82.5386 23.0038 82.5386 22.9274C82.5386 22.851 82.2885 22.7884 81.9828 22.7884C81.6771 22.7884 81.427 22.7259 81.427 22.6495C81.427 22.5731 81.1769 22.5105 80.8712 22.5105C80.5655 22.5105 80.3153 22.448 80.3153 22.3716C80.3153 22.2943 79.9448 22.2326 79.4816 22.2326C79.0185 22.2326 78.6479 22.1709 78.6479 22.0937C78.6479 22.0143 78.231 21.9547 77.6752 21.9547C77.1194 21.9547 76.7025 21.8951 76.7025 21.8158C76.7025 21.7289 75.8688 21.6768 74.4793 21.6768C73.0897 21.6768 72.256 21.6247 72.256 21.5379C72.256 21.4568 71.7929 21.3989 71.1444 21.3989C70.4959 21.3989 70.0328 21.4568 70.0328 21.5379Z" fill="url(#paint0_linear_430_452)"/>
<defs>
<linearGradient id="paint0_linear_430_452" x1="71.2139" y1="0" x2="71.2139" y2="141.708" gradientUnits="userSpaceOnUse">
<stop stop-color="#25CD25" stop-opacity="0.4"/>
<stop offset="1" stop-color="#25CD25" stop-opacity="0"/>
</linearGradient>
</defs>
</svg>
