<svg width="28" height="28" viewBox="0 0 28 28" fill="none" xmlns="http://www.w3.org/2000/svg">
<path d="M14.9999 11.0001C17.5772 11.0001 19.6666 8.91074 19.6666 6.33342C19.6666 3.75609 17.5772 1.66675 14.9999 1.66675C12.4226 1.66675 10.3333 3.75609 10.3333 6.33342C10.3333 8.91074 12.4226 11.0001 14.9999 11.0001Z" stroke="#80BE41" stroke-width="2.66667" stroke-linecap="round" stroke-linejoin="round"/>
<path d="M1.66663 26.3334C1.66663 20.4421 7.03929 15.6667 13.6666 15.6667M23.6666 19.6667V17.6667C23.6666 17.1363 23.4559 16.6276 23.0808 16.2525C22.7058 15.8775 22.1971 15.6667 21.6666 15.6667C21.1362 15.6667 20.6275 15.8775 20.2524 16.2525C19.8773 16.6276 19.6666 17.1363 19.6666 17.6667V19.6667M17 19.6667H26.3333V26.3334H17V19.6667Z" stroke="#80BE41" stroke-width="2.66667" stroke-linecap="round" stroke-linejoin="round"/>
</svg>
