<svg width="60" height="60" viewBox="0 0 60 60" fill="none" xmlns="http://www.w3.org/2000/svg">
<rect width="60" height="60" rx="30" fill="#03442C"/>
<g clip-path="url(#clip0_795_4459)">
<path fill-rule="evenodd" clip-rule="evenodd" d="M31.2132 41.0023H36.5624C36.9921 40.571 37.4632 40.1224 37.9418 39.6664C38.9452 38.7077 39.9925 37.707 41.0692 36.455C42.2997 35.023 42.4315 34.5276 42.805 33.1252C42.8758 32.8615 42.954 32.5657 43.0565 32.1985L43.6962 29.9285L43.7035 29.9039C44.0453 28.8934 44.0721 28.2254 43.9305 27.8409C43.8866 27.7226 43.8304 27.6438 43.7645 27.6019C43.7132 27.5674 43.6449 27.555 43.5741 27.5624C43.4081 27.5797 43.2201 27.6857 43.0492 27.8755L41.1498 32.4425C41.1327 32.4844 41.1083 32.5238 41.0814 32.5583C40.9691 32.7629 40.8177 32.9625 40.6224 33.1523L37.2533 36.9454C37.0702 37.1525 36.7552 37.1697 36.5526 36.9849C36.3475 36.8 36.3304 36.4821 36.5135 36.2775L39.8851 32.4844C39.8998 32.4671 39.9144 32.4499 39.9315 32.4351C40.2806 32.0999 40.3905 31.7376 40.3295 31.4739C40.3099 31.3925 40.2757 31.3235 40.2269 31.2767C40.1805 31.2323 40.1195 31.2052 40.0438 31.1978C39.7435 31.1658 39.3016 31.3901 38.7621 32.0334C38.7474 32.0506 38.7303 32.0679 38.7132 32.0851L37.4071 33.2484L37.3998 33.2558C35.9862 34.6065 35.3783 34.9269 34.2699 35.511C34.0379 35.6342 33.784 35.7673 33.4691 35.9399C33.3446 36.0089 33.2225 36.0927 33.1029 36.1839C32.9759 36.2824 32.8539 36.3835 32.7391 36.4821C32.1532 36.98 31.8456 37.3842 31.6698 37.8303C31.4867 38.2936 31.4208 38.858 31.3304 39.6319C31.2938 39.945 31.267 40.253 31.245 40.5611C31.2279 40.709 31.2206 40.8569 31.2132 41.0023ZM29.9999 15L21.826 23.0817L23.8207 24.139L29.9462 17.6446L36.1791 24.139L38.1737 23.0817L29.9999 15ZM24.5995 24.351L30.0096 18.8868L35.4027 24.351V30.0493H31.555V26.0245H28.4105V30.0493H24.5995V24.351ZM28.7865 40.9998H23.4349C23.0052 40.5685 22.534 40.1199 22.0555 39.664C21.0521 38.7052 20.0047 37.7046 18.9281 36.4525C17.6976 35.0205 17.5658 34.5251 17.1922 33.1227C17.1214 32.859 17.0433 32.5633 16.9408 32.196L16.3011 29.9261L16.2938 29.9014C15.952 28.8909 15.9252 28.223 16.0668 27.8385C16.1107 27.7202 16.1669 27.6413 16.2328 27.5994C16.284 27.5649 16.3524 27.5526 16.4232 27.56C16.5892 27.5772 16.7772 27.6832 16.9481 27.873L18.8475 32.44C18.8646 32.4819 18.889 32.5214 18.9159 32.5559C19.0282 32.7604 19.1795 32.9601 19.3749 33.1499L22.744 36.943C22.9271 37.15 23.242 37.1673 23.4447 36.9824C23.6498 36.7976 23.6669 36.4796 23.4837 36.2751L20.117 32.4795C20.1024 32.4622 20.0878 32.445 20.0707 32.4302C19.7215 32.095 19.6117 31.7327 19.6727 31.4689C19.6922 31.3876 19.7264 31.3186 19.7753 31.2718C19.8216 31.2274 19.8827 31.2003 19.9584 31.1929C20.2586 31.1609 20.703 31.3851 21.2401 32.0284C21.2401 32.0284 21.2865 32.0753 21.2914 32.0802L22.5975 33.2435L22.6048 33.2509C24.0184 34.6015 24.6263 34.922 25.7347 35.5061C25.9667 35.6293 26.2206 35.7624 26.5355 35.9349C26.66 36.0039 26.7821 36.0877 26.9017 36.1789C27.0287 36.2775 27.1507 36.3786 27.2655 36.4772C27.8514 36.975 28.159 37.3792 28.3348 37.8253C28.5179 38.2887 28.5838 38.8531 28.6742 39.627C28.7108 39.94 28.7377 40.2481 28.7596 40.5562C28.7718 40.709 28.7792 40.8569 28.7865 40.9998ZM22.1898 41.1748C22.1141 41.2636 22.0677 41.3794 22.0677 41.5051V44.4972C22.0677 44.7757 22.2923 45 22.5658 45H29.2992C29.5751 45 29.7972 44.7732 29.7972 44.4972V41.4755C29.7972 41.1551 29.7777 40.8101 29.7557 40.4896C29.7337 40.1618 29.7045 39.8365 29.6678 39.5136C29.5702 38.6683 29.4969 38.0496 29.2626 37.4556C29.0209 36.8469 28.6327 36.3219 27.9125 35.7082C27.7806 35.5948 27.6463 35.4814 27.5047 35.3755C27.3558 35.2621 27.1947 35.1536 27.014 35.0526C26.7211 34.8924 26.4476 34.747 26.1986 34.6139C25.1732 34.0716 24.6117 33.7759 23.2909 32.514C23.2811 32.5041 23.2689 32.4942 23.2591 32.4869L21.9847 31.3506C21.2059 30.4313 20.4442 30.1257 19.8607 30.1898H19.8583C19.5726 30.2194 19.3285 30.3327 19.1332 30.5053L17.8465 27.4096H17.8441C17.8246 27.3653 17.8002 27.3234 17.7684 27.2839C17.412 26.8526 16.9603 26.6012 16.5282 26.5569C16.2328 26.5273 15.9471 26.5914 15.6981 26.754C15.4613 26.9093 15.266 27.1508 15.1439 27.4836C14.9291 28.0628 14.9339 28.9624 15.3539 30.207L15.9886 32.4622C16.0814 32.7875 16.162 33.1006 16.2377 33.3766C16.6527 34.9417 16.7992 35.4962 18.1835 37.1032C19.2796 38.3774 20.3514 39.4027 21.3817 40.3837C21.6478 40.6523 21.9164 40.9086 22.1898 41.1748ZM23.142 42.0079C23.2079 42.0227 23.2762 42.0227 23.3446 42.0079H28.7987V43.9944H23.0638V42.0079H23.142ZM37.8099 41.1748C37.8856 41.2636 37.932 41.3794 37.932 41.5051V44.4972C37.932 44.7757 37.7098 45 37.4339 45H30.703C30.4271 45 30.2049 44.7732 30.2049 44.4972V41.4755C30.2049 41.4583 30.2049 41.4385 30.2074 41.4213C30.2147 41.0984 30.2269 40.7854 30.2464 40.4896C30.2684 40.1618 30.2977 39.8365 30.3343 39.5136C30.432 38.6683 30.5052 38.0496 30.7396 37.4556C30.9813 36.8469 31.3695 36.3219 32.0897 35.7082C32.2215 35.5948 32.3558 35.4814 32.4974 35.3755C32.6463 35.2621 32.8075 35.1536 32.9881 35.0526C33.2811 34.8924 33.5545 34.747 33.8036 34.6139C34.829 34.0716 35.3905 33.7759 36.7113 32.514C36.7211 32.5041 36.7333 32.4942 36.743 32.4869L38.0174 31.3506C38.7962 30.4313 39.558 30.1257 40.1415 30.1898H40.1439C40.4295 30.2194 40.6737 30.3327 40.869 30.5053L42.1556 27.4096H42.1581C42.1776 27.3653 42.202 27.3234 42.2337 27.2839C42.5902 26.8526 43.0419 26.6012 43.474 26.5569C43.7694 26.5273 44.055 26.5914 44.3041 26.754C44.5409 26.9093 44.7362 27.1508 44.8583 27.4836C45.0731 28.0628 45.0682 28.9624 44.6483 30.207L44.0135 32.4622C43.9208 32.7875 43.8402 33.1006 43.7645 33.3766C43.3495 34.9417 43.203 35.4962 41.8187 37.1032C40.7225 38.3774 39.6507 39.4027 38.6205 40.3837C38.3519 40.6523 38.0834 40.9086 37.8099 41.1748ZM36.8578 42.0079C36.7919 42.0227 36.7235 42.0227 36.6551 42.0079H31.201V43.9944H36.9359V42.0079H36.8578Z" fill="white"/>
</g>
<defs>
<clipPath id="clip0_795_4459">
<rect width="30" height="30" fill="white" transform="translate(15 15)"/>
</clipPath>
</defs>
</svg>
