<svg width="1000" height="1000" viewBox="0 0 1000 1000" fill="none" xmlns="http://www.w3.org/2000/svg">
<path d="M1000 500C1000 776.142 776.142 1000 500 1000C223.858 1000 0 776.142 0 500C0 223.858 223.858 0 500 0C776.142 0 1000 223.858 1000 500ZM178.431 500C178.431 677.597 322.403 821.568 500 821.568C677.597 821.568 821.568 677.597 821.568 500C821.568 322.403 677.597 178.431 500 178.431C322.403 178.431 178.431 322.403 178.431 500Z" fill="#80BE41"/>
<path d="M1000 500C1000 776.142 776.142 1000 500 1000C223.858 1000 0 776.142 0 500C0 223.858 223.858 0 500 0C776.142 0 1000 223.858 1000 500ZM178.431 500C178.431 677.597 322.403 821.568 500 821.568C677.597 821.568 821.568 677.597 821.568 500C821.568 322.403 677.597 178.431 500 178.431C322.403 178.431 178.431 322.403 178.431 500Z" fill="url(#paint0_linear_129_219)" fill-opacity="0.2"/>
<defs>
<linearGradient id="paint0_linear_129_219" x1="500" y1="0" x2="500" y2="1000" gradientUnits="userSpaceOnUse">
<stop stop-color="#80BE41"/>
<stop offset="0.432363" stop-color="white"/>
</linearGradient>
</defs>
</svg>
