<svg width="24" height="24" viewBox="0 0 24 24" fill="none" xmlns="http://www.w3.org/2000/svg">
<path d="M14.6667 9.33333V14.6667H9.33333V9.33333H14.6667ZM17.3333 9.33333H24V14.6667H17.3333V9.33333ZM14.6667 24H9.33333V17.3333H14.6667V24ZM17.3333 24V17.3333H24V22.6667C24 23.0203 23.8595 23.3594 23.6095 23.6095C23.3594 23.8595 23.0203 24 22.6667 24H17.3333ZM14.6667 0V6.66667H9.33333V0H14.6667ZM17.3333 0H22.6667C23.0203 0 23.3594 0.140476 23.6095 0.390524C23.8595 0.640573 24 0.979711 24 1.33333V6.66667H17.3333V0ZM6.66667 9.33333V14.6667H0V9.33333H6.66667ZM6.66667 24H1.33333C0.979711 24 0.640573 23.8595 0.390524 23.6095C0.140476 23.3594 0 23.0203 0 22.6667V17.3333H6.66667V24ZM6.66667 0V6.66667H0V1.33333C0 0.979711 0.140476 0.640573 0.390524 0.390524C0.640573 0.140476 0.979711 0 1.33333 0H6.66667Z" fill="black"/>
</svg>
