<svg width="60" height="60" viewBox="0 0 60 60" fill="none" xmlns="http://www.w3.org/2000/svg">
<rect width="60" height="60" rx="30" fill="#03442C"/>
<g clip-path="url(#clip0_795_4464)">
<path fill-rule="evenodd" clip-rule="evenodd" d="M42.3292 40.0295C42.3292 40.286 42.1223 40.4968 41.865 40.4968H38.8805L38.5702 39.1685H41.0072V27.6023C41.0072 27.5718 41.0097 27.5413 41.0148 27.5134L29.5462 19.7188L17.8531 27.5159C17.8632 27.554 17.8682 27.5947 17.8682 27.6353V39.1634H20.3532L20.1211 40.4917H17.0105C16.7557 40.4917 16.5463 40.2834 16.5463 40.0244V28.1229C16.0266 28.3236 15.5447 28.3261 15.1411 28.1915C14.8257 28.0848 14.5608 27.8944 14.3666 27.6455C14.1723 27.3991 14.0487 27.0969 14.0109 26.7667C13.9554 26.2511 14.1093 25.667 14.5432 25.1209C14.5659 25.093 14.5911 25.0676 14.6189 25.0447L29.1501 15.1218C29.3141 14.9694 29.5664 14.9541 29.748 15.0964L44.307 24.999C44.3272 25.0142 44.3449 25.032 44.3625 25.0498C44.9478 25.6847 45.0941 26.3883 44.9529 26.9851C44.8822 27.2772 44.7435 27.5439 44.5517 27.7597C44.36 27.9782 44.1153 28.1458 43.8353 28.2474C43.3912 28.4099 42.8665 28.4023 42.3317 28.1483C42.3292 32.1104 42.3292 36.0699 42.3292 40.0295ZM27.9821 27.9959C27.6667 27.0613 27.3842 26.114 27.1445 25.1539C28.0376 24.1685 31.4862 24.298 32.4777 25.1387L31.5594 27.3381C32.0538 26.6854 32.2203 26.4162 32.513 26.053C32.6366 26.1343 32.7527 26.2257 32.8637 26.3273C33.126 26.566 33.3581 26.8276 33.4061 27.1959C33.4363 27.4347 33.3682 27.6759 33.1588 27.9223L31.0523 30.3935C30.7798 30.3478 30.5149 30.2843 30.2576 30.1903C30.3762 29.9084 30.52 29.596 30.6411 29.3116L29.8742 30.1446C29.0744 29.9744 28.4311 30.076 27.8332 30.396L25.6964 27.8131C25.5703 27.6582 25.5123 27.5058 25.5123 27.3508C25.5148 26.7261 26.4381 26.1876 26.9225 25.9844L27.9821 27.9959ZM30.7218 32.6615L30.3056 30.7415C32.0917 31.0767 34.955 34.734 35.8809 36.3976C36.3527 37.2459 36.7664 38.183 37.1045 39.2269C37.778 41.7565 37.1297 44.1262 34.4026 44.6773C32.6946 45.0227 29.5084 45.0481 27.7096 44.9541C25.7772 44.8525 22.7876 44.8576 22.0081 42.8588C20.7467 39.6358 23.0576 35.7956 25.1616 33.4463C25.4391 33.1365 25.7242 32.8495 26.0219 32.5828C26.7888 31.9047 27.6137 31.0996 28.6001 30.7643L27.6491 32.5498L29.0315 30.7034H29.7606L30.7218 32.6615ZM29.8338 34.2362V34.5765C30.192 34.6146 30.4998 34.6883 30.7521 34.7975C31.0094 34.9093 31.2314 35.0769 31.4231 35.3004C31.5745 35.4731 31.6906 35.6509 31.7713 35.8312C31.8545 36.0141 31.8949 36.1792 31.8949 36.329C31.8949 36.4966 31.8344 36.6439 31.7133 36.7658C31.5897 36.8878 31.4433 36.9487 31.2693 36.9487C30.9413 36.9487 30.7269 36.7709 30.631 36.4128C30.52 35.9937 30.2551 35.7118 29.8338 35.5747V37.6725C30.2475 37.7868 30.578 37.891 30.8227 37.9849C31.07 38.0789 31.2894 38.2135 31.4812 38.3938C31.688 38.5767 31.8495 38.8002 31.9605 39.0567C32.0715 39.3158 32.127 39.5952 32.127 39.9025C32.127 40.286 32.0387 40.6441 31.8596 40.9768C31.6805 41.3121 31.4181 41.5838 31.07 41.7972C30.7218 42.008 30.3106 42.135 29.8313 42.1731V42.5159C29.8313 42.714 29.8111 42.8588 29.7732 42.9502C29.7354 43.0417 29.6522 43.0874 29.521 43.0874C29.4024 43.0874 29.3166 43.0518 29.2687 42.9782C29.2208 42.9045 29.198 42.7902 29.198 42.6353V42.1883C28.8095 42.1451 28.4664 42.0511 28.1738 41.9115C27.8812 41.7692 27.6364 41.594 27.4422 41.3857C27.2479 41.1749 27.1016 40.9565 27.0108 40.7305C26.9175 40.5044 26.8695 40.2809 26.8695 40.0599C26.8695 39.8999 26.9301 39.7526 27.0587 39.6256C27.1823 39.4961 27.3388 39.4301 27.5254 39.4301C27.6768 39.4301 27.8029 39.4656 27.9064 39.5342C28.0098 39.6053 28.0805 39.7044 28.1208 39.8314C28.2091 40.1057 28.2873 40.319 28.3554 40.4638C28.4236 40.6111 28.5245 40.7432 28.6607 40.8651C28.7969 40.9844 28.976 41.0784 29.198 41.1419V38.7977C28.749 38.6732 28.3781 38.5335 28.0779 38.3811C27.7777 38.2288 27.533 38.0103 27.3463 37.7284C27.1596 37.4465 27.0663 37.0833 27.0663 36.6389C27.0663 36.0598 27.2479 35.5848 27.6137 35.2166C27.9795 34.8458 28.5068 34.6324 29.198 34.5715V34.2413C29.198 33.9594 29.304 33.8171 29.5134 33.8171C29.7278 33.8248 29.8338 33.9619 29.8338 34.2362ZM29.198 37.4897V35.5594C28.918 35.6433 28.6985 35.755 28.5421 35.8922C28.3857 36.0293 28.3075 36.2401 28.3075 36.5195C28.3075 36.7836 28.3807 36.9868 28.527 37.1214C28.6733 37.256 28.8978 37.3805 29.198 37.4897ZM29.8338 38.9856V41.1952C30.1693 41.1292 30.4292 40.9921 30.6159 40.7889C30.7975 40.5831 30.8908 40.3444 30.8908 40.0726C30.8908 39.7806 30.8025 39.5545 30.6234 39.3945C30.4443 39.232 30.1819 39.0974 29.8338 38.9856Z" fill="white"/>
</g>
<defs>
<clipPath id="clip0_795_4464">
<rect width="31" height="30" fill="white" transform="translate(14 15)"/>
</clipPath>
</defs>
</svg>
