<svg width="60" height="60" viewBox="0 0 60 60" fill="none" xmlns="http://www.w3.org/2000/svg">
<rect width="60" height="60" rx="30" fill="#03442C"/>
<g clip-path="url(#clip0_401_6498)">
<path d="M25.7015 17.4544C25.5072 17.575 25.3631 17.7623 25.2959 17.9814C25.2287 18.2005 25.243 18.4367 25.336 18.6461C25.4291 18.8555 25.5947 19.0239 25.8021 19.1201C26.0094 19.2163 26.2445 19.2338 26.4637 19.1693C27.0148 18.8919 27.5813 18.6467 28.1606 18.435C29.2321 18.0773 28.8686 16.4216 27.6886 16.6182C27.0012 16.8285 26.3369 17.1087 25.7062 17.4544H25.7015ZM27.4337 29.9491V28.4781L29.6333 26.2232C29.7581 26.1 29.8755 25.9695 29.9849 25.8323C30.077 25.7243 30.1562 25.6059 30.2209 25.4794C30.2739 25.3685 30.3013 25.2471 30.3011 25.1241C30.3062 25.0095 30.2801 24.8957 30.2256 24.7949C30.1721 24.7064 30.0881 24.6407 29.9896 24.6101C29.8593 24.5682 29.7228 24.549 29.5861 24.5533H27.547V23.0823C27.8585 23.0113 28.2054 22.9473 28.5901 22.8857C29.0325 22.8219 29.479 22.7918 29.9259 22.7957C30.3768 22.7772 30.8263 22.858 31.2428 23.0326C31.5464 23.1667 31.7907 23.4077 31.9296 23.71C32.0749 24.0567 32.1441 24.4308 32.1325 24.8067C32.1366 25.0949 32.0952 25.3819 32.0098 25.6571C31.9269 25.9104 31.8068 26.1499 31.6534 26.3677C31.4842 26.6063 31.2947 26.8298 31.087 27.0356L29.8693 28.2863H32.3237V29.9443L27.4337 29.9491ZM35.9298 29.9491V28.6392H32.9939L32.6706 27.8267L34.7168 22.8526H36.6048L34.8702 27.0735H35.9345V26.0218L36.2862 25.1052H37.7801V27.0735H38.3512V28.3526L37.7801 28.6392V29.9491H35.9298ZM22.0599 28.9258C22.916 30.5282 23.9724 32.0143 25.2035 33.3481C26.6392 34.859 28.3258 36.1078 30.1879 37.0385C30.2534 37.0737 30.326 37.0939 30.4002 37.0976C30.4745 37.1013 30.5487 37.0884 30.6174 37.0598C30.8449 36.9563 31.0489 36.8072 31.2168 36.6216C31.4112 36.4092 31.5917 36.1845 31.7573 35.9489C32.5573 34.8925 33.5485 33.5802 34.948 34.2364L35.033 34.2814L39.6988 36.9745L39.746 37.0053C40.032 37.2118 40.262 37.4869 40.415 37.8054C40.5679 38.124 40.6389 38.476 40.6215 38.8292C40.5896 39.6478 40.3552 40.4455 39.9395 41.1505C39.4242 42.0403 38.6361 42.739 37.6927 43.1425C36.8098 43.5234 35.8779 43.7777 34.9244 43.8981C33.5062 44.1061 32.0593 43.9846 30.6953 43.5428C29.1981 43.039 27.7707 42.3465 26.4472 41.4821L26.341 41.4134C25.6472 40.9823 24.9014 40.5181 24.1722 39.9709C21.4864 37.941 18.7583 34.9967 16.9812 31.7824C15.492 29.0727 14.6778 26.1474 15.1238 23.3618C15.3598 21.834 16.023 20.4436 17.1605 19.5246C18.1517 18.7216 19.4899 18.2834 21.2221 18.4374C21.3197 18.4436 21.4141 18.4744 21.4966 18.527C21.5791 18.5796 21.647 18.6522 21.6941 18.7382L24.6772 23.8166C24.8772 24.0455 25.0073 24.3274 25.0521 24.6285C25.0969 24.9297 25.0544 25.2374 24.9297 25.5149C24.6674 26.0378 24.2726 26.4822 23.7851 26.8035C23.6223 26.9432 23.4311 27.0806 23.2305 27.2275C22.5626 27.7131 21.8003 28.2768 22.0623 28.9424V28.9258H22.0599ZM40.6499 34.054C40.548 34.2532 40.5198 34.4822 40.5702 34.7003C40.6205 34.9184 40.7462 35.1116 40.9249 35.2455C41.1037 35.3795 41.3239 35.4456 41.5466 35.4322C41.7692 35.4187 41.98 35.3265 42.1414 35.172C42.1875 35.1208 42.2286 35.0653 42.2641 35.0062C42.6038 34.407 42.8851 33.7764 43.1043 33.1231C43.1692 32.9076 43.1556 32.6759 43.0658 32.4695C42.976 32.2632 42.8159 32.0957 42.6143 31.997C42.4126 31.8984 42.1825 31.8751 41.9652 31.9312C41.748 31.9874 41.5578 32.1194 41.4287 32.3035C41.3901 32.3662 41.3585 32.4329 41.3343 32.5025C41.1541 33.04 40.9242 33.5595 40.6475 34.054H40.6499ZM42.1013 29.0632C42.0921 29.2899 42.1643 29.5125 42.3048 29.6903C42.4452 29.8681 42.6447 29.9895 42.8667 30.0322C43.0888 30.0749 43.3188 30.0363 43.5148 29.9232C43.7109 29.8101 43.86 29.6302 43.935 29.4161C43.9527 29.355 43.9645 29.2924 43.9704 29.229C44.0199 28.5425 44.0104 27.8531 43.9421 27.1683C43.9137 26.9524 43.812 26.753 43.6543 26.6036C43.4966 26.4541 43.2925 26.3637 43.0761 26.3476C42.8598 26.3315 42.6446 26.3906 42.4666 26.5151C42.2887 26.6395 42.1588 26.8216 42.0989 27.0309C42.0732 27.1402 42.0653 27.253 42.0753 27.3649C42.1334 27.9291 42.1421 28.4974 42.1013 29.0632ZM41.1761 24.0369C41.2952 24.2366 41.4832 24.3853 41.7044 24.4548C41.9257 24.5242 42.1647 24.5095 42.3758 24.4135C42.587 24.3175 42.7556 24.1469 42.8494 23.9341C42.9433 23.7214 42.9559 23.4814 42.8848 23.26C42.604 22.64 42.2716 22.045 41.8912 21.4811C41.8295 21.3629 41.7436 21.2592 41.6392 21.1766C41.5347 21.0941 41.4141 21.0346 41.2852 21.0021C41.1562 20.9695 41.0219 20.9647 40.891 20.9879C40.7601 21.0111 40.6355 21.0618 40.5255 21.1367C40.4154 21.2115 40.3224 21.3089 40.2524 21.4223C40.1824 21.5358 40.1371 21.6628 40.1195 21.7951C40.1018 21.9273 40.1122 22.0618 40.1499 22.1898C40.1876 22.3177 40.2518 22.4362 40.3383 22.5375C40.6586 23.0131 40.9388 23.5146 41.1761 24.0369ZM37.9783 20.0433C38.9624 20.7658 40.1023 19.3327 39.1064 18.5392C38.5642 18.1315 37.9905 17.768 37.3907 17.452C36.4278 16.9475 35.4908 18.2668 36.357 19.0106C36.4089 19.0533 36.465 19.0906 36.5245 19.1219C37.033 19.3894 37.5191 19.6975 37.9783 20.0433ZM33.2583 18.0252C33.481 18.058 33.7081 18.0098 33.8986 17.8894C34.0891 17.7689 34.2304 17.5841 34.297 17.3683C34.3637 17.1524 34.3513 16.9198 34.2621 16.7123C34.1728 16.5049 34.0127 16.3362 33.8105 16.2369C33.7353 16.2023 33.656 16.1776 33.5745 16.1634C32.9038 16.0577 32.2261 16.0031 31.5472 16C31.2969 16 31.0568 16.0998 30.8797 16.2775C30.7027 16.4552 30.6032 16.6962 30.6032 16.9475C30.6032 17.1988 30.7027 17.4397 30.8797 17.6174C31.0568 17.7951 31.2969 17.8949 31.5472 17.8949C32.1219 17.8996 32.6954 17.9471 33.263 18.0371L33.2583 18.0252Z" fill="white"/>
</g>
<defs>
<clipPath id="clip0_401_6498">
<rect width="29" height="28" fill="white" transform="translate(15 16)"/>
</clipPath>
</defs>
</svg>
