<svg width="60" height="60" viewBox="0 0 60 60" fill="none" xmlns="http://www.w3.org/2000/svg">
<rect width="60" height="60" rx="30" fill="#03442C"/>
<g clip-path="url(#clip0_795_4450)">
<path d="M18.3167 41.3278H20.8444C20.8893 41.646 20.9922 41.9533 21.1471 42.2336L21.3371 42.6391H16.9107V41.9811H16.9042V30.8717C16.3141 31.0987 15.7613 31.104 15.3024 30.9475C14.9442 30.8263 14.6414 30.6091 14.4194 30.3288C14.1974 30.0488 14.0564 29.7079 14.0133 29.3317C13.9477 28.7484 14.1217 28.0896 14.6187 27.4708C14.644 27.4405 14.6717 27.4102 14.7045 27.3849L29.0984 16.1395C29.2851 15.9678 29.5724 15.9501 29.7793 16.1117L44.2065 27.3369C44.2292 27.3546 44.2491 27.3723 44.2693 27.395C44.9378 28.1146 45.1043 28.9123 44.9429 29.5865C44.8624 29.9198 44.7035 30.2177 44.484 30.4649C44.2645 30.7124 43.9844 30.9043 43.6666 31.0177C43.162 31.1997 42.5616 31.1944 41.9538 30.9068V41.3276H41.9546V42.6388H33.525L33.6118 42.3144L33.608 42.3134C33.6582 42.1252 33.6869 41.9323 33.6943 41.7392C33.7641 41.6091 33.8239 41.4715 33.8719 41.3276H40.541V30.2859C40.541 30.0309 30.6446 22.2015 29.5525 21.3506C28.3948 22.2318 18.3167 29.9981 18.3167 30.3263V41.3278ZM37.6523 16.897L41.9838 17.0737V22.9287L37.6523 20.0681V16.897ZM31.9353 32.6998C31.7128 32.821 31.435 32.7387 31.3152 32.5173C31.1944 32.2946 31.2766 32.0166 31.4991 31.8969C32.5511 31.3255 33.0411 30.5869 33.14 29.8645C33.1922 29.4787 33.1324 29.0913 32.9876 28.7325C32.8395 28.3692 32.6049 28.0386 32.3077 27.7725C31.7295 27.2551 30.9181 26.9829 30.0709 27.1938C29.7273 27.2789 29.4301 27.4511 29.17 27.6932C28.8935 27.9505 28.6546 28.2871 28.4452 28.6848C28.3274 28.9093 28.0509 28.9944 27.8281 28.8777C27.6041 28.7595 27.5188 28.483 27.6354 28.2601C27.8925 27.7725 28.1927 27.3538 28.5484 27.0218C28.9205 26.6764 29.3524 26.4282 29.8542 26.3039C31.0195 26.0153 32.1298 26.3832 32.9187 27.0892C33.3191 27.448 33.6375 27.8952 33.8378 28.3886C34.0394 28.8865 34.1216 29.434 34.0454 29.9887C33.9094 30.9785 33.2757 31.9716 31.9353 32.6998ZM28.4301 36.3144C26.6969 33.9843 26.655 31.7769 28.7588 29.7254L27.2438 28.8878C26.0303 28.4154 23.8042 31.8984 24.6647 32.8284L25.8452 34.581L25.6017 35.0895C25.5343 35.2408 25.6002 35.3468 25.7647 35.42L25.9246 35.4635L23.4351 40.964L24.0567 42.2906L25.3 41.9243L25.6196 41.3021L25.3133 40.7279L25.9887 40.583L26.1456 40.2779L25.7929 39.7393L26.0245 39.2894L26.6984 39.204L26.9181 38.7778L26.5417 38.2859L26.7821 37.8193L27.4696 37.7072L27.8238 36.5018L27.982 36.5886C28.2568 36.7555 28.3988 36.648 28.4301 36.3144ZM31.6919 37.7754L31.8155 38.9018L31.1805 39.153L31.0475 39.651L31.5107 40.0444L31.3899 40.4976L30.7624 40.7188L30.6338 41.1975L31.0836 41.6387L30.9968 41.9631L30.3797 42.2429L30.7922 42.729L30.6144 43.3913L29.5013 44.0001L28.6316 42.8588L29.7089 37.2446L29.3073 37.1371C29.225 37.1146 29.1743 37.0292 29.1968 36.9454L29.3655 36.3159C28.1493 35.3933 27.5471 33.7962 27.9654 32.2302C28.5032 30.2187 30.5321 29.0045 32.5436 29.4562C32.5524 29.5638 32.5509 29.6728 32.536 29.7822C32.4989 30.0544 32.3809 30.3341 32.1626 30.6048C32.1329 30.6407 32.1013 30.678 32.0685 30.7139C31.426 30.672 30.8238 31.0879 30.6507 31.734C30.5758 32.0123 30.5924 32.2933 30.6805 32.5461C30.7014 32.6357 30.7357 32.7226 30.7804 32.8076C30.8866 33.0023 31.0417 33.15 31.2241 33.2442C31.3437 33.3233 31.4782 33.3834 31.6232 33.4238C32.3448 33.6167 33.0845 33.2008 33.2997 32.4905C33.5179 32.2976 33.7076 32.0943 33.8706 31.885C34.1875 31.4767 34.4039 31.0432 34.5326 30.6018C35.4052 31.5439 35.789 32.9006 35.432 34.2345C35.0137 35.8003 33.6912 36.883 32.179 37.0729L32.01 37.7024C31.9878 37.7847 31.9025 37.8355 31.8188 37.813L31.6919 37.7754Z" fill="white"/>
</g>
<defs>
<clipPath id="clip0_795_4450">
<rect width="31" height="28" fill="white" transform="translate(14 16)"/>
</clipPath>
</defs>
</svg>
