<svg width="23" height="18" viewBox="0 0 23 18" fill="none" xmlns="http://www.w3.org/2000/svg">
<path d="M1.42773 9C1.42773 5.229 1.42773 3.343 2.59973 2.172C3.77173 1.001 5.65673 1 9.42773 1H13.4277C17.1987 1 19.0847 1 20.2557 2.172C21.4267 3.344 21.4277 5.229 21.4277 9C21.4277 12.771 21.4277 14.657 20.2557 15.828C19.0837 16.999 17.1987 17 13.4277 17H9.42773C5.65673 17 3.77073 17 2.59973 15.828C1.42873 14.656 1.42773 12.771 1.42773 9Z" stroke="currentColor" stroke-width="1.5"/>
<path d="M11.4277 7V11M9.69573 8L13.1597 10M13.1597 8L9.69573 10M6.16073 7V11M4.42773 8L7.89173 10M7.89173 8L4.42773 10M16.6957 7V11M14.9637 8L18.4277 10M18.4277 8L14.9627 10" stroke="currentColor" stroke-width="1.5" stroke-linecap="round"/>
</svg>
