<svg width="57" height="56" viewBox="0 0 57 56" fill="none" xmlns="http://www.w3.org/2000/svg">
<circle cx="28.5" cy="28" r="28" fill="#E9F4E7"/>
<path d="M21.4954 25.0835C21.4954 21.5397 24.3683 18.6668 27.9121 18.6668C31.0513 18.6668 33.6661 20.9222 34.2203 23.9013C34.298 24.319 34.5967 24.6615 35 24.7953C37.3226 25.5656 38.9954 27.7557 38.9954 30.3335C38.9954 33.5552 36.3838 36.1668 33.1621 36.1668C32.5178 36.1668 31.9954 36.6892 31.9954 37.3335C31.9954 37.9778 32.5178 38.5002 33.1621 38.5002C37.6724 38.5002 41.3288 34.8438 41.3288 30.3335C41.3288 26.959 39.2827 24.065 36.3661 22.8197C35.3681 19.0845 31.9625 16.3335 27.9121 16.3335C23.0796 16.3335 19.1621 20.251 19.1621 25.0835C19.1621 25.2005 19.1644 25.317 19.169 25.433C17.0743 26.6415 15.6621 28.9048 15.6621 31.5002C15.6621 35.3662 18.7961 38.5002 22.6621 38.5002C23.3064 38.5002 23.8288 37.9778 23.8288 37.3335C23.8288 36.6892 23.3064 36.1668 22.6621 36.1668C20.0848 36.1668 17.9954 34.0775 17.9954 31.5002C17.9954 29.5666 19.1716 27.9051 20.8522 27.1971C21.3385 26.9923 21.6268 26.4865 21.5552 25.9637C21.5158 25.6765 21.4954 25.3827 21.4954 25.0835Z" fill="#475367"/>
<path d="M27.7204 30.6282C28.1624 30.2353 28.8285 30.2353 29.2705 30.6282L31.0205 32.1837C31.5021 32.6118 31.5455 33.3492 31.1174 33.8308C30.7429 34.2521 30.1317 34.338 29.6621 34.0663V39.6668C29.6621 40.3112 29.1398 40.8335 28.4954 40.8335C27.8511 40.8335 27.3288 40.3112 27.3288 39.6668V34.0663C26.8592 34.338 26.248 34.2521 25.8735 33.8308C25.4454 33.3492 25.4888 32.6118 25.9704 32.1837L27.7204 30.6282Z" fill="#475367"/>
</svg>
