<svg width="28" height="28" viewBox="0 0 28 28" fill="none" xmlns="http://www.w3.org/2000/svg">
<path fill-rule="evenodd" clip-rule="evenodd" d="M14 0.666992C21.364 0.666992 27.3333 6.63633 27.3333 14.0003C27.338 17.0775 26.2738 20.0608 24.3226 22.4403L24.3493 22.4697L24.1733 22.619C22.9229 24.098 21.3648 25.2861 19.6076 26.1004C17.8504 26.9148 15.9367 27.3356 14 27.3337C10.0666 27.3337 6.53331 25.631 4.09331 22.9243L3.82664 22.6177L3.65064 22.471L3.67731 22.439C1.72632 20.0599 0.662136 17.0771 0.66664 14.0003C0.66664 6.63633 6.63597 0.666992 14 0.666992ZM14 20.667C11.52 20.667 9.27864 21.4563 7.60931 22.5417C9.45253 23.9247 11.6956 24.6707 14 24.667C16.3044 24.6707 18.5474 23.9247 20.3906 22.5417C18.4831 21.3193 16.2655 20.6688 14 20.667ZM14 3.33366C11.9927 3.3336 10.0261 3.89995 8.32627 4.96759C6.62645 6.03524 5.26238 7.56086 4.39085 9.36909C3.51933 11.1773 3.17571 13.1948 3.39951 15.1896C3.6233 17.1843 4.40542 19.0755 5.65597 20.6457C7.81731 19.095 10.7666 18.0003 14 18.0003C17.2333 18.0003 20.1826 19.095 22.344 20.6457C23.5945 19.0755 24.3766 17.1843 24.6004 15.1896C24.8242 13.1948 24.4806 11.1773 23.6091 9.36909C22.7376 7.56086 21.3735 6.03524 19.6737 4.96759C17.9739 3.89995 16.0073 3.3336 14 3.33366ZM14 6.00033C15.4145 6.00033 16.771 6.56223 17.7712 7.56242C18.7714 8.56262 19.3333 9.91917 19.3333 11.3337C19.3333 12.7481 18.7714 14.1047 17.7712 15.1049C16.771 16.1051 15.4145 16.667 14 16.667C12.5855 16.667 11.2289 16.1051 10.2287 15.1049C9.22854 14.1047 8.66664 12.7481 8.66664 11.3337C8.66664 9.91917 9.22854 8.56262 10.2287 7.56242C11.2289 6.56223 12.5855 6.00033 14 6.00033ZM14 8.66699C13.2927 8.66699 12.6145 8.94794 12.1144 9.44804C11.6143 9.94814 11.3333 10.6264 11.3333 11.3337C11.3333 12.0409 11.6143 12.7192 12.1144 13.2193C12.6145 13.7194 13.2927 14.0003 14 14.0003C14.7072 14.0003 15.3855 13.7194 15.8856 13.2193C16.3857 12.7192 16.6666 12.0409 16.6666 11.3337C16.6666 10.6264 16.3857 9.94814 15.8856 9.44804C15.3855 8.94794 14.7072 8.66699 14 8.66699Z" fill="#131313"/>
</svg>
