<svg width="19" height="20" viewBox="0 0 19 20" fill="none" xmlns="http://www.w3.org/2000/svg">
<path d="M13.3254 13.0563C13.8926 12.7516 14.5419 12.5781 15.2333 12.5781H15.2356C15.3059 12.5781 15.3387 12.4938 15.2872 12.4469C14.5681 11.8016 13.7468 11.2804 12.8567 10.9047C12.8473 10.9 12.8379 10.8977 12.8286 10.893C14.284 9.83594 15.2309 8.11797 15.2309 6.17969C15.2309 2.96875 12.634 0.367188 9.43014 0.367188C6.22623 0.367188 3.6317 2.96875 3.6317 6.17969C3.6317 8.11797 4.57857 9.83594 6.03639 10.893C6.02701 10.8977 6.01764 10.9 6.00826 10.9047C4.96061 11.3477 4.02076 11.9828 3.21217 12.7938C2.40823 13.5962 1.7682 14.5475 1.32779 15.5945C0.894464 16.6198 0.660601 17.7184 0.63873 18.8312C0.638105 18.8563 0.642492 18.8812 0.651635 18.9044C0.660777 18.9277 0.674489 18.949 0.691963 18.9669C0.709436 18.9848 0.730318 18.999 0.753378 19.0087C0.776437 19.0184 0.801208 19.0234 0.82623 19.0234H2.23014C2.33092 19.0234 2.41529 18.9414 2.41764 18.8406C2.46451 17.0312 3.18873 15.3367 4.47076 14.0523C5.79498 12.7234 7.55748 11.9922 9.43248 11.9922C10.7614 11.9922 12.0364 12.3602 13.1356 13.0492C13.1638 13.067 13.1963 13.077 13.2296 13.0782C13.2629 13.0794 13.296 13.0719 13.3254 13.0563ZM9.43248 10.2109C8.35904 10.2109 7.34889 9.79141 6.58717 9.02969C6.21239 8.65588 5.91528 8.21161 5.71295 7.72248C5.51062 7.23335 5.40707 6.70901 5.40826 6.17969C5.40826 5.10391 5.82779 4.09141 6.58717 3.32969C7.34654 2.56797 8.3567 2.14844 9.43248 2.14844C10.5083 2.14844 11.5161 2.56797 12.2778 3.32969C12.6526 3.70349 12.9497 4.14776 13.152 4.63689C13.3543 5.12603 13.4579 5.65036 13.4567 6.17969C13.4567 7.25547 13.0372 8.26797 12.2778 9.02969C11.5161 9.79141 10.5059 10.2109 9.43248 10.2109ZM18.0528 15.7891H16.084V13.8203C16.084 13.7172 15.9997 13.6328 15.8965 13.6328H14.584C14.4809 13.6328 14.3965 13.7172 14.3965 13.8203V15.7891H12.4278C12.3247 15.7891 12.2403 15.8734 12.2403 15.9766V17.2891C12.2403 17.3922 12.3247 17.4766 12.4278 17.4766H14.3965V19.4453C14.3965 19.5484 14.4809 19.6328 14.584 19.6328H15.8965C15.9997 19.6328 16.084 19.5484 16.084 19.4453V17.4766H18.0528C18.1559 17.4766 18.2403 17.3922 18.2403 17.2891V15.9766C18.2403 15.8734 18.1559 15.7891 18.0528 15.7891Z" fill="currentColor"/>
</svg>
