<svg width="22" height="22" viewBox="0 0 22 22" fill="none" xmlns="http://www.w3.org/2000/svg">
<path d="M10.9999 0.333008C12.4144 0.333008 13.771 0.894911 14.7712 1.8951C15.7713 2.8953 16.3333 4.25185 16.3333 5.66634C16.3333 7.08083 15.7713 8.43738 14.7712 9.43758C13.771 10.4378 12.4144 10.9997 10.9999 10.9997C9.58543 10.9997 8.22888 10.4378 7.22868 9.43758C6.22849 8.43738 5.66659 7.08083 5.66659 5.66634C5.66659 4.25185 6.22849 2.8953 7.22868 1.8951C8.22888 0.894911 9.58543 0.333008 10.9999 0.333008ZM10.9999 2.99967C10.2927 2.99967 9.6144 3.28063 9.1143 3.78072C8.6142 4.28082 8.33325 4.9591 8.33325 5.66634C8.33325 6.37359 8.6142 7.05186 9.1143 7.55196C9.6144 8.05206 10.2927 8.33301 10.9999 8.33301C11.7072 8.33301 12.3854 8.05206 12.8855 7.55196C13.3856 7.05186 13.6666 6.37359 13.6666 5.66634C13.6666 4.9591 13.3856 4.28082 12.8855 3.78072C12.3854 3.28063 11.7072 2.99967 10.9999 2.99967ZM10.9999 12.333C14.5599 12.333 21.6666 14.1063 21.6666 17.6663V21.6663H0.333252V17.6663C0.333252 14.1063 7.43992 12.333 10.9999 12.333ZM10.9999 14.8663C7.03992 14.8663 2.86659 16.813 2.86659 17.6663V19.133H19.1333V17.6663C19.1333 16.813 14.9599 14.8663 10.9999 14.8663Z" fill="currentColor"/>
</svg>
