<svg width="32" height="32" viewBox="0 0 32 32" fill="none" xmlns="http://www.w3.org/2000/svg">
<path d="M11.9879 7.97941L21.1899 2.66675L24.2646 7.99275L11.9879 7.97941Z" stroke="#80BE41" stroke-width="2.66667" stroke-linecap="round" stroke-linejoin="round"/>
<path d="M2.66663 9.33333C2.66663 8.97971 2.8071 8.64057 3.05715 8.39052C3.3072 8.14048 3.64634 8 3.99996 8H28C28.3536 8 28.6927 8.14048 28.9428 8.39052C29.1928 8.64057 29.3333 8.97971 29.3333 9.33333V28C29.3333 28.3536 29.1928 28.6928 28.9428 28.9428C28.6927 29.1929 28.3536 29.3333 28 29.3333H3.99996C3.64634 29.3333 3.3072 29.1929 3.05715 28.9428C2.8071 28.6928 2.66663 28.3536 2.66663 28V9.33333Z" stroke="#80BE41" stroke-width="2.66667" stroke-linejoin="round"/>
<path d="M23.5 22.0002H29.3333V15.3335H23.5C21.5667 15.3335 20 16.8262 20 18.6668C20 20.5075 21.5667 22.0002 23.5 22.0002Z" stroke="#80BE41" stroke-width="2.66667" stroke-linejoin="round"/>
<path d="M29.3333 11V27" stroke="#80BE41" stroke-width="2.66667" stroke-linecap="round"/>
</svg>
